<svg xmlns="http://www.w3.org/2000/svg" viewBox="0 0 512 512"><defs><style>.fa-secondary{opacity:.4}</style></defs><path d="M464 112v288H48V112h416m0-48H48a48 48 0 0 0-48 48v288a48 48 0 0 0 48 48h416a48 48 0 0 0 48-48V112a48 48 0 0 0-48-48z" class="fa-secondary"/><path d="M212 176.13A24 24 0 0 0 189.33 160h-26.66A24 24 0 0 0 140 176.12L86.3 330.75A16 16 0 0 0 101.42 352h16.94a16 16 0 0 0 15.12-10.75l7.38-21.25h70.29l7.37 21.25A16 16 0 0 0 233.64 352h16.94a16 16 0 0 0 15.11-21.25zM157.52 272L176 218.78 194.48 272zM408 160h-16a16 16 0 0 0-16 16v36.42a71.11 71.11 0 0 0-24-4.42 72 72 0 1 0 28 138.32 15.75 15.75 0 0 0 12 5.68h16a16 16 0 0 0 16-16V176a16 16 0 0 0-16-16zm-56 144a24 24 0 1 1 24-24 24 24 0 0 1-24 24z" class="fa-primary"/></svg>