<svg xmlns="http://www.w3.org/2000/svg" viewBox="0 0 512 512"><defs><style>.fa-secondary{opacity:.4}</style></defs><path d="M256 8C119 8 8 119 8 256s111 248 248 248 248-111 248-248S393 8 256 8zM144 240a31.86 31.86 0 0 1 10.22-23.43l-30.82-9.24a16 16 0 0 1 9.2-30.66l80 24A16 16 0 0 1 208 232h-1a32 32 0 1 1-63 8zm168.32 154.05c-27.93-33.26-84.59-33.26-112.62 0-13.57 16.23-38.38-4.18-24.72-20.41a105.93 105.93 0 0 1 162 0c13.83 16.43-11.19 36.45-24.66 20.41zm77.28-186.72L358 216.8a32 32 0 1 1-53 15.2 16 16 0 0 1-4.61-31.32l80-24a16 16 0 1 1 9.2 30.65z" class="fa-secondary"/><path d="M212.6 200.67l-80-24a16 16 0 0 0-9.2 30.66l30.82 9.24A32 32 0 1 0 207 232h1a16 16 0 0 0 4.59-31.33zm187.73-13.27a16 16 0 0 0-19.93-10.72l-80 24A16 16 0 0 0 305 232a32 32 0 1 0 53-15.2l31.58-9.47a16 16 0 0 0 10.75-19.93z" class="fa-primary"/></svg>