<svg xmlns="http://www.w3.org/2000/svg" viewBox="0 0 380 512"><defs><style>.fa-secondary{opacity:.4}</style></defs><path d="M358 480H22a23.94 23.94 0 0 1-24-24v-16a23.94 23.94 0 0 1 24-24h336a23.94 23.94 0 0 1 24 24v16a23.94 23.94 0 0 1-24 24z" class="fa-secondary"/><path d="M325.87 190.52l17.06 17a23.86 23.86 0 0 1 0 33.91L207 377a24 24 0 0 1-34 0L37.07 241.43a23.86 23.86 0 0 1 0-33.91l17.06-17a24 24 0 0 1 34 0l65.81 65.61V56A24 24 0 0 1 178 32h24.08a24 24 0 0 1 24.07 24v200.13L292 190.52a23.9 23.9 0 0 1 33.87 0z" class="fa-primary"/></svg>