<svg xmlns="http://www.w3.org/2000/svg" viewBox="0 0 512 512"><defs><style>.fa-secondary{opacity:.4}</style></defs><path d="M464 112v288H48V112h416m0-48H48a48 48 0 0 0-48 48v288a48 48 0 0 0 48 48h416a48 48 0 0 0 48-48V112a48 48 0 0 0-48-48z" class="fa-secondary"/><path d="M188.36 168.14A12 12 0 0 0 177 160h-35.89a12 12 0 0 0-11.37 8.14l-57.09 168A12 12 0 0 0 84 352h29.13a12 12 0 0 0 11.54-8.69l8.57-29.91h51.37l8.79 30a12 12 0 0 0 11.53 8.6h29.17a12 12 0 0 0 11.36-15.86zm-42.22 101.22l9-30.65c1.28-4.42 2.65-10 3.87-15.24 1.22 5.25 2.6 10.82 3.87 15.24l8.83 30.65zM331.2 160h-57.37a12 12 0 0 0-12 12v168a12 12 0 0 0 12 12h57.37c61 0 99-36.93 99-96.39-.04-58.97-37.96-95.61-99-95.61zm-1.8 145.39h-14.52v-98.78h14.52c28.68 0 46.17 16.77 46.17 49 0 32.1-16.4 49.78-46.17 49.78z" class="fa-primary"/></svg>