<svg xmlns="http://www.w3.org/2000/svg" viewBox="0 0 384 512"><defs><style>.fa-secondary{opacity:.4}</style></defs><path d="M382.8 448.7l-45.37-111.23c-7.56 5.88-15.92 10.77-25.43 13.32-21.07 5.64-16.45 3.18-25.12 11.85A71.78 71.78 0 0 1 200 374.43L252 502a16 16 0 0 0 26.43 5l36.25-38.28 52.69 2a16 16 0 0 0 15.43-22.02zM97.12 362.64C88.43 354 93 356.4 72 350.79c-9.51-2.55-17.87-7.45-25.43-13.32L1.2 448.7a16 16 0 0 0 15.43 22l52.69-2 36.24 38.3a16 16 0 0 0 26.44-5l52-127.61a71.8 71.8 0 0 1-86.92-11.79z" class="fa-secondary"/><path d="M366.63 152.72a41.48 41.48 0 0 0-10.42-39.58c-20.41-20.77-18.47-17.35-25.95-45.74a40.64 40.64 0 0 0-28.47-29c-27.88-7.61-24.52-5.62-45-26.41A39.79 39.79 0 0 0 218 1.4c-27.92 7.6-24 7.6-51.95 0A39.77 39.77 0 0 0 127.16 12c-20.41 20.78-17 18.8-44.94 26.41a40.64 40.64 0 0 0-28.47 29c-7.47 28.39-5.54 25-25.95 45.74a41.46 41.46 0 0 0-10.42 39.58c7.47 28.36 7.48 24.4 0 52.82a41.51 41.51 0 0 0 10.42 39.58c20.41 20.78 18.47 17.35 26 45.75a40.64 40.64 0 0 0 28.47 29C104.6 326 106.27 325 121 340a39.74 39.74 0 0 0 49.74 5.82 39.68 39.68 0 0 1 42.53 0A39.73 39.73 0 0 0 263 340c15.28-15.55 17-14.21 38.79-20.14a40.64 40.64 0 0 0 28.47-29c7.48-28.4 5.54-25 25.95-45.75a41.48 41.48 0 0 0 10.42-39.58c-7.47-28.36-7.48-24.4 0-52.81zM192 272c-52.1 0-94.34-43-94.34-96S139.9 80 192 80s94.34 43 94.34 96-42.24 96-94.34 96z" class="fa-primary"/></svg>