<svg xmlns="http://www.w3.org/2000/svg" viewBox="0 0 640 512"><defs><style>.fa-secondary{opacity:.4}</style></defs><path d="M192 416h256V96H192zm176-232a24 24 0 1 1-24 24 23.94 23.94 0 0 1 24-24zm0 96a24 24 0 1 1-24 24 23.94 23.94 0 0 1 24-24zm-96-96a24 24 0 1 1-24 24 23.94 23.94 0 0 1 24-24zm0 96a24 24 0 1 1-24 24 23.94 23.94 0 0 1 24-24z" class="fa-secondary"/><path d="M0 160v192a64.06 64.06 0 0 0 64 64h96V96H64a64.06 64.06 0 0 0-64 64zm576-64h-96v320h96a64.06 64.06 0 0 0 64-64V160a64.06 64.06 0 0 0-64-64zm-208 88a24 24 0 1 0 24 24 23.94 23.94 0 0 0-24-24zm0 96a24 24 0 1 0 24 24 23.94 23.94 0 0 0-24-24zm-96-96a24 24 0 1 0 24 24 23.94 23.94 0 0 0-24-24zm0 96a24 24 0 1 0 24 24 23.94 23.94 0 0 0-24-24z" class="fa-primary"/></svg>