<svg xmlns="http://www.w3.org/2000/svg" viewBox="0 0 512 512"><defs><style>.fa-secondary{opacity:.4}</style></defs><path d="M449.69 101.14a213.44 213.44 0 0 0-44 60.41l-.12.24-28.75-14 .09-.19a245.75 245.75 0 0 1 51.16-70.06 247.91 247.91 0 0 0-344.67.41 244.63 244.63 0 0 1 50.71 68.78l-28.61 14.2a212.59 212.59 0 0 0-43.57-59.3 247.92 247.92 0 0 0 .33 309.17 213.25 213.25 0 0 0 43.9-60.35l.11-.24L135 364.26l-.09.19a245.69 245.69 0 0 1-51.11 70 247.9 247.9 0 0 0 344.67-.32 244.45 244.45 0 0 1-50.76-68.82l28.65-14.25A212.66 212.66 0 0 0 450 410.45a248 248 0 0 0-.34-309.31zM147.24 334.5l-30.33-10.2A212.22 212.22 0 0 0 128 256.54a214 214 0 0 0-11.69-69.78l30.26-10.4A246 246 0 0 1 160 256.54a244.05 244.05 0 0 1-12.76 77.96zm218.08 1.14a245.31 245.31 0 0 1-.67-158.14L395 187.7a213.34 213.34 0 0 0 .6 137.54z" class="fa-secondary"/><path d="M106.16 350.45a213.64 213.64 0 0 1-43.9 60.35 249.26 249.26 0 0 0 21.56 23.67 245.77 245.77 0 0 0 51.12-70l.09-.19-28.76-14.05zm-.66-189.52l28.65-14.25A244.63 244.63 0 0 0 83.44 77.9a249.19 249.19 0 0 0-21.52 23.71 212.87 212.87 0 0 1 43.58 59.32zm300.23.62a213.44 213.44 0 0 1 44-60.41 249.14 249.14 0 0 0-21.56-23.66A245.53 245.53 0 0 0 377 147.55l-.09.19 28.75 14zm-21.84 93.91A212.22 212.22 0 0 1 395 187.7l-30.33-10.2a245.31 245.31 0 0 0 .67 158.14l30.26-10.4a214 214 0 0 1-11.71-69.78zm22.5 95.61l-28.65 14.25a244.39 244.39 0 0 0 50.77 68.83 250.29 250.29 0 0 0 21.49-23.7 212.66 212.66 0 0 1-43.61-59.38zM116.31 186.76A214 214 0 0 1 128 256.54a212.22 212.22 0 0 1-11.09 67.76l30.33 10.2a244.05 244.05 0 0 0 12.76-78 246 246 0 0 0-13.43-80.18z" class="fa-primary"/></svg>