<svg xmlns="http://www.w3.org/2000/svg" viewBox="0 0 512 512"><defs><style>.fa-secondary{opacity:.4}</style></defs><path d="M224 10.05A247 247 0 0 0 92.33 69.7l79.89 79.89A212.39 212.39 0 0 0 224 10.05zm-29.11 162.21L256 233.37 419.67 69.7A247 247 0 0 0 256 8v2a244.16 244.16 0 0 1-61.11 162.26zM288 502a247 247 0 0 0 131.67-59.7l-79.89-79.89A212.39 212.39 0 0 0 288 502zM442.3 92.33L278.63 256l61.11 61.11A244.16 244.16 0 0 1 502 256h2a247 247 0 0 0-61.7-163.67zm0 327.34A247 247 0 0 0 502 288a212.39 212.39 0 0 0-139.54 51.78zm-125.19-79.93L256 278.63 92.33 442.3A247 247 0 0 0 256 504v-2a244.16 244.16 0 0 1 61.11-162.26zM69.7 92.33A247 247 0 0 0 10.05 224a212.39 212.39 0 0 0 139.54-51.78zm102.56 102.56A244.16 244.16 0 0 1 10 256H8a247 247 0 0 0 61.7 163.67L233.37 256z" class="fa-secondary"/><path d="M288 502a249.94 249.94 0 0 1-32 2v-2a244.16 244.16 0 0 1 61.11-162.26L256 278.63 92.33 442.3a249.14 249.14 0 0 1-22.63-22.63L233.37 256l-61.11-61.11A244.16 244.16 0 0 1 10 256H8a249.94 249.94 0 0 1 2.05-32 212.39 212.39 0 0 0 139.54-51.78L69.7 92.33A249.14 249.14 0 0 1 92.33 69.7l79.89 79.89A212.39 212.39 0 0 0 224 10.05 249.94 249.94 0 0 1 256 8v2a244.16 244.16 0 0 1-61.11 162.26L256 233.37 419.67 69.7a249.14 249.14 0 0 1 22.63 22.63L278.63 256l61.11 61.11A244.16 244.16 0 0 1 502 256h2a249.94 249.94 0 0 1-2 32 212.39 212.39 0 0 0-139.54 51.78l79.89 79.89a249.14 249.14 0 0 1-22.63 22.63l-79.89-79.89A212.39 212.39 0 0 0 288 502z" class="fa-primary"/></svg>