<svg xmlns="http://www.w3.org/2000/svg" viewBox="0 0 384 512"><defs><style>.fa-secondary{opacity:.4}</style></defs><path d="M332.49 238a122 122 0 0 0 27-65.21C366.87 96.49 307 32 232.42 32H32a16 16 0 0 0-16 16v48a16 16 0 0 0 16 16h31.87v288H32a16 16 0 0 0-16 16v48a16 16 0 0 0 16 16h210.32c70.8 0 134.14-51.75 141-122.4 4.74-48.45-16.39-92.06-50.83-119.6zM64 112h168.42a48 48 0 1 1 0 96H64zm168.42 288H64V288h168.42a56 56 0 1 1 0 112z" class="fa-secondary"/><path d="M64 112v96h80v-96zm0 288h80V288H64z" class="fa-primary"/></svg>