<svg xmlns="http://www.w3.org/2000/svg" viewBox="0 0 512 512"><defs><style>.fa-secondary{opacity:.4}</style></defs><path d="M240 240a32 32 0 1 1 32-32 32 32 0 0 1-32 32zM224 64a32 32 0 1 0 32 32 32 32 0 0 0-32-32zm-96 128a32 32 0 1 0-32-32 32 32 0 0 0 32 32z" class="fa-secondary"/><path d="M256 8C119 8 8 119 8 256s111 248 248 248 248-111 248-248S393 8 256 8zM128 192a32 32 0 1 1 32-32 32 32 0 0 1-32 32zm64-96a32 32 0 1 1 32 32 32 32 0 0 1-32-32zm48 144a32 32 0 1 1 32-32 32 32 0 0 1-32 32z" class="fa-primary"/></svg>