<svg xmlns="http://www.w3.org/2000/svg" viewBox="0 0 640 512"><defs><style>.fa-secondary{opacity:.4}</style></defs><path d="M304 440a71.81 71.81 0 0 1-140 22.79A70.95 70.95 0 0 1 80 392a72.91 72.91 0 0 1 1.42-14.11A80 80 0 0 1 32 304c0-29.67 16.34-55.28 40.34-69.09A79.08 79.08 0 0 1 64 200a80 80 0 0 1 49.66-74A63.6 63.6 0 0 1 176 48c.75 0 1.45.2 2.2.22A63.87 63.87 0 0 1 304 64zm304-136c0-29.67-16.34-55.28-40.34-69.09A79.08 79.08 0 0 0 576 200a80 80 0 0 0-49.66-74A63.6 63.6 0 0 0 464 48c-.75 0-1.45.2-2.2.22A63.87 63.87 0 0 0 336 64v376a71.81 71.81 0 0 0 140 22.79 71.75 71.75 0 0 0 82.61-84.9A80 80 0 0 0 608 304z" class="fa-secondary"/><path d="M336 440a8 8 0 0 1-8 8h-16a8 8 0 0 1-8-8V72a8 8 0 0 1 8-8h16a8 8 0 0 1 8 8z" class="fa-primary"/></svg>