<svg xmlns="http://www.w3.org/2000/svg" viewBox="0 0 512 512"><defs><style>.fa-secondary{opacity:.4}</style></defs><path d="M256 320a64.07 64.07 0 0 1-64-64c0-28.95 19.45-53.19 45.88-61.07L293 139.79l-2.12-6.38c-11.15-3.17-22.7-5.41-34.88-5.41a128 128 0 1 0 128 128c0-12.18-2.24-23.73-5.42-34.89l-6.37-2.11-55.14 55.14C309.19 300.55 285 320 256 320zm236.43-138.9l-35.5 35.5a52.22 52.22 0 0 1-19.17 12.07A185.46 185.46 0 1 1 283.64 74.29a52 52 0 0 1 11.76-19.22l35.5-35.5A247.87 247.87 0 0 0 256 8C119 8 8 119 8 256s111 248 248 248 248-111 248-248a247.85 247.85 0 0 0-11.57-74.9z" class="fa-secondary"/><path d="M318 77.7L381.68 14a20.56 20.56 0 0 1 34 8l18.55 55.65 55.66 18.55a20.56 20.56 0 0 1 8 34L434.3 194a20.58 20.58 0 0 1-21 5l-49.7-16.57L273 273a24 24 0 0 1-34-34l90.59-90.59-16.57-49.7A20.58 20.58 0 0 1 318 77.7z" class="fa-primary"/></svg>