<svg xmlns="http://www.w3.org/2000/svg" viewBox="0 0 512 512"><defs><style>.fa-secondary{opacity:.4}</style></defs><path d="M320 256a63.92 63.92 0 0 1-28.93 53.43l-20.79 73.13C334.16 375.37 384 321.8 384 256a128 128 0 0 0-128-128c-65.8 0-119.38 49.84-126.56 113.72l73.13-20.78A63.93 63.93 0 0 1 320 256zM256 8C119 8 8 119 8 256c0 8.39.44 16.67 1.26 24.85a48.6 48.6 0 0 1 18-10.08L72.11 258c0-.68-.1-1.33-.1-2A184 184 0 1 1 256 440c-.68 0-1.34-.09-2-.1l-12.75 44.87a48.68 48.68 0 0 1-10.06 18c8.17.81 16.45 1.25 24.83 1.25 137 0 248-111 248-248S393 8 256 8z" class="fa-secondary"/><path d="M250.16 240.67a17.13 17.13 0 0 1 21.16 21.17L210.45 476c-4.31 15.17-25.09 17-31.92 2.73l-32.89-68.47-89.17 89.19a15.54 15.54 0 0 1-22 0l-22-22a15.52 15.52 0 0 1 0-22l89.17-89.17-68.39-32.81C19 326.65 20.81 305.86 36 301.55l214.18-60.88z" class="fa-primary"/></svg>