<svg xmlns="http://www.w3.org/2000/svg" viewBox="0 0 640 512"><defs><style>.fa-secondary{opacity:.4}</style></defs><path d="M256 0H96a32 32 0 0 0-32 32v160a32 32 0 0 0 32 32h160a32 32 0 0 0 32-32V32a32 32 0 0 0-32-32zm-16 120a8 8 0 0 1-8 8H120a8 8 0 0 1-8-8v-16a8 8 0 0 1 8-8h112a8 8 0 0 1 8 8zm16 168H96a32 32 0 0 0-32 32v160a32 32 0 0 0 32 32h160a32 32 0 0 0 32-32V320a32 32 0 0 0-32-32zm-29.09 140.29a8 8 0 0 1 0 11.31l-11.31 11.31a8 8 0 0 1-11.31 0L176 422.63l-28.29 28.29a8 8 0 0 1-11.31 0l-11.31-11.32a8 8 0 0 1 0-11.31L153.37 400l-28.29-28.29a8 8 0 0 1 0-11.31l11.31-11.31a8 8 0 0 1 11.31 0l28.3 28.28 28.29-28.29a8 8 0 0 1 11.31 0l11.31 11.31a8 8 0 0 1 0 11.31L198.63 400zM544 0H384a32 32 0 0 0-32 32v160a32 32 0 0 0 32 32h160a32 32 0 0 0 32-32V32a32 32 0 0 0-32-32zm-16 120a8 8 0 0 1-8 8h-40v40a8 8 0 0 1-8 8h-16a8 8 0 0 1-8-8v-40h-40a8 8 0 0 1-8-8v-16a8 8 0 0 1 8-8h40V56a8 8 0 0 1 8-8h16a8 8 0 0 1 8 8v40h40a8 8 0 0 1 8 8z" class="fa-secondary"/><path d="M226.91 360.39l-11.31-11.31a8 8 0 0 0-11.31 0L176 377.37l-28.3-28.28a8 8 0 0 0-11.31 0l-11.31 11.31a8 8 0 0 0 0 11.31L153.37 400l-28.28 28.29a8 8 0 0 0 0 11.31l11.31 11.32a8 8 0 0 0 11.31 0L176 422.63l28.29 28.28a8 8 0 0 0 11.31 0l11.31-11.31a8 8 0 0 0 0-11.31L198.63 400l28.28-28.3a8 8 0 0 0 0-11.31zM408 128h40v40a8 8 0 0 0 8 8h16a8 8 0 0 0 8-8v-40h40a8 8 0 0 0 8-8v-16a8 8 0 0 0-8-8h-40V56a8 8 0 0 0-8-8h-16a8 8 0 0 0-8 8v40h-40a8 8 0 0 0-8 8v16a8 8 0 0 0 8 8zM232 96H120a8 8 0 0 0-8 8v16a8 8 0 0 0 8 8h112a8 8 0 0 0 8-8v-16a8 8 0 0 0-8-8zm312 192H384a32 32 0 0 0-32 32v160a32 32 0 0 0 32 32h160a32 32 0 0 0 32-32V320a32 32 0 0 0-32-32zm-16 152a8 8 0 0 1-8 8H408a8 8 0 0 1-8-8v-16a8 8 0 0 1 8-8h112a8 8 0 0 1 8 8zm0-64a8 8 0 0 1-8 8H408a8 8 0 0 1-8-8v-16a8 8 0 0 1 8-8h112a8 8 0 0 1 8 8z" class="fa-primary"/></svg>