<svg xmlns="http://www.w3.org/2000/svg" viewBox="0 0 448 512"><defs><style>.fa-secondary{opacity:.4}</style></defs><path d="M0 464a48 48 0 0 0 48 48h352a48 48 0 0 0 48-48V192H0zm250.1-192.1l26-26a20.22 20.22 0 0 1 28.6 0l25.4 25.4a20.22 20.22 0 0 1 0 28.6l-26 26a5.07 5.07 0 0 1-7.2 0l-46.8-46.8a5.07 5.07 0 0 1 0-7.2zM120 444.8l5.4-48.2 95-95a5.07 5.07 0 0 1 7.2 0l46.8 46.8a5.07 5.07 0 0 1 0 7.2l-95 95-48.2 5.4a10.17 10.17 0 0 1-11.2-11.2z" class="fa-secondary"/><path d="M400 64h-48V12a12 12 0 0 0-12-12h-40a12 12 0 0 0-12 12v52H160V12a12 12 0 0 0-12-12h-40a12 12 0 0 0-12 12v52H48a48 48 0 0 0-48 48v48h448v-48a48 48 0 0 0-48-48zM227.6 301.6a5.07 5.07 0 0 0-7.2 0l-95 95-5.4 48.2a10.17 10.17 0 0 0 11.2 11.2l48.2-5.4 95-95a5.07 5.07 0 0 0 0-7.2zm77.1-55.7a20.22 20.22 0 0 0-28.6 0l-26 26a5.07 5.07 0 0 0 0 7.2l46.8 46.8a5.07 5.07 0 0 0 7.2 0l26-26a20.22 20.22 0 0 0 0-28.6z" class="fa-primary"/></svg>