<svg xmlns="http://www.w3.org/2000/svg" viewBox="0 0 448 512"><defs><style>.fa-secondary{opacity:.4}</style></defs><path d="M0 464a48 48 0 0 0 48 48h352a48 48 0 0 0 48-48V192H0zm120-132a12 12 0 0 1 12-12h184a12 12 0 0 1 12 12v40a12 12 0 0 1-12 12H132a12 12 0 0 1-12-12z" class="fa-secondary"/><path d="M316 320H132a12 12 0 0 0-12 12v40a12 12 0 0 0 12 12h184a12 12 0 0 0 12-12v-40a12 12 0 0 0-12-12zm84-256h-48V12a12 12 0 0 0-12-12h-40a12 12 0 0 0-12 12v52H160V12a12 12 0 0 0-12-12h-40a12 12 0 0 0-12 12v52H48a48 48 0 0 0-48 48v48h448v-48a48 48 0 0 0-48-48z" class="fa-primary"/></svg>