<svg xmlns="http://www.w3.org/2000/svg" viewBox="0 0 448 512"><defs><style>.fa-secondary{opacity:.4}</style></defs><path d="M0 464a48 48 0 0 0 48 48h352a48 48 0 0 0 48-48V192H0zm134.1-143.7l54.7-8 24.5-49.6a12 12 0 0 1 21.5 0l24.5 49.6 54.7 8a12 12 0 0 1 6.6 20.5L281 379.4l9.4 54.6a12 12 0 0 1-17.4 12.6l-49-25.8-48.9 25.8a12 12 0 0 1-17.4-12.6l9.4-54.6-39.6-38.6a12 12 0 0 1 6.6-20.5z" class="fa-secondary"/><path d="M400 64h-48V16a16 16 0 0 0-16-16h-32a16 16 0 0 0-16 16v48H160V16a16 16 0 0 0-16-16h-32a16 16 0 0 0-16 16v48H48a48 48 0 0 0-48 48v48h448v-48a48 48 0 0 0-48-48zm-86 256.3l-54.7-8-24.5-49.6a12 12 0 0 0-21.5 0l-24.5 49.6-54.7 8a12 12 0 0 0-6.6 20.5l39.6 38.6-9.4 54.6a12 12 0 0 0 17.4 12.6l48.9-25.8 49 25.8a12 12 0 0 0 17.4-12.6l-9.4-54.6 39.6-38.6a12 12 0 0 0-6.6-20.5z" class="fa-primary"/></svg>