<svg xmlns="http://www.w3.org/2000/svg" viewBox="0 0 448 512"><defs><style>.fa-secondary{opacity:.4}</style></defs><path d="M0 464a48 48 0 0 0 48 48h352a48 48 0 0 0 48-48V192H0zm130.6-160.1a12 12 0 0 1 0-17l28.3-28.3a12 12 0 0 1 17 0l48.1 48.1 48.1-48.1a12 12 0 0 1 17 0l28.3 28.3a12 12 0 0 1 0 17L269.3 352l48.1 48.1a12 12 0 0 1 0 17l-28.3 28.3a12 12 0 0 1-17 0L224 397.3l-48.1 48.1a12 12 0 0 1-17 0l-28.3-28.3a12 12 0 0 1 0-17l48.1-48.1z" class="fa-secondary"/><path d="M400 64h-48V12a12 12 0 0 0-12-12h-40a12 12 0 0 0-12 12v52H160V12a12 12 0 0 0-12-12h-40a12 12 0 0 0-12 12v52H48a48 48 0 0 0-48 48v48h448v-48a48 48 0 0 0-48-48zm-82.6 222.9l-28.3-28.3a12 12 0 0 0-17 0L224 306.7l-48.1-48.1a12 12 0 0 0-17 0l-28.3 28.3a12 12 0 0 0 0 17l48.1 48.1-48.1 48.1a12 12 0 0 0 0 17l28.3 28.3a12 12 0 0 0 17 0l48.1-48.1 48.1 48.1a12 12 0 0 0 17 0l28.3-28.3a12 12 0 0 0 0-17L269.3 352l48.1-48.1a12 12 0 0 0 0-17z" class="fa-primary"/></svg>