<svg xmlns="http://www.w3.org/2000/svg" viewBox="0 0 448 512"><defs><style>.fa-secondary{opacity:.4}</style></defs><path d="M0 464a48 48 0 0 0 48 48h352a48 48 0 0 0 48-48V192H0zm196.8-224h54.4a12 12 0 0 1 12 12.8l-7.2 112a12 12 0 0 1-12 11.2h-40a12 12 0 0 1-12-11.2l-7.2-112a12.1 12.1 0 0 1 12-12.8zM224 392a40 40 0 1 1-40 40 40 40 0 0 1 40-40z" class="fa-secondary"/><path d="M400 64h-48V12a12 12 0 0 0-12-12h-40a12 12 0 0 0-12 12v52H160V12a12 12 0 0 0-12-12h-40a12 12 0 0 0-12 12v52H48a48 48 0 0 0-48 48v48h448v-48a48 48 0 0 0-48-48zM204 376h40a12 12 0 0 0 12-11.2l7.2-112a12 12 0 0 0-12-12.8h-54.4a12.1 12.1 0 0 0-12 12.8l7.2 112a12 12 0 0 0 12 11.2zm20 16a40 40 0 1 0 40 40 40 40 0 0 0-40-40z" class="fa-primary"/></svg>