<svg xmlns="http://www.w3.org/2000/svg" viewBox="0 0 640 512"><defs><style>.fa-secondary{opacity:.4}</style></defs><path d="M480.59 143.88c-61.87 0-108 6.6-139 13.15C354.17 205.34 369.28 253.5 386 295c24-3.92 55.46-7.11 94.5-7.11 38.49 0 69.6 3.1 93.51 7 16.73-41.48 31.85-89.66 44.44-138-30.95-6.57-76.75-13.01-137.86-13.01zM187.07 307.25c-43.75 43.75-71.7 81-89 107.58C141.13 440.1 185.87 463.47 227 481c14.24-19.77 34.2-44.25 61.8-71.85 27.22-27.22 51.41-47 71-61.2-17.5-41.16-40.87-85.92-66.15-129-26.43 17.25-63.37 45.05-106.58 88.3z" class="fa-secondary"/><path d="M480 0C314.19 1.62 315.52 39.54 322.11 72.47c3.47 17.35 7.44 35.27 11.74 53.33 32.89-7 81.71-13.93 146.74-13.93 64.29 0 112.75 6.76 145.62 13.7 4.28-18 8.22-35.81 11.68-53.1C644.48 39.54 645.81 1.62 480 0zm-94 295c28.24 70.08 61.05 121 93.88 121h.12c32.87-.09 65.72-51.08 94-121.22-23.91-3.86-55-7-93.51-7C441.45 287.85 410 291 386 295zm-97.2 114.12c-27.6 27.6-47.56 52.08-61.8 71.88 69.56 29.61 128.79 42.43 152 19.22l.08-.09c23.17-23.3 10.35-82.58-19.25-152.18-19.62 14.15-43.83 33.95-71.03 61.17zm-41-263.59c-18.62-27.95-44.5-55.7-162.89 60.4-116.1 118.39-88.34 144.26-60.4 162.89 14.72 9.81 30.2 19.67 46 29.4 18.31-28.2 47.93-67.62 93.91-113.61 45.46-45.46 84.51-74.94 112.66-93.28-9.69-15.75-19.5-31.13-29.28-45.8z" class="fa-primary"/></svg>