<svg xmlns="http://www.w3.org/2000/svg" viewBox="0 0 512 512"><defs><style>.fa-secondary{opacity:.4}</style></defs><path d="M373.33 85.33C373.33 61.77 416 0 416 0s42.67 61.77 42.67 85.33a42.67 42.67 0 0 1-85.34 0zM424 448h-56v32a32 32 0 0 0 32 32h32a32 32 0 0 0 32-32v-46.06A63.71 63.71 0 0 1 424 448zM256 128a42.67 42.67 0 0 0 42.67-42.67C298.67 61.76 256 0 256 0s-42.67 61.77-42.67 85.33A42.68 42.68 0 0 0 256 128zm108.07 126.18A48 48 0 0 0 319.5 224h-127a48 48 0 0 0-44.57 30.17L134.4 288h243.2zM96 128a42.67 42.67 0 0 0 42.67-42.67C138.67 61.76 96 0 96 0S53.33 61.77 53.33 85.33A42.68 42.68 0 0 0 96 128zm-8 320a63.71 63.71 0 0 1-40-14.06V480a32 32 0 0 0 32 32h32a32 32 0 0 0 32-32v-32z" class="fa-secondary"/><path d="M448.49 292.91l-5.07-12.67-19.93-49.83a111.47 111.47 0 0 0-104-70.4h-127a111.46 111.46 0 0 0-104 70.4l-19.91 49.82-5.07 12.67A64 64 0 0 0 24 352v32a64 64 0 0 0 64 64h336a64 64 0 0 0 64-64v-32a64 64 0 0 0-39.51-59.09zm-300.56-38.73A48 48 0 0 1 192.5 224h127a48 48 0 0 1 44.57 30.17L377.6 288H134.4zM96 399.8c-19.2 0-32-12.76-32-31.9S76.8 336 96 336s48 28.71 48 47.85-28.8 15.95-48 15.95zm352-31.9c0 19.14-12.8 31.9-32 31.9s-48 3.19-48-15.95S396.8 336 416 336s32 12.76 32 31.9z" class="fa-primary"/></svg>