<svg xmlns="http://www.w3.org/2000/svg" viewBox="0 0 512 512"><defs><style>.fa-secondary{opacity:.4}</style></defs><path d="M192.5 128h127a48 48 0 0 1 44.57 30.17L384 208H128l19.93-49.83A48 48 0 0 1 192.5 128zM432 384h-48v32a32 32 0 0 0 32 32h32a32 32 0 0 0 32-32v-48a31.91 31.91 0 0 0-.43-5.2A63.82 63.82 0 0 1 432 384zm-352 0a63.82 63.82 0 0 1-47.57-21.2A31.82 31.82 0 0 0 32 368v48a32 32 0 0 0 32 32h32a32 32 0 0 0 32-32v-32z" class="fa-secondary"/><path d="M454.66 212.33l-31.17-77.93A111.46 111.46 0 0 0 319.5 64h-127a111.47 111.47 0 0 0-104 70.4l-31.16 77.93A63.86 63.86 0 0 0 16 272v48a64 64 0 0 0 64 64h352a64 64 0 0 0 64-64v-48a63.86 63.86 0 0 0-41.34-59.67zm-306.73-54.16A48 48 0 0 1 192.5 128h127a48 48 0 0 1 44.57 30.17L384 208H128zM96 319.8c-19.2 0-32-12.76-32-31.9S76.8 256 96 256s48 28.71 48 47.85-28.8 15.95-48 15.95zm320 0c-19.2 0-48 3.19-48-15.95S396.8 256 416 256s32 12.76 32 31.9-12.8 31.9-32 31.9z" class="fa-primary"/></svg>