<svg xmlns="http://www.w3.org/2000/svg" viewBox="0 0 512 512"><defs><style>.fa-secondary{opacity:.4}</style></defs><path d="M458.62 255.92l46 45c13.7 13 7.32 36-10.67 40.34l-62.65 16 17.66 62c5 17.83-11.82 34.66-29.66 29.67l-62-17.67-16 62.67c-4.3 18.17-27.81 24.17-40.3 10.68l-45-46-45 46c-12.63 13.35-35.89 7.91-40.33-10.67l-16-62.67-62 17.67c-17.84 5-34.66-11.83-29.66-29.67l17.66-62-62.65-16C.08 337-6.32 313.9 7.39 300.92l46-45-46-45c-13.7-13-7.32-36 10.67-40.34l62.65-16-17.66-62c-5-17.83 11.82-34.66 29.66-29.67l62 17.67 16-62.67C175 0 198.38-6.12 211 7.23l45 46.34 45-46.34c12.78-13.51 36.1-7 40.33 10.67l16 62.67 62-17.67c17.84-5 34.66 11.83 29.66 29.67l-17.66 62 62.65 16c18 4.3 24.38 27.36 10.67 40.34l-46 45z" class="fa-secondary"/></svg>