<svg xmlns="http://www.w3.org/2000/svg" viewBox="0 0 640 512"><defs><style>.fa-secondary{opacity:.4}</style></defs><path d="M208 256h-48V128A128 128 0 0 1 288 0h64a128 128 0 0 1 128 128v128h-48V128c0-29.5-16.2-55-40-68.9V256h-48V48h-48v208h-48V59.1C224.22 73 208 98.5 208 128z" class="fa-secondary"/><path d="M512 384v112a16 16 0 0 1-16 16h-32a16 16 0 0 1-16-16V384H192v112a16 16 0 0 1-16 16h-32a16 16 0 0 1-16-16V384a32.08 32.08 0 0 1-30.4-42.1l10.7-32a32 32 0 0 1 30.4-21.9h362.5a32 32 0 0 1 30.4 21.9l10.7 32A32 32 0 0 1 512 384z" class="fa-primary"/></svg>