<svg xmlns="http://www.w3.org/2000/svg" viewBox="0 0 480 512"><defs><style>.fa-secondary{opacity:.4}</style></defs><path d="M269.54 273L75.14 467.3a23.9 23.9 0 0 1-33.9 0l-22.7-22.7a24.08 24.08 0 0 1 0-33.9l154-154.7-154-154.7a23.9 23.9 0 0 1 0-33.9l22.7-22.7a23.9 23.9 0 0 1 33.9 0L269.54 239a24.2 24.2 0 0 1 0 34z" class="fa-secondary"/><path d="M461.54 273l-194.4 194.3a23.9 23.9 0 0 1-33.9 0l-22.7-22.7a23.9 23.9 0 0 1 0-33.9l154-154.7-154-154.7a24.08 24.08 0 0 1 0-33.9l22.7-22.7a23.9 23.9 0 0 1 33.9 0L461.54 239a24.2 24.2 0 0 1 0 34z" class="fa-primary"/></svg>