<svg xmlns="http://www.w3.org/2000/svg" viewBox="0 0 480 512"><defs><style>.fa-secondary{opacity:.4}</style></defs><path d="M210.5 239L404.9 44.7a23.9 23.9 0 0 1 33.9 0l22.7 22.7a24.08 24.08 0 0 1 0 33.9L307.5 256l153.9 154.7a23.9 23.9 0 0 1 0 33.9l-22.7 22.7a23.9 23.9 0 0 1-33.9 0L210.5 273a24.2 24.2 0 0 1 0-34z" class="fa-secondary"/><path d="M18.5 239L212.9 44.7a23.9 23.9 0 0 1 33.9 0l22.7 22.7a23.9 23.9 0 0 1 0 33.9L115.5 256l154 154.7a24.08 24.08 0 0 1 0 33.9l-22.7 22.7a23.9 23.9 0 0 1-33.9 0L18.5 273a24.2 24.2 0 0 1 0-34z" class="fa-primary"/></svg>