<svg xmlns="http://www.w3.org/2000/svg" viewBox="0 0 512 512"><defs><style>.fa-secondary{opacity:.4}</style></defs><path d="M504 254.28v.23C503.42 391 392.44 501.24 256 501v-64a184.08 184.08 0 0 0 177.16-134.42c27.44-97.84-29.63-199.41-127.47-226.85A24 24 0 0 1 288 52.66V36a23.7 23.7 0 0 1 .76-6A24 24 0 0 1 318 12.78c107.4 27.65 186.61 125.38 186 241.5z" class="fa-secondary"/><path d="M256 436.93v64C119.56 501.24 8.58 391 8 254.51v-.23C7.39 138.16 86.6 40.43 194 12.78A24 24 0 0 1 223.24 30a23.7 23.7 0 0 1 .76 6v16.66a24 24 0 0 1-17.69 23.07c-97.84 27.44-154.91 129-127.47 226.85A184.08 184.08 0 0 0 256 436.93z" class="fa-primary"/></svg>