<svg xmlns="http://www.w3.org/2000/svg" viewBox="0 0 640 512"><defs><style>.fa-secondary{opacity:.4}</style></defs><path d="M566.61 233.32L342.68 9.39a32.08 32.08 0 0 0-45.36 0L73.39 233.32a32.08 32.08 0 0 0 0 45.36l223.93 223.93a32.07 32.07 0 0 0 45.36 0l223.93-223.93a32.08 32.08 0 0 0 0-45.36zm-101 12.56l-84.21 77.73a8 8 0 0 1-13.4-5.88V264h-96v64a8 8 0 0 1-8 8h-32a8 8 0 0 1-8-8v-80a32 32 0 0 1 32-32h112v-53.73a8 8 0 0 1 13.43-5.88l84.21 77.73a8 8 0 0 1-.01 11.76z" class="fa-secondary"/><path d="M465.63 245.88l-84.21 77.73a8 8 0 0 1-13.42-5.88V264h-96v64a8 8 0 0 1-8 8h-32a8 8 0 0 1-8-8v-80a32 32 0 0 1 32-32h112v-53.73a8 8 0 0 1 13.43-5.88l84.21 77.73a8 8 0 0 1-.01 11.76z" class="fa-primary"/></svg>