<svg xmlns="http://www.w3.org/2000/svg" viewBox="0 0 512 512"><defs><style>.fa-secondary{opacity:.4}</style></defs><path d="M256 8C119 8 8 119 8 256s111 248 248 248 248-111 248-248S393 8 256 8zm-96 206.6l-28.7 28.7c-14.8 14.8-37.8-7.5-22.6-22.6l28.7-28.7-28.7-28.7c-15-15 7.7-37.6 22.6-22.6l28.7 28.7 28.7-28.7c15-15 37.6 7.7 22.6 22.6L182.6 192l28.7 28.7c15.2 15.2-7.9 37.4-22.6 22.6zM256 416a64 64 0 1 1 64-64 64.06 64.06 0 0 1-64 64zm124.7-172.7L352 214.6l-28.7 28.7c-14.8 14.8-37.8-7.5-22.6-22.6l28.7-28.7-28.7-28.7c-15-15 7.7-37.6 22.6-22.6l28.7 28.7 28.7-28.7c15-15 37.6 7.7 22.6 22.6L374.6 192l28.7 28.7c15.2 15.2-7.9 37.4-22.6 22.6z" class="fa-secondary"/><path d="M403.3 220.7L374.6 192l28.7-28.7c15-14.9-7.6-37.6-22.6-22.6L352 169.4l-28.7-28.7c-14.9-15-37.6 7.6-22.6 22.6l28.7 28.7-28.7 28.7c-15.2 15.1 7.8 37.4 22.6 22.6l28.7-28.7 28.7 28.7c14.7 14.8 37.8-7.4 22.6-22.6zM182.6 192l28.7-28.7c15-14.9-7.6-37.6-22.6-22.6L160 169.4l-28.7-28.7c-14.9-15-37.6 7.6-22.6 22.6l28.7 28.7-28.7 28.7c-15.2 15.1 7.8 37.4 22.6 22.6l28.7-28.7 28.7 28.7c14.7 14.8 37.8-7.4 22.6-22.6z" class="fa-primary"/></svg>