<svg xmlns="http://www.w3.org/2000/svg" viewBox="0 0 320 512"><defs><style>.fa-secondary{opacity:.4}</style></defs><path d="M192 64h-64V16a16 16 0 0 1 16-16h32a16 16 0 0 1 16 16zm-64 384v48a16 16 0 0 0 16 16h32a16 16 0 0 0 16-16v-48z" class="fa-secondary"/><path d="M297.72 375.1c-15.4 44.1-59.11 71.8-105.72 72.7l-64 .2a141.41 141.41 0 0 1-86.51-30c-7.9-6.1-8.9-17.6-1.8-24.5l34.81-34a15.6 15.6 0 0 1 19.5-2 61 61 0 0 0 34.19 10.5h66.31a29.49 29.49 0 0 0 8.3-57.8l-102.52-30c-44.4-13-79.61-50.5-83.81-96.6a109.57 109.57 0 0 1 99.1-119.14c3.3-.3 6.61-.46 9.92-.46H192a141.42 141.42 0 0 1 86.52 30c7.9 6.1 8.9 17.6 1.8 24.5l-34.81 34a15.6 15.6 0 0 1-19.5 2A61.08 61.08 0 0 0 191.8 144h-66.31a29.49 29.49 0 0 0-8.3 57.8l108 31.6c57.93 16.9 94.04 80.1 72.53 141.7z" class="fa-primary"/></svg>