<svg xmlns="http://www.w3.org/2000/svg" viewBox="0 0 576 512"><defs><style>.fa-secondary{opacity:.4}</style></defs><path d="M571.44 15.54a32 32 0 0 0-43.91-11l-320 192a32 32 0 0 0 32.94 54.88l320-192a32 32 0 0 0 10.97-43.88zM96 336a32 32 0 0 0-32 32v96.43c18.25 10 39.83 18.81 64 26V368a32 32 0 0 0-32-32zm192 32a32 32 0 0 0-32 32v111.2q15.76.76 32 .79t32-.79V400a32 32 0 0 0-32-32zm192-32a32 32 0 0 0-32 32v122.43c24.17-7.19 45.75-16 64-26V368a32 32 0 0 0-32-32z" class="fa-secondary"/><path d="M576 224v160c0 30.48-24 58.46-64 80.44V368a32 32 0 0 0-64 0v122.43c-37.4 11.13-81 18.46-128 20.77V400a32 32 0 0 0-64 0v111.2c-47-2.31-90.6-9.64-128-20.77V368a32 32 0 0 0-64 0v96.43c-40-22-64-50-64-80.44V224C0 153.31 128.94 96 288 96a629.71 629.71 0 0 1 78.84 5l-71.91 43.14c-2.31 0-4.59-.12-6.93-.12-132.55 0-240 35.82-240 80s107.45 80 240 80 240-35.81 240-80c0-30.27-50.45-56.6-124.82-70.19l54.9-32.94C529.46 144.17 576 181.63 576 224z" class="fa-primary"/></svg>