<svg xmlns="http://www.w3.org/2000/svg" viewBox="0 0 384 512"><defs><style>.fa-secondary{opacity:.4}</style></defs><path d="M288 320H96v-64h192zm-40-160h136v328a23.94 23.94 0 0 1-24 24H24a23.94 23.94 0 0 1-24-24V24A23.94 23.94 0 0 1 24 0h200v136a24.07 24.07 0 0 0 24 24zM64 88a8 8 0 0 0 8 8h80a8 8 0 0 0 8-8V72a8 8 0 0 0-8-8H72a8 8 0 0 0-8 8zm0 64a8 8 0 0 0 8 8h80a8 8 0 0 0 8-8v-16a8 8 0 0 0-8-8H72a8 8 0 0 0-8 8zm256 272a8 8 0 0 0-8-8h-80a8 8 0 0 0-8 8v16a8 8 0 0 0 8 8h80a8 8 0 0 0 8-8zm-16-200H80a16 16 0 0 0-16 16v96a16 16 0 0 0 16 16h224a16 16 0 0 0 16-16v-96a16 16 0 0 0-16-16zm73-119L279.1 7a24 24 0 0 0-17-7H256v128h128v-6.1a23.92 23.92 0 0 0-7-16.9z" class="fa-secondary"/><path d="M312 416h-80a8 8 0 0 0-8 8v16a8 8 0 0 0 8 8h80a8 8 0 0 0 8-8v-16a8 8 0 0 0-8-8zm-8-192H80a16 16 0 0 0-16 16v96a16 16 0 0 0 16 16h224a16 16 0 0 0 16-16v-96a16 16 0 0 0-16-16zm-16 96H96v-64h192z" class="fa-primary"/></svg>