<svg xmlns="http://www.w3.org/2000/svg" viewBox="0 0 384 512"><defs><style>.fa-secondary{opacity:.4}</style></defs><path d="M224 136V0H24A23.94 23.94 0 0 0 0 24v464a23.94 23.94 0 0 0 24 24h336a23.94 23.94 0 0 0 24-24V160H248a24.07 24.07 0 0 1-24-24zm-96 144a8 8 0 0 1-8 8h-8a16 16 0 0 0-16 16v32a16 16 0 0 0 16 16h8a8 8 0 0 1 8 8v16a8 8 0 0 1-8 8h-8a48 48 0 0 1-48-48v-32a48 48 0 0 1 48-48h8a8 8 0 0 1 8 8zm44.27 104H160a8 8 0 0 1-8-8v-16a8 8 0 0 1 8-8h12.27c5.95 0 10.41-3.5 10.41-6.62a5.29 5.29 0 0 0-2.12-3.84l-21.89-18.77a37.11 37.11 0 0 1-13.33-28.14c0-21.3 19-38.62 42.41-38.62H200a8 8 0 0 1 8 8v16a8 8 0 0 1-8 8h-12.27c-5.95 0-10.41 3.5-10.41 6.62a5.29 5.29 0 0 0 2.12 3.84l21.89 18.77a37.11 37.11 0 0 1 13.33 28.14c.01 21.29-19 38.62-42.39 38.62zM256 264v20.8a109 109 0 0 0 16 56.88 109 109 0 0 0 16-56.88V264a8 8 0 0 1 8-8h16a8 8 0 0 1 8 8v20.8c0 35.48-12.88 68.89-36.28 94.09a16 16 0 0 1-23.44 0c-23.4-25.2-36.28-58.61-36.28-94.09V264a8 8 0 0 1 8-8h16a8 8 0 0 1 8 8zm128-142.1v6.1H256V0h6.1a24 24 0 0 1 17 7l97.9 98a23.92 23.92 0 0 1 7 16.9z" class="fa-secondary"/><path d="M201.33 317.24l-21.89-18.77a5.29 5.29 0 0 1-2.12-3.84c0-3.12 4.46-6.62 10.41-6.62H200a8 8 0 0 0 8-8V264a8 8 0 0 0-8-8h-12.25c-23.39 0-42.41 17.32-42.41 38.62a37.11 37.11 0 0 0 13.33 28.14l21.89 18.77a5.29 5.29 0 0 1 2.12 3.84c0 3.12-4.46 6.62-10.41 6.62H160a8 8 0 0 0-8 8v16a8 8 0 0 0 8 8h12.27c23.39 0 42.4-17.33 42.39-38.62a37.11 37.11 0 0 0-13.33-28.13zM120 256h-8a48 48 0 0 0-48 48v32a48 48 0 0 0 48 48h8a8 8 0 0 0 8-8v-16a8 8 0 0 0-8-8h-8a16 16 0 0 1-16-16v-32a16 16 0 0 1 16-16h8a8 8 0 0 0 8-8v-16a8 8 0 0 0-8-8zm192 0h-16a8 8 0 0 0-8 8v20.8a109 109 0 0 1-16 56.88 109 109 0 0 1-16-56.88V264a8 8 0 0 0-8-8h-16a8 8 0 0 0-8 8v20.8c0 35.48 12.88 68.89 36.28 94.09a16 16 0 0 0 23.44 0c23.4-25.2 36.28-58.61 36.28-94.09V264a8 8 0 0 0-8-8z" class="fa-primary"/></svg>