<svg xmlns="http://www.w3.org/2000/svg" viewBox="0 0 448 512"><defs><style>.fa-secondary{opacity:.4}</style></defs><path d="M312 160h136v328a23.94 23.94 0 0 1-24 24H88a23.94 23.94 0 0 1-24-24V320h70.1l34.8 69.5a8 8 0 0 0 14.3 0L240 275.8l22.1 44.2h89.48a16.28 16.28 0 0 0 16.3-14A16 16 0 0 0 352 288h-70.2l-34.7-69.5a8 8 0 0 0-14.3 0L176 332.2l-19.9-39.8a8.15 8.15 0 0 0-7.2-4.4H64V24A23.94 23.94 0 0 1 88 0h200v136a24.07 24.07 0 0 0 24 24zm129-55L343.1 7a24 24 0 0 0-17-7H320v128h128v-6.1a23.92 23.92 0 0 0-7-16.9z" class="fa-secondary"/><path d="M351.58 320H262.1L240 275.8l-56.8 113.7a8 8 0 0 1-14.3 0L134.1 320H8a8 8 0 0 1-8-8v-16a8 8 0 0 1 8-8h140.9a8.15 8.15 0 0 1 7.2 4.4l19.9 39.8 56.8-113.7a8 8 0 0 1 14.3 0l34.7 69.5H352a16 16 0 0 1 15.88 18 16.28 16.28 0 0 1-16.3 14z" class="fa-primary"/></svg>