<svg xmlns="http://www.w3.org/2000/svg" viewBox="0 0 384 512"><defs><style>.fa-secondary{opacity:.4}</style></defs><path d="M384 121.9v6.1H256V0h6.1a24 24 0 0 1 17 7l97.9 98a23.92 23.92 0 0 1 7 16.9zM248 160h136v328a23.94 23.94 0 0 1-24 24H24a23.94 23.94 0 0 1-24-24V24A23.94 23.94 0 0 1 24 0h200v136a24.07 24.07 0 0 0 24 24zM64 88a8 8 0 0 0 8 8h80a8 8 0 0 0 8-8V72a8 8 0 0 0-8-8H72a8 8 0 0 0-8 8zm8 72h80a8 8 0 0 0 8-8v-16a8 8 0 0 0-8-8H72a8 8 0 0 0-8 8v16a8 8 0 0 0 8 8zm178.67 210.81c0-20-13-37.81-31.58-43.39l-45-13.5c-5.16-1.54-8.77-6.78-8.77-12.73 0-7.27 5.3-13.19 11.8-13.19h28.11a24 24 0 0 1 12.82 3.72 8.21 8.21 0 0 0 10.13-.73l11.75-11.21a8 8 0 0 0-.57-12.14A57.18 57.18 0 0 0 208 256.29V232a8 8 0 0 0-8-8h-16a8 8 0 0 0-8 8v24.12c-23.62.63-42.67 20.55-42.67 45.07 0 20 13 37.81 31.58 43.39l45 13.5c5.16 1.54 8.77 6.78 8.77 12.73 0 7.27-5.3 13.19-11.8 13.19h-28.12a24.08 24.08 0 0 1-12.82-3.72 8.21 8.21 0 0 0-10.13.73l-11.75 11.21a8 8 0 0 0 .57 12.14A57.26 57.26 0 0 0 176 415.71V440a8 8 0 0 0 8 8h16a8 8 0 0 0 8-8v-24.12c23.62-.63 42.67-20.54 42.67-45.07z" class="fa-secondary"/><path d="M176 232a8 8 0 0 1 8-8h16a8 8 0 0 1 8 8v24.29a57.18 57.18 0 0 1 31.37 11.35 8 8 0 0 1 .57 12.14L228.18 291a8.21 8.21 0 0 1-10.13.73 24 24 0 0 0-12.82-3.73h-28.11c-6.5 0-11.8 5.92-11.8 13.19 0 5.95 3.61 11.19 8.77 12.73l45 13.5c18.59 5.58 31.58 23.42 31.58 43.39 0 24.53-19 44.44-42.67 45.07V440a8 8 0 0 1-8 8h-16a8 8 0 0 1-8-8v-24.29a57.26 57.26 0 0 1-31.37-11.35 8 8 0 0 1-.57-12.14L155.81 381a8.21 8.21 0 0 1 10.13-.73 24.08 24.08 0 0 0 12.82 3.73h28.11c6.5 0 11.8-5.92 11.8-13.19 0-5.95-3.61-11.19-8.77-12.73l-45-13.5c-18.59-5.58-31.58-23.42-31.58-43.39 0-24.52 19.05-44.44 42.67-45.07z" class="fa-primary"/></svg>