<svg xmlns="http://www.w3.org/2000/svg" viewBox="0 0 384 512"><defs><style>.fa-secondary{opacity:.4}</style></defs><path d="M224 136V0h-64v32h-32V0H24A23.94 23.94 0 0 0 0 24v464a23.94 23.94 0 0 0 24 24h336a23.94 23.94 0 0 0 24-24V160H248a24.07 24.07 0 0 1-24-24zM95.9 32h32v32h-32zM128 416a52.44 52.44 0 0 1-51.4-62.9L96.23 256v-32h32v-32h-32v-32h32v-32h-32V96h32V64h32v32h-32v32h32v32h-32v32h32v32h-32v32h22.1a12.09 12.09 0 0 1 11.8 9.7l17.3 87.7A52.44 52.44 0 0 1 128 416zm256-294.1v6.1H256V0h6.1a24 24 0 0 1 17 7l97.9 98a23.92 23.92 0 0 1 7 16.9z" class="fa-secondary"/><path d="M96.23 160v32h32v-32zM127.9 32h-32v32h32zM160 0h-32v32h32zM96.23 96v32h32V96zm64 96h-32v32h32zm19.2 161.4l-17.3-87.7a12.09 12.09 0 0 0-11.8-9.7h-22.1v-32h-32v32l-19.6 97.1a52.43 52.43 0 1 0 102.8.3zm-51.1 36.6c-17.9 0-32.5-12-32.5-27s14.5-27 32.4-27 32.5 12.1 32.5 27-14.5 27-32.4 27zm31.9-326h-32v32h32zm0 64h-32v32h32z" class="fa-primary"/></svg>