<svg xmlns="http://www.w3.org/2000/svg" viewBox="0 0 384 512"><defs><style>.fa-secondary{opacity:.4}</style></defs><path d="M192 256a16 16 0 0 1-16 16h-48v-32h48a16 16 0 0 1 16 16zm185-151L279.1 7a24 24 0 0 0-17-7H256v128h128v-6.1a23.92 23.92 0 0 0-7-16.9zm-129 55h136v328a23.94 23.94 0 0 1-24 24H24a23.94 23.94 0 0 1-24-24V24A23.94 23.94 0 0 1 24 0h200v136a24.07 24.07 0 0 0 24 24zm21.9 155.48l-29.9 29.9-33.46-33.46A63.8 63.8 0 0 0 176 192H96a16 16 0 0 0-16 16v160a16 16 0 0 0 16 16h16a16 16 0 0 0 16-16v-48h18.74l59.32 59.31L176 409.37a16 16 0 0 0 0 22.63l11.31 11.31a16 16 0 0 0 22.63 0L240 413.25l30.06 30.07a16 16 0 0 0 22.63 0L304 432a16 16 0 0 0 0-22.63l-30.06-30.06 29.9-29.9a16 16 0 0 0 0-22.63l-11.31-11.31a16 16 0 0 0-22.63.01z" class="fa-secondary"/><path d="M304 409.38l-30.06-30.06 29.9-29.9a16 16 0 0 0 0-22.63l-11.31-11.31a16 16 0 0 0-22.63 0l-29.9 29.9-33.46-33.46A63.8 63.8 0 0 0 176 192H96a16 16 0 0 0-16 16v160a16 16 0 0 0 16 16h16a16 16 0 0 0 16-16v-48h18.74l59.32 59.31L176 409.37a16 16 0 0 0 0 22.63l11.31 11.31a16 16 0 0 0 22.63 0L240 413.25l30.06 30.07a16 16 0 0 0 22.63 0L304 432a16 16 0 0 0 0-22.62zM176 272h-48v-32h48a16 16 0 0 1 0 32z" class="fa-primary"/></svg>