<svg xmlns="http://www.w3.org/2000/svg" viewBox="0 0 384 512"><defs><style>.fa-secondary{opacity:.4}</style></defs><path d="M377 105L279.1 7a24 24 0 0 0-17-7H256v128h128v-6.1a23.92 23.92 0 0 0-7-16.9zm-153 31V0H24A23.94 23.94 0 0 0 0 24v464a23.94 23.94 0 0 0 24 24h336a23.94 23.94 0 0 0 24-24V160H248a24.07 24.07 0 0 1-24-24z" class="fa-secondary"/><path d="M110 224.1h34.8a12 12 0 0 1 10.6 6.3c26.1 48.8 20 33.6 36.6 68.5 0 0 6.1-11.7 36.6-68.5a12 12 0 0 1 10.6-6.3H274a11.93 11.93 0 0 1 10.1 18.4L224 336l60.1 93.5A12 12 0 0 1 274 448h-34.9a12 12 0 0 1-10.6-6.3C208.9 405.5 192 373 192 373c-6.4 14.8-10 20-36.6 68.8a11.89 11.89 0 0 1-10.5 6.3H110a12 12 0 0 1-10.1-18.5l60.3-93.5-60.3-93.5a12 12 0 0 1 10.1-18.5z" class="fa-primary"/></svg>