<svg xmlns="http://www.w3.org/2000/svg" viewBox="0 0 448 512"><defs><style>.fa-secondary{opacity:.4}</style></defs><path d="M448 89.94V96h-96V0h6a24 24 0 0 1 17 7l66 66a24 24 0 0 1 7 16.94zM344 128h104v264a24 24 0 0 1-24 24H152a24 24 0 0 1-24-24V24a24 24 0 0 1 24-24h168v104a24.07 24.07 0 0 0 24 24zm32 96h-56v-56a8 8 0 0 0-8-8h-48a8 8 0 0 0-8 8v56h-56a8 8 0 0 0-8 8v48a8 8 0 0 0 8 8h56v56a8 8 0 0 0 8 8h48a8 8 0 0 0 8-8v-56h56a8 8 0 0 0 8-8v-48a8 8 0 0 0-8-8z" class="fa-secondary"/><path d="M376 224h-56v-56a8 8 0 0 0-8-8h-48a8 8 0 0 0-8 8v56h-56a8 8 0 0 0-8 8v48a8 8 0 0 0 8 8h56v56a8 8 0 0 0 8 8h48a8 8 0 0 0 8-8v-56h56a8 8 0 0 0 8-8v-48a8 8 0 0 0-8-8zM96 392V96H24a24 24 0 0 0-24 24v368a24 24 0 0 0 24 24h272a24 24 0 0 0 24-24v-40H152a56.06 56.06 0 0 1-56-56z" class="fa-primary"/></svg>