<svg xmlns="http://www.w3.org/2000/svg" viewBox="0 0 384 512"><defs><style>.fa-secondary{opacity:.4}</style></defs><path d="M224 136V0H24A23.94 23.94 0 0 0 0 24v464a23.94 23.94 0 0 0 24 24h336a23.94 23.94 0 0 0 24-24V160H248a24.07 24.07 0 0 1-24-24zm153-31L279.1 7a24 24 0 0 0-17-7H256v128h128v-6.1a23.92 23.92 0 0 0-7-16.9z" class="fa-secondary"/><path d="M94.82 320H160v-80a16 16 0 0 1 16-16h32a16 16 0 0 1 16 16v80h65.18c14.28 0 21.4 17.29 11.27 27.36L204 443.06a17.05 17.05 0 0 1-24 0l-96.42-95.7C73.42 337.29 80.54 320 94.82 320z" class="fa-primary"/></svg>