<svg xmlns="http://www.w3.org/2000/svg" viewBox="0 0 384 512"><defs><style>.fa-secondary{opacity:.4}</style></defs><path d="M224 136V0H24A24 24 0 0 0 0 24v464a24 24 0 0 0 24 24h336a24 24 0 0 0 24-24V160H248a24.07 24.07 0 0 1-24-24zm96 144v112c0 21.44-25.94 32-41 17l-55-55v38a24 24 0 0 1-24 24H88a24 24 0 0 1-24-24V280a24 24 0 0 1 24-24h112a24 24 0 0 1 24 24v38.06l55-55c15-15.06 41-4.5 41 16.94zm64-158.08V128H256V0h6.06a24 24 0 0 1 17 7L377 105a24 24 0 0 1 7 16.94z" class="fa-secondary"/><path d="M320 280v112c0 21.44-25.94 32-41 17l-55-55v38a24 24 0 0 1-24 24H88a24 24 0 0 1-24-24V280a24 24 0 0 1 24-24h112a24 24 0 0 1 24 24v38.06l55-55c15-15.06 41-4.5 41 16.94z" class="fa-primary"/></svg>