<svg xmlns="http://www.w3.org/2000/svg" viewBox="0 0 384 512"><defs><style>.fa-secondary{opacity:.4}</style></defs><path d="M224 136V0H24A24 24 0 0 0 0 24v464a24 24 0 0 0 24 24h336a24 24 0 0 0 24-24V160H248a24.07 24.07 0 0 1-24-24zm-66.21 246.62l-19.58 20.88a5.4 5.4 0 0 1-7.64.25l-64.86-60.81a5.39 5.39 0 0 1-.25-7.63l.25-.25 64.86-60.81a5.41 5.41 0 0 1 7.64.24l19.58 20.89a5.41 5.41 0 0 1-.25 7.63l-.13.12L116.65 339l40.76 35.87a5.41 5.41 0 0 1 .49 7.63zm100.42-87.24l19.58-20.89a5.41 5.41 0 0 1 7.64-.24l64.86 60.81a5.39 5.39 0 0 1 .25 7.63l-.25.25-64.86 60.81a5.41 5.41 0 0 1-7.64-.24l-19.58-20.88a5.39 5.39 0 0 1 .25-7.63l.13-.12L299.35 339l-40.76-35.87a5.41 5.41 0 0 1-.49-7.63zm-.58-56.7L196.19 450.3a5.4 5.4 0 0 1-6.68 3.69l-27.45-8a5.39 5.39 0 0 1-3.68-6.69l61.43-211.6a5.38 5.38 0 0 1 6.69-3.7l27.5 8a5.41 5.41 0 0 1 3.63 6.68zM384 121.94V128H256V0h6.06a24 24 0 0 1 17 7L377 105a24 24 0 0 1 7 16.94z" class="fa-secondary"/><path d="M350.29 335.06l-64.86-60.81a5.41 5.41 0 0 0-7.64.24l-19.58 20.89-.11.12a5.41 5.41 0 0 0 .49 7.63L299.35 339l-40.76 35.87-.13.12a5.39 5.39 0 0 0-.25 7.63l19.58 20.88a5.41 5.41 0 0 0 7.64.24l64.86-60.81.25-.25a5.39 5.39 0 0 0-.25-7.62zm-92.66-96.38A5.41 5.41 0 0 0 254 232l-27.45-8a5.38 5.38 0 0 0-6.69 3.68l-61.49 211.64a5.39 5.39 0 0 0 3.68 6.69l27.45 8a5.4 5.4 0 0 0 6.68-3.69l61.44-211.62zM157.41 374.87L116.65 339l40.76-35.87.13-.12a5.41 5.41 0 0 0 .25-7.63l-19.58-20.89a5.41 5.41 0 0 0-7.64-.24l-64.86 60.81-.25.25a5.39 5.39 0 0 0 .25 7.63l64.86 60.81a5.4 5.4 0 0 0 7.64-.25l19.58-20.88.11-.12a5.41 5.41 0 0 0-.49-7.63z" class="fa-primary"/></svg>