<svg xmlns="http://www.w3.org/2000/svg" viewBox="0 0 384 512"><defs><style>.fa-secondary{opacity:.4}</style></defs><path d="M224 136V0H24A24 24 0 0 0 0 24v464a24 24 0 0 0 24 24h336a24 24 0 0 0 24-24V160H248a24.07 24.07 0 0 1-24-24zm-111.46 40a48 48 0 1 1-48 48 48 48 0 0 1 48-48zM281 264.48L320.54 304v112h-256l.46-48.48L104.54 328c4.69-4.69 11.8-4.2 16.49.48L160.54 368l103.52-103.52a12 12 0 0 1 16.94 0zm103-142.54V128H256V0h6.06a24 24 0 0 1 17 7L377 105a24 24 0 0 1 7 16.94z" class="fa-secondary"/><path d="M112.54 272a48 48 0 1 0-48-48 48 48 0 0 0 48 48zM281 264.48a12 12 0 0 0-17 0L160.54 368 121 328.48c-4.69-4.68-11.8-5.17-16.49-.48L65 367.52 64.54 416h256V304z" class="fa-primary"/></svg>