<svg xmlns="http://www.w3.org/2000/svg" viewBox="0 0 384 512"><defs><style>.fa-secondary{opacity:.4}</style></defs><path d="M224 136V0H24A23.94 23.94 0 0 0 0 24v464a23.94 23.94 0 0 0 24 24h336a23.94 23.94 0 0 0 24-24V160H248a24.07 24.07 0 0 1-24-24zm-64 268a12 12 0 0 1-20.5 8.5L104 376H76a12 12 0 0 1-12-12v-56a12 12 0 0 1 12-12h28l35.5-36.5A12 12 0 0 1 160 268zm33.2-47.6a23.84 23.84 0 0 0 0-33.4c-22.1-22.8 12.2-56.2 34.4-33.5a72 72 0 0 1 0 100.4c-21.8 22.3-56.9-10.4-34.4-33.5zm86-117.1a143.93 143.93 0 0 1 0 200.8c-21.8 22.4-57-10.3-34.4-33.5a95.9 95.9 0 0 0 0-133.8c-22.1-22.8 12.3-56.3 34.4-33.5zM384 121.9v6.1H256V0h6.1a24 24 0 0 1 17 7l97.9 98a23.92 23.92 0 0 1 7 16.9z" class="fa-secondary"/><path d="M139.5 259.5L104 296H76a12 12 0 0 0-12 12v56a12 12 0 0 0 12 12h28l35.5 36.5A12 12 0 0 0 160 404V268a12 12 0 0 0-20.5-8.5zm139.7-20.2c-22.1-22.8-56.5 10.7-34.4 33.5a95.9 95.9 0 0 1 0 133.8c-22.6 23.2 12.6 55.9 34.4 33.5a143.93 143.93 0 0 0 0-200.8zm-51.6 50.2c-22.2-22.7-56.5 10.7-34.4 33.5a23.84 23.84 0 0 1 0 33.4c-22.5 23.1 12.6 55.8 34.4 33.5a72 72 0 0 0 0-100.4z" class="fa-primary"/></svg>