<svg xmlns="http://www.w3.org/2000/svg" viewBox="0 0 512 512"><defs><style>.fa-secondary{opacity:.4}</style></defs><path d="M505 105L407.1 7c-7.71-7.71-16-7-23.1-7v128h128c0-7.51.64-15.33-7-23zm-153 31V0H152a23.94 23.94 0 0 0-24 24v109c18.3-5 19.58-5 26.45-5A61.43 61.43 0 0 1 198 146.31c8.72 9.59 4.41 7 18.28 10.76a61.7 61.7 0 0 1 43.23 43.8c3.11 13.2.6 8.66 10.75 19A62.36 62.36 0 0 1 286 279.22c-3.75 13.23-3.71 8 0 22.12a62.38 62.38 0 0 1-15.69 59.37c-9.64 9.36-7 4.88-10.75 19A61.85 61.85 0 0 1 224 420.82V512h264a23.94 23.94 0 0 0 24-24V160H376a24.07 24.07 0 0 1-24-24z" class="fa-secondary"/><path d="M255 271.08a30.16 30.16 0 0 0-7.58-28.79C232.57 227.17 234 229.68 228.56 209a29.54 29.54 0 0 0-20.71-21c-20.28-5.53-17.84-4.1-32.69-19.21a28.92 28.92 0 0 0-28.28-7.79c-20.32 5.54-17.46 5.53-37.75 0a28.94 28.94 0 0 0-28.28 7.71c-14.91 15.18-12.5 13.7-32.69 19.21A29.56 29.56 0 0 0 27.45 209c-5.46 20.74-4 18.13-18.87 33.27A30.16 30.16 0 0 0 1 271.08c5.45 20.71 5.42 17.79 0 38.41a30.16 30.16 0 0 0 7.58 28.79c14.85 15.11 13.42 12.61 18.87 33.27a29.54 29.54 0 0 0 20.71 21.07c14.31 3.9 11.52 3 15.84 5V512l64-32 64 32V397.63c4.31-2 1.52-1.1 15.84-5a29.56 29.56 0 0 0 20.71-21.07c5.47-20.74 4-18.13 18.88-33.27A30.16 30.16 0 0 0 255 309.5c-5.42-20.65-5.43-17.74 0-38.42zM128 352a64 64 0 1 1 64-64 64 64 0 0 1-64 64z" class="fa-primary"/></svg>