<svg xmlns="http://www.w3.org/2000/svg" viewBox="0 0 384 512"><defs><style>.fa-secondary{opacity:.4}</style></defs><path d="M224 136V0H24A23.94 23.94 0 0 0 0 24v464a23.94 23.94 0 0 0 24 24h336a23.94 23.94 0 0 0 24-24V160H248a24.07 24.07 0 0 1-24-24zm64 236a12 12 0 0 1-12 12H108a12 12 0 0 1-12-12v-8a12 12 0 0 1 12-12h168a12 12 0 0 1 12 12zm0-64a12 12 0 0 1-12 12H108a12 12 0 0 1-12-12v-8a12 12 0 0 1 12-12h168a12 12 0 0 1 12 12zm0-72v8a12 12 0 0 1-12 12H108a12 12 0 0 1-12-12v-8a12 12 0 0 1 12-12h168a12 12 0 0 1 12 12zm96-114.1v6.1H256V0h6.1a24 24 0 0 1 17 7l97.9 98a23.92 23.92 0 0 1 7 16.9z" class="fa-secondary"/><path d="M276 352H108a12 12 0 0 0-12 12v8a12 12 0 0 0 12 12h168a12 12 0 0 0 12-12v-8a12 12 0 0 0-12-12zm0-64H108a12 12 0 0 0-12 12v8a12 12 0 0 0 12 12h168a12 12 0 0 0 12-12v-8a12 12 0 0 0-12-12zm0-64H108a12 12 0 0 0-12 12v8a12 12 0 0 0 12 12h168a12 12 0 0 0 12-12v-8a12 12 0 0 0-12-12z" class="fa-primary"/></svg>