<svg xmlns="http://www.w3.org/2000/svg" viewBox="0 0 384 512"><defs><style>.fa-secondary{opacity:.4}</style></defs><path d="M377 105L279 7a24 24 0 0 0-17-7h-6v128h128v-6.1a23.92 23.92 0 0 0-7-16.9zm-153 31V0H24A23.94 23.94 0 0 0 0 24v464a23.94 23.94 0 0 0 24 24h336a23.94 23.94 0 0 0 24-24V160H248a24.07 24.07 0 0 1-24-24z" class="fa-secondary"/><path d="M313.6 339c-13.9-13.6-54.3-9.7-73.6-7.2-20-12.2-33.3-29-42.7-53.8 4.5-18.5 11.6-46.6 6.2-64.2-4.7-29.4-42.4-26.5-47.8-6.8-5 18.3-.4 44.1 8.1 77-11.6 27.6-28.7 64.6-40.8 85.8-.1 0-.1.1-.2.1-27.1 13.9-73.6 44.5-54.5 68 5.6 6.9 16 10 21.5 10 17.9 0 35.7-18 61.1-61.8 25.8-8.5 54.1-19.1 79-23.2 21.7 11.8 47.1 19.5 64 19.5 29.2 0 31.2-32 19.7-43.4zM86.1 428.1c5.8-15.7 28.2-33.9 34.9-40.2-21.7 34.8-34.9 41-34.9 40.2zm93.8-218.9c8.4 0 7.6 36.9 2 46.9-5-16-4.9-46.9-2-46.9zM151.8 366c11.1-19.4 20.7-42.5 28.4-62.7 9.6 17.4 21.8 31.2 34.5 40.8-23.9 4.7-44.6 14.9-62.9 21.9zm151.1-5.7s-5.7 6.8-42.8-9c40.3-2.9 46.9 6.3 42.8 9z" class="fa-primary"/></svg>