<svg xmlns="http://www.w3.org/2000/svg" viewBox="0 0 384 512"><defs><style>.fa-secondary{opacity:.4}</style></defs><path d="M224 136V0H24A23.94 23.94 0 0 0 0 24v464a23.94 23.94 0 0 0 24 24h336a23.94 23.94 0 0 0 24-24V160H248a24.07 24.07 0 0 1-24-24zm53 165.2c0 90.3-88.8 77.6-111.1 77.6V436a12 12 0 0 1-12 12h-30.8a12 12 0 0 1-12-12V236.2a12 12 0 0 1 12-12h81c44.5 0 72.9 32.8 72.9 77zm-83.3-30c8.8 0 15.5 2.7 20.3 8.1 9.6 10.9 9.8 32.7-.2 44.1-4.9 5.6-11.9 8.5-21.1 8.5h-26.9v-60.7zM384 121.9v6.1H256V0h6a24 24 0 0 1 17 7l98 98a23.92 23.92 0 0 1 7 16.9z" class="fa-secondary"/><path d="M204.1 224.2h-81a12 12 0 0 0-12 12V436a12 12 0 0 0 12 12h30.8a12 12 0 0 0 12-12v-57.2c22.3 0 111.1 12.7 111.1-77.6 0-44.2-28.4-77-72.9-77zm9.7 99.2c-4.9 5.6-11.9 8.5-21.1 8.5h-26.9v-60.7h27.9c8.8 0 15.5 2.7 20.3 8.1 9.6 10.9 9.8 32.7-.2 44.1z" class="fa-primary"/></svg>