<svg xmlns="http://www.w3.org/2000/svg" viewBox="0 0 384 512"><defs><style>.fa-secondary{opacity:.4}</style></defs><path d="M224 136V0H24A23.94 23.94 0 0 0 0 24v464a23.94 23.94 0 0 0 24 24h336a23.94 23.94 0 0 0 24-24V160H248a24.07 24.07 0 0 1-24-24zm33.1 90.6l28.3 28.3a12 12 0 0 1 0 17L237.3 320l48.1 48.1a12 12 0 0 1 0 17l-28.3 28.3a12 12 0 0 1-17 0L192 365.3l-48.1 48.1a12 12 0 0 1-17 0l-28.3-28.3a12 12 0 0 1 0-17l48.1-48.1-48.1-48.1a12 12 0 0 1 0-17l28.3-28.3a12 12 0 0 1 17 0l48.1 48.1 48.1-48.1a12 12 0 0 1 17 0zM384 121.9v6.1H256V0h6.1a24 24 0 0 1 17 7l97.9 98a23.92 23.92 0 0 1 7 16.9z" class="fa-secondary"/><path d="M98.6 271.9a12 12 0 0 1 0-17l28.3-28.3a12 12 0 0 1 17 0l48.1 48.1 48.1-48.1a12 12 0 0 1 17 0l28.3 28.3a12 12 0 0 1 0 17L237.3 320l48.1 48.1a12 12 0 0 1 0 17l-28.3 28.3a12 12 0 0 1-17 0L192 365.3l-48.1 48.1a12 12 0 0 1-17 0l-28.3-28.3a12 12 0 0 1 0-17l48.1-48.1z" class="fa-primary"/></svg>