<svg xmlns="http://www.w3.org/2000/svg" viewBox="0 0 576 512"><defs><style>.fa-secondary{opacity:.4}</style></defs><path d="M384 128H256V0h6.1a24 24 0 0 1 17 7l97.9 98a23.92 23.92 0 0 1 7 16.9zm0 260.81V488a23.94 23.94 0 0 1-24 24H24a23.94 23.94 0 0 1-24-24V24A23.94 23.94 0 0 1 24 0h200v136a24.07 24.07 0 0 0 24 24h136v91.65L288 347v69h69zm-128-5.05a11.35 11.35 0 0 1-9.36-6.26c-11.94-23.86-46.25-30.35-66-14.16l-13.87-41.64a24 24 0 0 0-45.55 0L103 376.34A11.21 11.21 0 0 1 92.39 384H80a16 16 0 0 0 0 32h12.39a43.17 43.17 0 0 0 41-29.53L144 354.59l16.83 50.47c4.45 13.46 23.11 14.87 29.48 2.09l7.69-15.34a10.91 10.91 0 0 1 10-6.19 11.08 11.08 0 0 1 10.17 6.52A42.94 42.94 0 0 0 256 415.89z" class="fa-secondary"/><path d="M246.65 377.5c-11.94-23.86-46.25-30.35-66-14.16l-13.88-41.64a24 24 0 0 0-45.55 0L103 376.34A11.21 11.21 0 0 1 92.39 384H80a16 16 0 0 0 0 32h12.39a43.17 43.17 0 0 0 41-29.53L144 354.59l16.83 50.47c4.45 13.46 23.11 14.87 29.48 2.09l7.69-15.34a10.91 10.91 0 0 1 10-6.19 11.08 11.08 0 0 1 10.17 6.52A42.94 42.94 0 0 0 256 415.89v-32.13a11.35 11.35 0 0 1-9.35-6.26zM288 347v69h69l161.67-162.78-67.88-67.88zm280.54-179.67l-31.87-31.87a25.47 25.47 0 0 0-36 0l-27.25 27.25 67.88 67.88 27.25-27.25a25.45 25.45 0 0 0-.01-36.01z" class="fa-primary"/></svg>