<svg xmlns="http://www.w3.org/2000/svg" viewBox="0 0 384 512"><defs><style>.fa-secondary{opacity:.4}</style></defs><path d="M224 136V0H24A23.94 23.94 0 0 0 0 24v464a23.94 23.94 0 0 0 24 24h336a23.94 23.94 0 0 0 24-24V160H248a24.07 24.07 0 0 1-24-24zm65.18 216H224v80a16 16 0 0 1-16 16h-32a16 16 0 0 1-16-16v-80H94.82c-14.28 0-21.41-17.29-11.27-27.36L180 229a17.05 17.05 0 0 1 24 0l96.42 95.7c10.16 10.02 3.04 27.3-11.24 27.3zM384 121.9v6.1H256V0h6.1a24 24 0 0 1 17 7l97.9 98a23.92 23.92 0 0 1 7 16.9z" class="fa-secondary"/><path d="M300.43 324.65c10.15 10.07 3 27.36-11.25 27.36H224v80a16 16 0 0 1-16 16h-32a16 16 0 0 1-16-16V352H94.82c-14.28 0-21.41-17.29-11.27-27.36L180 229a17.05 17.05 0 0 1 24 0z" class="fa-primary"/></svg>