<svg xmlns="http://www.w3.org/2000/svg" viewBox="0 0 384 512"><defs><style>.fa-secondary{opacity:.4}</style></defs><path d="M224 136V0H24A23.94 23.94 0 0 0 0 24v464a23.94 23.94 0 0 0 24 24h336a23.94 23.94 0 0 0 24-24V160H248a24.07 24.07 0 0 1-24-24zm153-31L279.1 7a24 24 0 0 0-17-7H256v128h128v-6.1a23.92 23.92 0 0 0-7-16.9z" class="fa-secondary"/><path d="M160 332.8a12 12 0 0 0 12 11.2h40a12 12 0 0 0 12-11.2l7.2-112a12 12 0 0 0-12-12.8h-54.4a12 12 0 0 0-12 12.8zm32 27.2a40 40 0 1 0 40 40 40 40 0 0 0-40-40z" class="fa-primary"/></svg>