<svg xmlns="http://www.w3.org/2000/svg" viewBox="0 0 576 512"><defs><style>.fa-secondary{opacity:.4}</style></defs><path d="M384 128H256V0h6.1a24 24 0 0 1 17 7l97.9 98a23.92 23.92 0 0 1 7 16.9zM208 352.05a16 16 0 0 1-16-16v-32a16 16 0 0 1 16-16h176V160H248a24.07 24.07 0 0 1-24-24V0H24A23.94 23.94 0 0 0 0 24v464a23.94 23.94 0 0 0 24 24h336a23.94 23.94 0 0 0 24-24V352.05z" class="fa-secondary"/><path d="M571.05 332.05l-95.71 96.4c-10.1 10.1-27.41 3-27.41-11.3v-65.1H208a16 16 0 0 1-16-16v-32a16 16 0 0 1 16-16h240v-65.2c0-14.3 17.31-21.4 27.41-11.3l95.61 96.5a17 17 0 0 1 .03 24z" class="fa-primary"/></svg>