<svg xmlns="http://www.w3.org/2000/svg" viewBox="0 0 384 512"><defs><style>.fa-secondary{opacity:.4}</style></defs><path d="M224 136V0H24A23.94 23.94 0 0 0 0 24v464a23.94 23.94 0 0 0 24 24h336a23.94 23.94 0 0 0 24-24V160H248a24.07 24.07 0 0 1-24-24zM64 72a8 8 0 0 1 8-8h80a8 8 0 0 1 8 8v16a8 8 0 0 1-8 8H72a8 8 0 0 1-8-8zm0 64a8 8 0 0 1 8-8h80a8 8 0 0 1 8 8v16a8 8 0 0 1-8 8H72a8 8 0 0 1-8-8zm192.81 248H304a16 16 0 0 1 0 32h-47.19a43 43 0 0 1-38.64-23.86 11.08 11.08 0 0 0-10.17-6.52 10.91 10.91 0 0 0-10 6.19l-7.67 15.34A16 16 0 0 1 176 416c-.38 0-.75 0-1.14-.05a15.94 15.94 0 0 1-14-10.89L144 354.59l-10.61 31.88a43.17 43.17 0 0 1-41 29.53H80a16 16 0 0 1 0-32h12.39a11.21 11.21 0 0 0 10.61-7.66l18.19-54.64a24 24 0 0 1 45.55 0l13.88 41.64c19.77-16.19 54-9.7 66 14.16a11.41 11.41 0 0 0 10.19 6.5zM384 121.9v6.1H256V0h6.1a24 24 0 0 1 17 7l97.9 98a23.92 23.92 0 0 1 7 16.9z" class="fa-secondary"/><path d="M246.65 377.5a11.41 11.41 0 0 0 10.16 6.5H304a16 16 0 0 1 0 32h-47.19a43 43 0 0 1-38.64-23.86 11.08 11.08 0 0 0-10.17-6.52 10.91 10.91 0 0 0-10 6.19l-7.67 15.34A16 16 0 0 1 176 416c-.38 0-.75 0-1.14-.05a15.94 15.94 0 0 1-14-10.89L144 354.59l-10.61 31.88a43.17 43.17 0 0 1-41 29.53H80a16 16 0 0 1 0-32h12.39a11.21 11.21 0 0 0 10.61-7.66l18.19-54.64a24 24 0 0 1 45.55 0l13.88 41.64c19.8-16.19 54.08-9.7 66.03 14.16z" class="fa-primary"/></svg>