<svg xmlns="http://www.w3.org/2000/svg" viewBox="0 0 448 512"><defs><style>.fa-secondary{opacity:.4}</style></defs><path d="M80 352a153.32 153.32 0 0 1 1.92-24.48c61.84-24.46 131.66-20.73 181 4 36.58 18.29 78.13 20.41 105 20.56v3.23a143.78 143.78 0 0 1-36.6 92.69 1.44 1.44 0 0 1-.34 0H116.7A143.57 143.57 0 0 1 80 352z" class="fa-secondary"/><path d="M320 169.05V96h-64v111.3c24.51 13.18 114.11 49.87 112 148a143.78 143.78 0 0 1-36.68 92.7 1.44 1.44 0 0 1-.34 0H116.7A143.57 143.57 0 0 1 80 352c0-99.51 88.32-132.74 112-145.13V96h-64v72.12C61.61 202.85 16 271.88 16 352a207.13 207.13 0 0 0 53.94 139.7c12 13.17 29.22 20.3 47 20.3H331a64 64 0 0 0 47.58-20.85A207.15 207.15 0 0 0 432 356.67c1.71-79.95-44.81-151.49-112-187.62zM112 64h224a16 16 0 0 0 16-16V16a16 16 0 0 0-16-16H112a16 16 0 0 0-16 16v32a16 16 0 0 0 16 16z" class="fa-primary"/></svg>