<svg xmlns="http://www.w3.org/2000/svg" viewBox="0 0 512 512"><defs><style>.fa-secondary{opacity:.4}</style></defs><path d="M256 8C119 8 8 119 8 256s111 248 248 248 248-111 248-248S393 8 256 8zM88 224a72 72 0 1 1 72 72 72 72 0 0 1-72-72zm232 176H192c-21.2 0-21.2-32 0-32h128c21.2 0 21.2 32 0 32zm32-104a72 72 0 1 1 72-72 72 72 0 0 1-72 72z" class="fa-secondary"/><path d="M160 200a24 24 0 1 0 24 24 23.94 23.94 0 0 0-24-24zm192 0a24 24 0 1 0 24 24 23.94 23.94 0 0 0-24-24z" class="fa-primary"/></svg>