<svg xmlns="http://www.w3.org/2000/svg" viewBox="0 0 508 512"><defs><style>.fa-secondary{opacity:.4}</style></defs><path d="M462 128H270l-64-64H46a48 48 0 0 0-48 48v288a48 48 0 0 0 48 48h416a48 48 0 0 0 48-48V176a48 48 0 0 0-48-48zm-96 168a16 16 0 0 1-16 16h-72v72a16 16 0 0 1-16 16h-16a16 16 0 0 1-16-16v-72h-72a16 16 0 0 1-16-16v-16a16 16 0 0 1 16-16h72v-72a16 16 0 0 1 16-16h16a16 16 0 0 1 16 16v72h72a16 16 0 0 1 16 16z" class="fa-secondary"/><path d="M142 280a16 16 0 0 1 16-16h72v-72a16 16 0 0 1 16-16h16a16 16 0 0 1 16 16v72h72a16 16 0 0 1 16 16v16a16 16 0 0 1-16 16h-72v72a16 16 0 0 1-16 16h-16a16 16 0 0 1-16-16v-72h-72a16 16 0 0 1-16-16z" class="fa-primary"/></svg>