<svg xmlns="http://www.w3.org/2000/svg" viewBox="0 0 512 512"><defs><style>.fa-secondary{opacity:.4}</style></defs><path d="M8 328.41v1.53L182.06 504h1.53a321.75 321.75 0 0 0 60.6-5.75L13.75 267.81A321.75 321.75 0 0 0 8 328.41zm496-146.35L329.94 8h-1.53a321.75 321.75 0 0 0-60.6 5.75l230.44 230.44a321.75 321.75 0 0 0 5.75-60.6z" class="fa-secondary"/><path d="M22.5 451.7a52.8 52.8 0 0 0 37.3 37.4c49.3 13.2 88.49 14.9 122.26 14.9L8 329.94c0 33.57 1.47 72.32 14.5 121.76zm467-391.4a52.8 52.8 0 0 0-37.3-37.4C402.9 9.7 363.71 8.05 329.94 8L504 182.06c0-33.57-1.47-72.32-14.5-121.76zM13.75 267.81l230.44 230.44c128.35-24.57 229.49-125.71 254.06-254.06L267.81 13.75C139.46 38.32 38.32 139.46 13.75 267.81zm288.91-81.69l29.21-29.42a8.29 8.29 0 0 1 11.67 0l11.66 11.66a8.29 8.29 0 0 1 0 11.67L326 209.24l29.21 29.21a8.29 8.29 0 0 1 0 11.67l-11.66 11.66a8.29 8.29 0 0 1-11.67 0l-29.21-29.21L279.33 256l29.21 29.21a8.29 8.29 0 0 1 0 11.67l-11.66 11.66a8.29 8.29 0 0 1-11.67 0L256 279.33l-23.33 23.33 29.21 29.21a8.29 8.29 0 0 1 0 11.67l-11.66 11.66a8.29 8.29 0 0 1-11.67 0L209.34 326l-29.21 29.2a8.29 8.29 0 0 1-11.67 0l-11.66-11.66a8.29 8.29 0 0 1 0-11.67l29.2-29.21-29.2-29.11a8.29 8.29 0 0 1 0-11.67l11.66-11.66a8.29 8.29 0 0 1 11.67 0l29.21 29.21 23.33-23.33-29.21-29.21a8.28 8.28 0 0 1 0-11.66l11.66-11.67a8.29 8.29 0 0 1 11.67 0L256 232.77l23.33-23.32-29.21-29.22a8.28 8.28 0 0 1 0-11.66l11.66-11.67a8.29 8.29 0 0 1 11.67 0z" class="fa-primary"/></svg>