<svg xmlns="http://www.w3.org/2000/svg" viewBox="0 0 384 512"><defs><style>.fa-secondary{opacity:.4}</style></defs><path d="M105.57.29a16.16 16.16 0 0 0-6.72 3l-28.51 21.6a16 16 0 0 0-6.07 15.68l36.9 197.22c5.3 7.59 14.49 14.87 26.83 20.75V33.18l-3.76-20.11A16 16 0 0 0 105.57.29zm109.59 17.4l-32-16A16 16 0 0 0 160 16v252.78a160.37 160.37 0 0 0 64 0V32a16 16 0 0 0-8.84-14.31zm-194.55 63A16 16 0 0 0 .25 98.77L16.55 192H50c3.6 0 7 1 10.35 1.75l-20-107.16zm286.13-48.43a16.23 16.23 0 0 0-7.33.43l-34.28 10.25c-4.24 1.27-7.17 4.51-9.13 8.33v207.27c17.55-8.38 29.15-19.54 31.54-30.39.4-1.79 1.46-3.22 2.06-4.92l30.15-172.46a16 16 0 0 0-13.01-18.51zm64 48a16.23 16.23 0 0 0-7.33.43l-17.31 5.17-18.75 107.26c2.24-.32 4.33-1.12 6.63-1.12h33.47l16.3-93.23a16 16 0 0 0-13.01-18.51z" class="fa-secondary"/><path d="M0 240a16 16 0 0 1 16-16h34c6.92 0 13.7 4.24 15.19 11 8.6 39 62.09 69 126.79 69s118.19-30 126.79-69c1.49-6.73 8.27-11 15.19-11h34a16 16 0 0 1 15.61 19.47l-54.1 243.47a32 32 0 0 1-31.2 25.06H85.73a32 32 0 0 1-31.25-25.06L.38 243.47A16.11 16.11 0 0 1 0 240z" class="fa-primary"/></svg>