<svg xmlns="http://www.w3.org/2000/svg" viewBox="0 0 512 512"><defs><style>.fa-secondary{opacity:.4}</style></defs><path d="M256 8C119 8 8 119 8 256s111 248 248 248 248-111 248-248S393 8 256 8zM144 208a32 32 0 1 1 32 32 32 32 0 0 1-32-32zm187.3 183.3c-31.2-9.6-59.4-15.3-75.3-15.3s-44.1 5.7-75.3 15.3a16 16 0 0 1-20.5-18.1c7-40 60.1-61.2 95.8-61.2s88.8 21.3 95.8 61.2a16 16 0 0 1-20.5 18.1zM336 240a32 32 0 1 1 32-32 32 32 0 0 1-32 32z" class="fa-secondary"/><path d="M176 176a32 32 0 1 0 32 32 32 32 0 0 0-32-32zm160 0a32 32 0 1 0 32 32 32 32 0 0 0-32-32z" class="fa-primary"/></svg>