<svg xmlns="http://www.w3.org/2000/svg" viewBox="0 0 512 512"><defs><style>.fa-secondary{opacity:.4}</style></defs><path d="M256 8C119 8 8 119 8 256s111 248 248 248 248-111 248-248S393 8 256 8zm80 168a32 32 0 1 1-32 32 32 32 0 0 1 32-32zm-160 0a32 32 0 1 1-32 32 32 32 0 0 1 32-32zm170.2 218.2a117.5 117.5 0 0 0-180.4 0c-13.5 16.3-38.1-4.2-24.6-20.5a149.36 149.36 0 0 1 229.5.1c13.6 16.2-11 36.7-24.5 20.4z" class="fa-secondary"/><path d="M176 176a32 32 0 1 0 32 32 32 32 0 0 0-32-32zm160 0a32 32 0 1 0 32 32 32 32 0 0 0-32-32z" class="fa-primary"/></svg>