<svg xmlns="http://www.w3.org/2000/svg" viewBox="0 0 640 512"><defs><style>.fa-secondary{opacity:.4}</style></defs><path d="M480 96H160a160 160 0 1 0 114.2 272h91.5A160 160 0 1 0 480 96zM256 276a12 12 0 0 1-12 12h-52v52a12 12 0 0 1-12 12h-40a12 12 0 0 1-12-12v-52H76a12 12 0 0 1-12-12v-40a12 12 0 0 1 12-12h52v-52a12 12 0 0 1 12-12h40a12 12 0 0 1 12 12v52h52a12 12 0 0 1 12 12zm196 52a36 36 0 1 1 36-36 36 36 0 0 1-36 36zm88-64a36 36 0 1 1 36-36 36 36 0 0 1-36 36z" class="fa-secondary"/><path d="M256 236v40a12 12 0 0 1-12 12h-52v52a12 12 0 0 1-12 12h-40a12 12 0 0 1-12-12v-52H76a12 12 0 0 1-12-12v-40a12 12 0 0 1 12-12h52v-52a12 12 0 0 1 12-12h40a12 12 0 0 1 12 12v52h52a12 12 0 0 1 12 12z" class="fa-primary"/></svg>