<svg xmlns="http://www.w3.org/2000/svg" viewBox="0 0 512 512"><defs><style>.fa-secondary{opacity:.4}</style></defs><path d="M497.55 312.41C472 422.22 373.59 504 256 504 119 504 8 393 8 256A247 247 0 0 1 64 99v45.71a50 50 0 0 0 8.55 27.95c11.72 17.39 28.38 42.07 35.67 52.77a114.79 114.79 0 0 0 18.06 20.74l.8.72a144.26 144.26 0 0 0 31.65 21.75c14 7.05 34.44 18.16 48.81 26.11a31.9 31.9 0 0 1 16.46 28v32a32 32 0 0 0 9.37 22.63c15 15 24.32 38.63 22.63 51.25v29.07a21 21 0 0 0 23.48 20.86c1.75-.21 3.49-.44 5.23-.7a20.91 20.91 0 0 0 17.17-15.76L316 404.46c2-5.49 3.26-11.21 4.77-16.87a23.9 23.9 0 0 1 6.23-10.71c3.32-3.33 7.41-7.4 11.31-11.28a46.5 46.5 0 0 0 13.72-33 30.5 30.5 0 0 0-8.93-21.6l-13.71-13.67a32 32 0 0 0-22.63-9.33H240c-9.41-4.71-21.48-32-32-32a67.72 67.72 0 0 1-30.31-7.16l-11.08-5.54a12 12 0 0 1 1.56-22l31.17-10.39A16 16 0 0 1 214.9 214l9.28 8.06a8 8 0 0 0 5.24 2h5.64a8 8 0 0 0 7.15-11.58l-15.59-31.19a8 8 0 0 1 1.58-9.29l9.92-9.65a8 8 0 0 1 5.58-2.35h9a8 8 0 0 0 5.66-2.34l8-8a8 8 0 0 0 0-11.31l-4.69-4.69a8 8 0 0 1 0-11.31L272 112l4.69-4.68a16 16 0 0 0 0-22.63l-24.4-24.4a12.38 12.38 0 0 0-9.55-3.61c-2.53.17-5.05.38-7.58.65A12.41 12.41 0 0 0 224 69.66a16.35 16.35 0 0 1-11.59 15.83 16 16 0 0 1-11.57-1.07 66.09 66.09 0 0 1-16-11.24l-40.58-38.64A247 247 0 0 1 256 8c103.83 0 192.71 63.76 229.67 154.27l-36.51 3.15a76.22 76.22 0 0 0-27.48 7.74 24.05 24.05 0 0 0-9.24 8.15l-19.59 29.38a24 24 0 0 0 0 26.62l18 27a24 24 0 0 0 10.54 8.78l20.52 10.1z" class="fa-secondary"/><path d="M329.39 297.36a32 32 0 0 0-22.63-9.36H240c-9.41-4.71-21.48-32-32-32a67.72 67.72 0 0 1-30.31-7.16l-11.08-5.54a12 12 0 0 1 1.56-22l31.17-10.39A16 16 0 0 1 214.9 214l9.28 8.06a8 8 0 0 0 5.24 2h5.64a8 8 0 0 0 7.15-11.58l-15.59-31.19a8 8 0 0 1 1.58-9.29l9.92-9.65a8 8 0 0 1 5.58-2.35h9a8 8 0 0 0 5.66-2.34l8-8a8 8 0 0 0 0-11.31l-4.69-4.69a8 8 0 0 1 0-11.31L272 112l4.69-4.68a16 16 0 0 0 0-22.63l-24.4-24.4a12.38 12.38 0 0 0-9.55-3.61c-2.53.17-5.05.38-7.58.65A12.41 12.41 0 0 0 224 69.66a16.35 16.35 0 0 1-11.59 15.83 16 16 0 0 1-11.57-1.07 66.09 66.09 0 0 1-16-11.24l-40.58-38.64A248.87 248.87 0 0 0 64 99v45.71a50 50 0 0 0 8.55 27.95c11.72 17.39 28.38 42.07 35.67 52.77a114.79 114.79 0 0 0 18.06 20.74l.8.72a144.26 144.26 0 0 0 31.65 21.75c14 7.05 34.44 18.16 48.81 26.11a31.9 31.9 0 0 1 16.46 28v32a32 32 0 0 0 9.37 22.63c15 15 24.32 38.63 22.63 51.25v29.07a21 21 0 0 0 23.48 20.86c1.75-.21 3.49-.44 5.23-.7a20.91 20.91 0 0 0 17.17-15.76L316 404.46c2-5.49 3.26-11.21 4.77-16.87a23.9 23.9 0 0 1 6.23-10.71c3.32-3.33 7.41-7.4 11.31-11.28a46.5 46.5 0 0 0 13.72-33 30.5 30.5 0 0 0-8.93-21.6zm156.28-135.09l-36.51 3.15a76.22 76.22 0 0 0-27.48 7.74 24.05 24.05 0 0 0-9.24 8.15l-19.59 29.38a24 24 0 0 0 0 26.62l18 27a24 24 0 0 0 10.54 8.78l20.52 10.1 55.64 29.22a249.21 249.21 0 0 0-11.88-150.14z" class="fa-primary"/></svg>