<svg xmlns="http://www.w3.org/2000/svg" viewBox="0 0 512 512"><defs><style>.fa-secondary{opacity:.4}</style></defs><path d="M348.45 320h-184.9a578.68 578.68 0 0 1 0-128h184.9a569.68 569.68 0 0 1 3.55 64 569.68 569.68 0 0 1-3.55 64zM168.2 160h175.6c-.41-2.31-.84-4.62-1.28-6.91-6-30.85-14.42-58.37-25.13-81.78-9.85-21.54-21.39-38.77-33.34-49.83C274.38 12.53 264.94 8 256 8s-18.38 4.53-28 13.48c-12 11.06-23.49 28.29-33.34 49.83-10.71 23.41-19.16 50.93-25.13 81.78-.53 2.29-.92 4.6-1.33 6.91zM128 256a607.9 607.9 0 0 1 3.34-64h-115a249.44 249.44 0 0 0 0 128h115a607.9 607.9 0 0 1-3.34-64zm367.65-64h-115a607.9 607.9 0 0 1 3.35 64 607.9 607.9 0 0 1-3.34 64h115a249.44 249.44 0 0 0 0-128zm-10.92-32A248.65 248.65 0 0 0 323.58 17.32c24.13 33 42.89 83.15 52.75 142.68zM323.58 494.68A248.65 248.65 0 0 0 484.73 352h-108.4c-9.86 59.53-28.62 109.68-52.75 142.68zM343.8 352H168.2c.41 2.31.84 4.62 1.28 6.91 6 30.85 14.42 58.37 25.13 81.78 9.85 21.54 21.38 38.77 33.34 49.83 9.67 9 19.11 13.48 28.05 13.48s18.38-4.53 28.05-13.48c12-11.06 23.49-28.29 33.34-49.83 10.71-23.41 19.16-50.93 25.13-81.78.48-2.29.87-4.6 1.28-6.91zM188.42 17.32A248.65 248.65 0 0 0 27.27 160h108.4c9.86-59.53 28.62-109.68 52.75-142.68zM27.27 352a248.65 248.65 0 0 0 161.15 142.68c-24.13-33-42.89-83.15-52.75-142.68z" class="fa-secondary"/><path d="M384 256a607.9 607.9 0 0 0-3.34-64h115a247 247 0 0 0-10.92-32H376.33c-9.86-59.53-28.62-109.68-52.75-142.68A248.24 248.24 0 0 0 256 8c8.94 0 18.38 4.53 28.05 13.48 12 11.06 23.49 28.29 33.34 49.83 10.71 23.41 19.16 50.93 25.13 81.78.44 2.29.87 4.6 1.28 6.91H168.2c.41-2.31.84-4.62 1.28-6.91 6-30.85 14.42-58.37 25.13-81.78C204.46 49.77 216 32.54 228 21.48 237.62 12.53 247.06 8 256 8a248.24 248.24 0 0 0-67.58 9.32c-24.13 33-42.89 83.15-52.75 142.68H27.27a247 247 0 0 0-10.92 32h115a614.84 614.84 0 0 0 0 128h-115a247 247 0 0 0 10.92 32h108.4c9.86 59.53 28.62 109.68 52.75 142.68A248.24 248.24 0 0 0 256 504c-8.94 0-18.38-4.53-28.05-13.48-12-11.06-23.49-28.29-33.34-49.83-10.71-23.41-19.16-50.93-25.13-81.78-.44-2.29-.87-4.6-1.28-6.91h175.6c-.41 2.31-.84 4.62-1.28 6.91-6 30.85-14.42 58.37-25.13 81.78-9.85 21.54-21.38 38.77-33.34 49.83-9.67 9-19.11 13.48-28.05 13.48a248.24 248.24 0 0 0 67.58-9.32c24.13-33 42.89-83.15 52.75-142.68h108.4a247 247 0 0 0 10.92-32h-115a607.9 607.9 0 0 0 3.35-64zm-35.55 64h-184.9a578.68 578.68 0 0 1 0-128h184.9a569.68 569.68 0 0 1 3.55 64 569.68 569.68 0 0 1-3.55 64z" class="fa-primary"/></svg>