<svg xmlns="http://www.w3.org/2000/svg" viewBox="0 0 512 512"><defs><style>.fa-secondary{opacity:.4}</style></defs><path d="M499.33 208H431.5a15.5 15.5 0 0 0-15.5 15.5v6.93a15.49 15.49 0 0 1-8.57 13.86L392 252a15.49 15.49 0 0 1-15.53-1l-18.17-12.12a15.52 15.52 0 0 0-13.5-1.81l-2.65.88a15.48 15.48 0 0 0-8 23.3l13.24 19.86a15.49 15.49 0 0 0 12.89 6.9h8.21a15.5 15.5 0 0 1 15.5 15.5v11.34a15.52 15.52 0 0 1-3.1 9.3l-18.74 25a15.57 15.57 0 0 0-2.83 6.43L355 378.39a15.53 15.53 0 0 1-4.76 8.56 159.61 159.61 0 0 0-25 29.16l-13 19.55a27.76 27.76 0 0 1-47.91-3 78.82 78.82 0 0 1-8.33-35.27V367.5a15.5 15.5 0 0 0-15.5-15.5h-25.88A54.63 54.63 0 0 1 160 297.37v-14.06a54.65 54.65 0 0 1 21.85-43.7l27.58-20.69A54.62 54.62 0 0 1 242.2 208h.89a54.52 54.52 0 0 1 24.43 5.77l14.72 7.36a15.49 15.49 0 0 0 11.83.84l47.31-15.77a15.5 15.5 0 0 0-4.9-30.2h-10.09a15.5 15.5 0 0 1-11-4.54l-6.92-6.92a15.5 15.5 0 0 0-11-4.54h-90A15.5 15.5 0 0 1 192 144.5v-4.4a15.52 15.52 0 0 1 11.74-15l14.45-3.61a15.53 15.53 0 0 0 9.14-6.44l8.08-12.11A15.47 15.47 0 0 1 248.3 96h24.21A15.5 15.5 0 0 0 288 80.49V10.05A250.37 250.37 0 0 0 256 8C119 8 8 119 8 256s111 248 248 248 248-111 248-248a249.62 249.62 0 0 0-4.67-48z" class="fa-secondary"/><path d="M431.5 208a15.5 15.5 0 0 0-15.5 15.5v6.93a15.49 15.49 0 0 1-8.57 13.86L392 252a15.49 15.49 0 0 1-15.53-1l-18.17-12.12a15.52 15.52 0 0 0-13.5-1.81l-2.65.88a15.48 15.48 0 0 0-8 23.3l13.24 19.86a15.49 15.49 0 0 0 12.89 6.9h8.21a15.5 15.5 0 0 1 15.5 15.5v11.34a15.52 15.52 0 0 1-3.1 9.3l-18.74 25a15.57 15.57 0 0 0-2.83 6.43L355 378.39a15.53 15.53 0 0 1-4.76 8.56 159.61 159.61 0 0 0-25 29.16l-13 19.55a27.76 27.76 0 0 1-47.91-3 78.82 78.82 0 0 1-8.33-35.27V367.5a15.5 15.5 0 0 0-15.5-15.5h-25.88A54.63 54.63 0 0 1 160 297.37v-14.06a54.65 54.65 0 0 1 21.85-43.7l27.58-20.69A54.62 54.62 0 0 1 242.2 208h.89a54.52 54.52 0 0 1 24.43 5.77l14.72 7.36a15.49 15.49 0 0 0 11.83.84l47.31-15.77a15.5 15.5 0 0 0-4.9-30.2h-10.09a15.5 15.5 0 0 1-11-4.54l-6.92-6.92a15.5 15.5 0 0 0-11-4.54h-90A15.5 15.5 0 0 1 192 144.5v-4.4a15.52 15.52 0 0 1 11.74-15l14.45-3.61a15.53 15.53 0 0 0 9.14-6.44l8.08-12.11A15.47 15.47 0 0 1 248.3 96h24.21A15.5 15.5 0 0 0 288 80.49V10.05C394 23.7 479 104.24 499.34 208z" class="fa-primary"/></svg>