<svg xmlns="http://www.w3.org/2000/svg" viewBox="0 0 512 512"><defs><style>.fa-secondary{opacity:.4}</style></defs><path d="M256 8C119 8 8 119 8 256s111 248 248 248 248-111 248-248S393 8 256 8zM152 400h-8a32 32 0 0 1-32-32v-8h40zm0-56h-40v-8a32 32 0 0 1 32-32h8zm-8-136a32 32 0 1 1 32 32 32 32 0 0 1-32-32zm72 192h-48v-40h48zm0-56h-48v-40h48zm64 56h-48v-40h48zm0-56h-48v-40h48zm64 56h-48v-40h48zm0-56h-48v-40h48zm-8-104a32 32 0 1 1 32-32 32 32 0 0 1-32 32zm64 128a32 32 0 0 1-32 32h-8v-40h40zm0-24h-40v-40h8a32 32 0 0 1 32 32z" class="fa-secondary"/><path d="M176 176a32 32 0 1 0 32 32 32 32 0 0 0-32-32zm160 0a32 32 0 1 0 32 32 32 32 0 0 0-32-32z" class="fa-primary"/></svg>