<svg xmlns="http://www.w3.org/2000/svg" viewBox="0 0 640 512"><defs><style>.fa-secondary{opacity:.4}</style></defs><path d="M320 4C183 4 72 115 72 252c0 106.3 67 196.7 161 232a95.67 95.67 0 0 1-9-40v-45.5c-24.7-16.2-43.5-38.1-47.8-63.8a16.06 16.06 0 0 1 20.7-17.9C227.1 326.5 272 332 320 332s92.9-5.5 123.1-15.2a16.08 16.08 0 0 1 20.7 17.9c-4.3 25.7-23.1 47.6-47.8 63.8V444a95.67 95.67 0 0 1-9 40c94-35.3 161-125.7 161-232C568 115 457 4 320 4zm-80 232a32 32 0 1 1 32-32 32 32 0 0 1-32 32zm160 0a32 32 0 1 1 32-32 32 32 0 0 1-32 32z" class="fa-secondary"/><path d="M330.5 388.2l-1.8 7.8c-2.1 9.2-15.2 9.2-17.3 0l-1.8-7.8c-3.5-15.4-20.2-24.1-34.6-17.6-.9.4.3-.2-18.9 9.4v63c0 35.2 28 64.5 63.1 64.9a64.07 64.07 0 0 0 64.9-64v-64c-19.5-9.6-18.2-8.9-19-9.3-14.4-6.5-31.1 2.2-34.6 17.6zM272 204a32 32 0 1 0-32 32 32 32 0 0 0 32-32zm128-32a32 32 0 1 0 32 32 32 32 0 0 0-32-32z" class="fa-primary"/></svg>