<svg xmlns="http://www.w3.org/2000/svg" viewBox="0 0 512 512"><defs><style>.fa-secondary{opacity:.4}</style></defs><path d="M256 8C119 8 8 119 8 256s111 248 248 248 248-111 248-248S393 8 256 8zm20.2 214.2c4-25.2 34.2-42.1 59.9-42.1S392 197 396 222.2c1.6 11-11.5 18.2-20 10.8l-9.5-8.5c-14.8-13.2-46.2-13.2-61 0L296 233c-8.3 7.4-21.6.4-19.8-10.8zM176 176a32 32 0 1 1-32 32 32 32 0 0 1 32-32zm223.8 162.7c-9.2 55-83.2 93.3-143.8 93.3s-134.5-38.3-143.8-93.3a16 16 0 0 1 20.7-17.9C163.1 330.5 208 336 256 336s92.9-5.5 123.1-15.2a16 16 0 0 1 20.7 17.9z" class="fa-secondary"/><path d="M176 176a32 32 0 1 0 32 32 32 32 0 0 0-32-32zm220 46.2c-4-25.2-34.2-42.1-59.9-42.1s-55.9 16.9-59.9 42.1c-1.8 11.2 11.5 18.2 19.8 10.8l9.5-8.5c14.8-13.2 46.2-13.2 61 0l9.5 8.5c8.5 7.4 21.6.2 20-10.8z" class="fa-primary"/></svg>