<svg xmlns="http://www.w3.org/2000/svg" viewBox="0 0 512 512"><defs><style>.fa-secondary{opacity:.4}</style></defs><path d="M256 8C119 8 8 119 8 256s111 248 248 248 248-111 248-248S393 8 256 8zm63.7 128.7a19.76 19.76 0 0 1 32.7 0c12.4 18.4 15.1 36.9 15.7 55.3-.5 18.4-3.3 36.9-15.7 55.3a19.76 19.76 0 0 1-32.7 0c-12.4-18.4-15.1-36.9-15.7-55.3.5-18.4 3.3-36.9 15.7-55.3zm-160 0a19.76 19.76 0 0 1 32.7 0c12.4 18.4 15.1 36.9 15.7 55.3-.5 18.4-3.3 36.9-15.7 55.3a19.76 19.76 0 0 1-32.7 0c-12.4-18.4-15.1-36.9-15.7-55.3.5-18.4 3.3-36.9 15.7-55.3zm240.1 202c-9.3 55-83.2 93.3-143.8 93.3s-134.5-38.3-143.8-93.3a16 16 0 0 1 20.7-17.9C163.1 330.5 208 336 256 336s92.9-5.5 123.1-15.2a16.05 16.05 0 0 1 20.7 17.9z" class="fa-secondary"/><path d="M159.7 136.7c-12.4 18.4-15.2 36.9-15.7 55.3.6 18.4 3.3 36.9 15.7 55.3a19.76 19.76 0 0 0 32.7 0c12.4-18.4 15.2-36.9 15.7-55.3-.6-18.4-3.3-36.9-15.7-55.3a19.76 19.76 0 0 0-32.7 0zm192.7 0a19.76 19.76 0 0 0-32.7 0c-12.4 18.4-15.2 36.9-15.7 55.3.6 18.4 3.3 36.9 15.7 55.3a19.76 19.76 0 0 0 32.7 0c12.4-18.4 15.2-36.9 15.7-55.3-.6-18.4-3.3-36.9-15.7-55.3z" class="fa-primary"/></svg>