<svg xmlns="http://www.w3.org/2000/svg" viewBox="0 0 512 512"><defs><style>.fa-secondary{opacity:.4}</style></defs><path d="M256 8C119 8 8 119 8 256s111 248 248 248 248-111 248-248S393 8 256 8zM102.6 168.9l34.9-5 15.5-31.6a7.73 7.73 0 0 1 13.9 0l15.5 31.6 34.9 5a7.78 7.78 0 0 1 4.3 13.2l-25.4 24.6 6 34.9a7.48 7.48 0 0 1-11 7.9L160 233.3l-31.3 16.3a7.48 7.48 0 0 1-11-7.9l6-34.9-25.4-24.6a7.85 7.85 0 0 1 4.3-13.3zm297.2 169.8c-9.3 55-83.2 93.3-143.8 93.3s-134.5-38.3-143.8-93.3a16.06 16.06 0 0 1 20.7-17.9C163.1 330.5 208 336 256 336s92.9-5.5 123.1-15.2a16 16 0 0 1 20.7 17.9zm13.9-156.6l-25.4 24.6 6 34.9a7.48 7.48 0 0 1-11 7.9L352 233.3l-31.3 16.3a7.48 7.48 0 0 1-11-7.9l6-34.9-25.4-24.6a7.81 7.81 0 0 1 4.3-13.2l34.9-5 15.5-31.6a7.73 7.73 0 0 1 13.9 0l15.5 31.6 34.9 5a7.69 7.69 0 0 1 4.4 13.1z" class="fa-secondary"/><path d="M217.3 168.9l-34.9-5-15.5-31.6a7.73 7.73 0 0 0-13.9 0l-15.5 31.6-34.9 5a7.85 7.85 0 0 0-4.3 13.3l25.4 24.6-6 34.9a7.48 7.48 0 0 0 11 7.9l31.3-16.3 31.2 16.2a7.48 7.48 0 0 0 11-7.9l-6-34.9 25.4-24.6a7.78 7.78 0 0 0-4.3-13.2zm192 .1l-34.9-5-15.5-31.6a7.73 7.73 0 0 0-13.9 0L329.5 164l-34.9 5a7.81 7.81 0 0 0-4.3 13.2l25.4 24.6-6 34.9a7.48 7.48 0 0 0 11 7.9l31.3-16.3 31.3 16.2a7.48 7.48 0 0 0 11-7.9l-6-34.9 25.4-24.6a7.69 7.69 0 0 0-4.4-13.1z" class="fa-primary"/></svg>