<svg xmlns="http://www.w3.org/2000/svg" viewBox="0 0 512 512"><defs><style>.fa-secondary{opacity:.4}</style></defs><path d="M256 8C119 8 8 119 8 256s111 248 248 248 248-111 248-248S393 8 256 8zm80 168a32 32 0 1 1-32 32 32 32 0 0 1 32-32zm-160 0a32 32 0 1 1-32 32 32 32 0 0 1 32-32zm223.8 162.7c-9.3 55-83.2 93.3-143.8 93.3s-134.5-38.3-143.8-93.3a16 16 0 0 1 20.7-17.9C163.1 330.5 208 336 256 336s92.9-5.5 123.1-15.2c11.3-3.7 22.6 6.1 20.7 17.9z" class="fa-secondary"/><path d="M176 176a32 32 0 1 0 32 32 32 32 0 0 0-32-32zm160 0a32 32 0 1 0 32 32 32 32 0 0 0-32-32z" class="fa-primary"/></svg>