<svg xmlns="http://www.w3.org/2000/svg" viewBox="0 0 512 512"><defs><style>.fa-secondary{opacity:.4}</style></defs><path d="M256 8C119 8 8 119 8 256s111 248 248 248 248-111 248-248S393 8 256 8zM98.4 183.6c6.7-17.6 26.7-26.7 44.9-21.9l7.1 1.9 2-7.1c5-18.1 22.8-30.9 41.5-27.9a35.38 35.38 0 0 1 28.8 44.5L203.3 243a8.59 8.59 0 0 1-10.5 6l-70.2-18.2a35.49 35.49 0 0 1-24.2-47.2zm301.4 155.1c-9.3 55-83.2 93.3-143.8 93.3s-134.5-38.3-143.8-93.3a16 16 0 0 1 20.7-17.9C163.1 330.5 208 336 256 336s92.9-5.5 123.1-15.2a16.08 16.08 0 0 1 20.7 17.9zm-10.4-108l-70.2 18.2a8.68 8.68 0 0 1-10.5-6L289.3 173a35.38 35.38 0 0 1 28.8-44.5c18.6-3 36.4 9.8 41.5 27.9l2 7.1 7.1-1.9c18.2-4.7 38.2 4.3 44.9 21.9a35.42 35.42 0 0 1-24.2 47.2z" class="fa-secondary"/><path d="M193.9 128.6c-18.7-3-36.5 9.8-41.5 27.9l-2 7.1-7.1-1.9c-18.2-4.8-38.2 4.3-44.9 21.9a35.49 35.49 0 0 0 24.2 47.2l70.2 18.2a8.59 8.59 0 0 0 10.5-6l19.4-69.9a35.38 35.38 0 0 0-28.8-44.5zm219.7 54.9c-6.7-17.6-26.7-26.6-44.9-21.9l-7.1 1.9-2-7.1c-5.1-18.1-22.9-30.9-41.5-27.9a35.38 35.38 0 0 0-28.8 44.5l19.4 69.9a8.68 8.68 0 0 0 10.5 6l70.2-18.2a35.42 35.42 0 0 0 24.2-47.2z" class="fa-primary"/></svg>