<svg xmlns="http://www.w3.org/2000/svg" viewBox="0 0 512 512"><defs><style>.fa-secondary{opacity:.4}</style></defs><path d="M256 4C119 4 8 115 8 252c0 106.3 67 196.7 161 232a95.67 95.67 0 0 1-9-40v-45.5c-24.7-16.2-43.5-38.1-47.8-63.8a16 16 0 0 1 20.7-17.9C163.1 326.5 208 332 256 332s92.9-5.5 123.1-15.2a16.05 16.05 0 0 1 20.7 17.9c-4.3 25.7-23.1 47.6-47.8 63.8V444a95.67 95.67 0 0 1-9 40c94-35.3 161-125.7 161-232C504 115 393 4 256 4zm-33.8 210.3l-80 48c-11.5 6.8-24-7.6-15.4-18l33.6-40.3-33.6-40.3c-8.6-10.3 3.8-24.9 15.4-18l80 48a12.07 12.07 0 0 1 0 20.6zm147.6 48l-80-48a12 12 0 0 1 0-20.6l80-48c11.7-6.9 23.9 7.7 15.4 18L351.6 204l33.6 40.3c8.7 10.4-3.9 24.8-15.4 18z" class="fa-secondary"/><path d="M222.2 193.7l-80-48c-11.6-6.9-24 7.7-15.4 18l33.6 40.3-33.6 40.3c-8.6 10.4 3.9 24.8 15.4 18l80-48a12.07 12.07 0 0 0 0-20.6zm44.3 194.5l-1.8 7.8c-2.1 9.2-15.2 9.2-17.3 0l-1.8-7.8c-3.5-15.4-20.2-24.1-34.6-17.6-.9.4.3-.2-18.9 9.4v63c0 35.2 28 64.5 63.1 64.9a64.07 64.07 0 0 0 64.9-64v-64c-19.5-9.6-18.2-8.9-19-9.3-14.4-6.5-31.1 2.2-34.6 17.6zm118.7-143.9L351.6 204l33.6-40.3c8.5-10.3-3.7-24.9-15.4-18l-80 48a12 12 0 0 0 0 20.6l80 48c11.5 6.8 24.1-7.6 15.4-18z" class="fa-primary"/></svg>