<svg xmlns="http://www.w3.org/2000/svg" viewBox="0 0 512 512"><defs><style>.fa-secondary{opacity:.4}</style></defs><path d="M460 164c-44.1 0-80-35.4-80-79 0-4.4.3-14.19 8.1-32.19A246.84 246.84 0 0 0 252 12C115 12 4 123 4 260s111 248 248 248 248-111 248-248a247.1 247.1 0 0 0-20.5-98.6A83.35 83.35 0 0 1 460 164zm-183.8 63.4c3.1-42.09 32-71.4 55.8-71.4s52.7 29.31 56 71.4c.7 8.6-10.8 12-14.9 4.5l-9.5-17c-7.7-13.69-19.2-21.59-31.5-21.59s-23.8 7.9-31.5 21.59l-9.5 17c-4.1 7.43-15.6 4.02-14.9-4.48zm-160 0c3.1-42.09 32-71.4 55.8-71.4s52.7 29.31 56 71.4c.7 8.6-10.8 12-14.9 4.5l-9.5-17c-7.7-13.69-19.2-21.59-31.5-21.59s-23.8 7.9-31.5 21.59l-9.5 17c-4.2 7.43-15.6 4.02-14.9-4.48zm279.6 115.33c-9.3 55-83.2 93.27-143.8 93.27s-134.5-38.29-143.8-93.29a16 16 0 0 1 20.7-17.9C159.1 334.52 204 340 252 340s92.9-5.5 123.1-15.19a16.05 16.05 0 0 1 20.7 17.92z" class="fa-secondary"/><path d="M466.4 7.23a8 8 0 0 0-12.8 0C440.5 24.62 412 65 412 85c0 26 21.5 47 48 47s48-21 48-47c0-20-28.5-60.38-41.6-77.77zM172 156c-23.8 0-52.7 29.31-55.8 71.4-.7 8.5 10.7 11.91 14.9 4.5l9.5-17c7.7-13.69 19.2-21.59 31.5-21.59s23.8 7.9 31.5 21.59l9.5 17c4.1 7.5 15.6 4.1 14.9-4.5-3.3-42.07-32.2-71.4-56-71.4zm160 0c-23.8 0-52.7 29.31-55.8 71.4-.7 8.5 10.8 11.91 14.9 4.5l9.5-17c7.7-13.69 19.2-21.59 31.5-21.59s23.8 7.9 31.5 21.59l9.5 17c4.1 7.5 15.6 4.1 14.9-4.5-3.3-42.07-32.2-71.4-56-71.4z" class="fa-primary"/></svg>