<svg xmlns="http://www.w3.org/2000/svg" viewBox="0 0 512 512"><defs><style>.fa-secondary{opacity:.4}</style></defs><path d="M256 4C119 4 8 115 8 252c0 106.3 67 196.7 161 232a95.67 95.67 0 0 1-9-40v-45.5c-24.7-16.2-43.5-38.1-47.8-63.8a16.06 16.06 0 0 1 20.7-17.9C163.1 326.5 208 332 256 332s92.9-5.5 123.1-15.2a16 16 0 0 1 20.7 17.9c-4.3 25.7-23.1 47.6-47.8 63.8V444a95.67 95.67 0 0 1-9 40c94-35.3 161-125.7 161-232C504 115 393 4 256 4zm-56 225l-9.5-8.5c-14.8-13.2-46.2-13.2-61 0L120 229c-8.5 7.4-21.6.3-19.8-10.8 4-25.2 34.2-42.1 59.9-42.1S216 193 220 218.2c1.6 11.1-11.6 18.2-20 10.8zm152 39a64 64 0 1 1 64-64 64.06 64.06 0 0 1-64 64z" class="fa-secondary"/><path d="M220 218.2c-4-25.2-34.2-42.1-59.9-42.1s-55.9 16.9-59.9 42.1c-1.8 11.1 11.3 18.2 19.8 10.8l9.5-8.5c14.8-13.2 46.2-13.2 61 0l9.5 8.5c8.4 7.4 21.6.3 20-10.8zm46.5 170l-1.8 7.8c-2.1 9.2-15.2 9.2-17.3 0l-1.8-7.8c-3.5-15.4-20.2-24.1-34.6-17.6-.9.4.3-.2-18.9 9.4v63c0 35.2 28 64.5 63.1 64.9a64.07 64.07 0 0 0 64.9-64v-64c-19.5-9.6-18.2-8.9-19-9.3-14.4-6.5-31.1 2.2-34.6 17.6zM352 180a24 24 0 1 0 24 24 23.94 23.94 0 0 0-24-24z" class="fa-primary"/></svg>