<svg xmlns="http://www.w3.org/2000/svg" viewBox="0 0 512 512"><defs><style>.fa-secondary{opacity:.4}</style></defs><path d="M256 8C119 8 8 119 8 256s111 248 248 248 248-111 248-248S393 8 256 8zm123.5 272.3L268.9 394.5a17.88 17.88 0 0 1-25.9 0L132.5 280.3c-32.1-33.2-30.2-88.2 5.7-118.8 31.3-26.7 77.9-21.9 106.6 7.7l11.3 11.6 11.3-11.6c28.7-29.6 75.3-34.4 106.6-7.7 35.8 30.6 37.7 85.6 5.5 118.8z" class="fa-secondary"/><path d="M379.5 280.3L268.9 394.5a17.88 17.88 0 0 1-25.9 0L132.5 280.3c-32.1-33.2-30.2-88.2 5.7-118.8 31.3-26.7 77.9-21.9 106.6 7.7l11.3 11.6 11.3-11.6c28.7-29.6 75.3-34.4 106.6-7.7 35.8 30.6 37.7 85.6 5.5 118.8z" class="fa-primary"/></svg>