<svg xmlns="http://www.w3.org/2000/svg" viewBox="0 0 450 512"><defs><style>.fa-secondary{opacity:.4}</style></defs><path d="M97 448c-19.2 0-32-12.8-32-32s16-32 32-32h319.33c-1.93 16.24-1.76 48.38.53 64z" class="fa-secondary"/><path d="M97 384h328a24 24 0 0 0 24-24V32a32 32 0 0 0-32-32H97A96 96 0 0 0 1 96v320a96 96 0 0 0 96 96h328a24 24 0 0 0 24-24v-16a24 24 0 0 0-24-24H97c-19.2 0-32-12.8-32-32s16-32 32-32zm37.08-239.61l21.26 21.26a8 8 0 0 0 11.32-11.31l-26.42-26.42a111.88 111.88 0 0 1 46.37-49.26 63 63 0 0 0 14 82.65 55.86 55.86 0 0 0 28.72 93.45l1.36-32.71-10.37 7a4.13 4.13 0 0 1-2.25.69 4.06 4.06 0 0 1-2.75-1.09 4 4 0 0 1-.69-4.95l8.54-14.31-17.91-3.72a4 4 0 0 1 0-7.84l17.91-3.72-8.54-14.31a4 4 0 0 1 5.69-5.36l12 8.16L237 71.83a4 4 0 0 1 8 0l4.68 112.29 14.2-9.65a4.07 4.07 0 0 1 5 .41 4 4 0 0 1 .69 5L261 194.14l17.91 3.72a4 4 0 0 1 0 7.84L261 209.42l8.54 14.31a4 4 0 0 1-3.44 6 4 4 0 0 1-2.25-.69l-12.68-8.62 1.43 34.28a55.84 55.84 0 0 0 28.71-93.43 63 63 0 0 0 14.09-82.6 111.82 111.82 0 0 1 46.37 49.26l-26.42 26.42a8 8 0 0 0 11.32 11.31l21.26-21.26C350.9 154.48 353 165 353 176c0 .52-.14 1-.15 1.51L315.74 210a8 8 0 0 0-.77 11.25 8 8 0 0 0 11.29.75l23.59-20.64C338.32 251 294.09 288 241 288s-97.32-37-108.86-86.62L155.73 222a8 8 0 1 0 10.54-12l-37.11-32.47c0-.52-.15-1-.15-1.51-.01-11.02 2.09-21.54 5.07-31.63z" class="fa-primary"/></svg>