<svg xmlns="http://www.w3.org/2000/svg" viewBox="0 0 512 512"><defs><style>.fa-secondary{opacity:.4}</style></defs><path d="M256 8C119 8 8 119 8 256s111 248 248 248 248-111 248-248S393 8 256 8zm-39 219.9l-9.5-17c-7.7-13.7-19.2-21.6-31.5-21.6s-23.8 7.9-31.5 21.6l-9.5 17c-4.2 7.4-15.6 4-14.9-4.5 3.3-42.1 32.2-71.4 56-71.4s52.7 29.3 56 71.4c.5 8.5-10.9 12-15.1 4.5zM312 396c0 19.2-28.7 41.5-71.5 44-8.5.8-12.1-11.8-3.6-15.4l17-7.2c13-5.5 20.8-13.5 20.8-21.5s-7.8-16-20.8-21.5l-17-7.2c-6-2.5-6.1-12.2 0-14.8l17-7.2c13-5.5 20.8-13.5 20.8-21.5s-7.8-16-20.8-21.5l-17-7.2c-8.6-3.6-4.8-16.5 3.6-15.4 42.8 2.5 71.5 24.8 71.5 44 0 13-13.4 27.3-35.2 36C298.6 368.7 312 383 312 396zm65-168.1l-9.5-17c-7.7-13.7-19.2-21.6-31.5-21.6s-23.8 7.9-31.5 21.6l-9.5 17c-4.1 7.3-15.6 4-14.9-4.5 3.3-42.1 32.2-71.4 56-71.4s52.7 29.3 56 71.4c.5 8.5-10.9 12-15.1 4.5z" class="fa-secondary"/><path d="M392.1 223.4c-3.3-42.1-32.2-71.4-56-71.4s-52.7 29.3-56 71.4c-.7 8.5 10.8 11.8 14.9 4.5l9.5-17c7.7-13.7 19.2-21.6 31.5-21.6s23.8 7.9 31.5 21.6l9.5 17c4.2 7.5 15.6 4 15.1-4.5zm-216-71.4c-23.8 0-52.7 29.3-56 71.4-.7 8.5 10.7 11.9 14.9 4.5l9.5-17c7.7-13.7 19.2-21.6 31.5-21.6s23.8 7.9 31.5 21.6l9.5 17c4.2 7.5 15.6 4 15.1-4.5-3.3-42.1-32.2-71.4-56-71.4z" class="fa-primary"/></svg>