<svg xmlns="http://www.w3.org/2000/svg" viewBox="0 0 512 512"><defs><style>.fa-secondary{opacity:.4}</style></defs><path d="M336.5 338.8c29.7-46.3 98.7-45.5 127.8 4.3a82 82 0 0 1 18.6 2.9 246.7 246.7 0 0 0 17.1-90C500 119 389 8 252 8S4 119 4 256s111 248 248 248a246.13 246.13 0 0 0 99.4-20.9c-.3-.7-23.9-84.6-23.9-84.6a74.27 74.27 0 0 1 9-59.7zM172 240a32 32 0 1 1 32-32 32 32 0 0 1-32 32zm120 156c0 19.2-28.7 41.5-71.5 44-8.5.8-12.1-11.8-3.6-15.4l17-7.2c13-5.5 20.8-13.5 20.8-21.5s-7.8-16-20.8-21.5l-17-7.2c-6-2.5-5.7-12.3 0-14.8l17-7.2c13-5.5 20.8-13.5 20.8-21.5s-7.8-16-20.8-21.5l-17-7.2c-8.8-3.7-4.6-16.6 3.6-15.4 42.8 2.5 71.5 24.8 71.5 44 0 13-13.4 27.3-35.2 36C278.6 368.7 292 383 292 396zm16-179c-8.3 7.4-21.6.4-19.8-10.8 4-25.2 34.2-42.1 59.9-42.1S404 181 408 206.2a12 12 0 0 1-19.8 10.8l-9.5-8.5c-14.8-13.2-46.2-13.2-61 0z" class="fa-secondary"/><path d="M505.1 402.5c-8-20.8-31.5-31.5-53.1-25.9l-8.4 2.2-2.3-8.4c-5.9-21.4-27-36.5-49-33a41.85 41.85 0 0 0-34 52.6l22.9 82.6a10.23 10.23 0 0 0 12.4 7.1l83-21.5a41.71 41.71 0 0 0 28.5-55.7zM388.2 217a12 12 0 0 0 19.8-10.8c-4-25.2-34.2-42.1-59.9-42.1s-55.9 16.9-59.9 42.1c-1.8 11.2 11.5 18.2 19.8 10.8l9.7-8.5c14.8-13.2 46.2-13.2 61 0zM172 176a32 32 0 1 0 32 32 32 32 0 0 0-32-32z" class="fa-primary"/></svg>