<svg xmlns="http://www.w3.org/2000/svg" viewBox="0 0 512 512"><defs><style>.fa-secondary{opacity:.4}</style></defs><path d="M256 8C119 8 8 119 8 256s111 248 248 248 248-111 248-248S393 8 256 8zm-80 232a32 32 0 1 1 32-32 32 32 0 0 1-32 32zm136 156c0 19.2-28.7 41.5-71.5 44-8.5.8-12.1-11.8-3.6-15.4l17-7.2c13-5.5 20.8-13.5 20.8-21.5s-7.8-16-20.8-21.5l-17-7.2c-6-2.5-6.1-12.2 0-14.8l17-7.2c13-5.5 20.8-13.5 20.8-21.5s-7.8-16-20.8-21.5l-17-7.2c-8.6-3.6-4.8-16.5 3.6-15.4 42.8 2.5 71.5 24.8 71.5 44 0 13-13.4 27.3-35.2 36C298.6 368.7 312 383 312 396zm24-156a32 32 0 1 1 32-32 32 32 0 0 1-32 32z" class="fa-secondary"/><path d="M336 176a32 32 0 1 0 32 32 32 32 0 0 0-32-32zm-160 0a32 32 0 1 0 32 32 32 32 0 0 0-32-32z" class="fa-primary"/></svg>