<svg xmlns="http://www.w3.org/2000/svg" viewBox="0 0 640 512"><defs><style>.fa-secondary{opacity:.4}</style></defs><path d="M0 392V120a23.94 23.94 0 0 1 24-24h280v320H24a23.94 23.94 0 0 1-24-24z" class="fa-secondary"/><path d="M171.7 167a12.19 12.19 0 0 0-11.4-8.1h-32.5a12 12 0 0 0-11.4 8.1L58.9 336.1A12.08 12.08 0 0 0 70.3 352h22.9a12.09 12.09 0 0 0 11.5-8.7l9.1-31.8H174l9.4 31.9a12 12 0 0 0 11.5 8.6h22.9a12 12 0 0 0 11.4-15.9zm-46.8 106.7l11.1-37.5c3.5-12.1 7.8-33.2 7.8-33.2h.5s4.3 21.1 7.8 33.2l10.9 37.5zM616 96H336v320h280a23.94 23.94 0 0 0 24-24V120a23.94 23.94 0 0 0-24-24zm-24 120a12 12 0 0 1-12 12h-11.4c-6.9 23.6-21.7 47.4-42.7 69.9a310 310 0 0 0 26.1 18 12 12 0 0 1 4.1 16.2l-7.9 13.9a12 12 0 0 1-16.7 4.3 347.93 347.93 0 0 1-35.4-24.9 352.66 352.66 0 0 1-35.4 24.9A12 12 0 0 1 444 346l-7.9-13.9a12 12 0 0 1 4.2-16.2 285.27 285.27 0 0 0 26.1-18 232 232 0 0 1-21-25.7 12 12 0 0 1 3.7-17.1l6.5-3.9 7.3-4.3a12.09 12.09 0 0 1 16 3.4 190.68 190.68 0 0 0 17.4 20.9c13.5-14.2 23.8-28.9 30-43.2H412a12 12 0 0 1-12-12v-16a12 12 0 0 1 12-12h64v-16a12 12 0 0 1 12-12h16a12 12 0 0 1 12 12v16h64a12 12 0 0 1 12 12z" class="fa-primary"/></svg>