<svg xmlns="http://www.w3.org/2000/svg" viewBox="0 0 512 512"><defs><style>.fa-secondary{opacity:.4}</style></defs><path d="M256 8C119 8 8 119 8 256s111 248 248 248 248-111 248-248S393 8 256 8zm80 152a32 32 0 1 1-32 32 32 32 0 0 1 32-32zm-160 0a32 32 0 1 1-32 32 32 32 0 0 1 32-32zm230.9 146A144.12 144.12 0 0 1 264 432h-16a144.12 144.12 0 0 1-142.9-126 16.06 16.06 0 0 1 15.9-18h270a16 16 0 0 1 15.9 18z" class="fa-secondary"/><path d="M336 160a32 32 0 1 0 32 32 32 32 0 0 0-32-32zm-160 0a32 32 0 1 0 32 32 32 32 0 0 0-32-32z" class="fa-primary"/></svg>