<svg xmlns="http://www.w3.org/2000/svg" viewBox="0 0 512 512"><defs><style>.fa-secondary{opacity:.4}</style></defs><path d="M256 8C119 8 8 119 8 256s111 248 248 248 248-111 248-248S393 8 256 8zm24 199.4c3.3-42.1 32.2-71.4 56-71.4s52.7 29.3 56 71.4c.7 8.6-10.8 11.9-14.9 4.5l-9.5-17c-7.7-13.7-19.2-21.6-31.5-21.6s-23.8 7.9-31.5 21.6l-9.5 17c-4.2 7.4-15.8 4.1-15.1-4.5zm-160 0c3.3-42.1 32.2-71.4 56-71.4s52.7 29.3 56 71.4c.7 8.6-10.8 11.9-14.9 4.5l-9.5-17c-7.7-13.7-19.2-21.6-31.5-21.6s-23.8 7.9-31.5 21.6l-9.5 17c-4.3 7.4-15.8 4-15.1-4.5zM406.9 306A144.12 144.12 0 0 1 264 432h-16a144.12 144.12 0 0 1-142.9-126 16.06 16.06 0 0 1 15.9-18h270a16 16 0 0 1 15.9 18z" class="fa-secondary"/><path d="M392 207.4c-3.3-42.1-32.2-71.4-56-71.4s-52.7 29.3-56 71.4c-.7 8.6 10.9 11.9 15.1 4.5l9.5-17c7.7-13.7 19.2-21.6 31.5-21.6s23.8 7.9 31.5 21.6l9.5 17c4.1 7.4 15.6 4.1 14.9-4.5zM176 136c-23.8 0-52.7 29.3-56 71.4-.7 8.5 10.8 11.9 15.1 4.5l9.5-17c7.7-13.7 19.2-21.6 31.5-21.6s23.8 7.9 31.5 21.6l9.5 17c4.1 7.4 15.6 4.1 14.9-4.5-3.3-42.1-32.2-71.4-56-71.4z" class="fa-primary"/></svg>