<svg xmlns="http://www.w3.org/2000/svg" viewBox="0 0 512 512"><defs><style>.fa-secondary{opacity:.4}</style></defs><path d="M256 8C119 8 8 119 8 256s111 248 248 248 248-111 248-248S393 8 256 8zm20.1 198.1c4-25.2 34.2-42.1 59.9-42.1s55.9 16.9 59.9 42.1c1.7 11.1-11.4 18.3-19.8 10.8l-9.5-8.5c-14.8-13.2-46.2-13.2-61 0L296 217a12.08 12.08 0 0 1-19.9-10.9zM176 160a32 32 0 1 1-32 32 32 32 0 0 1 32-32zm230.9 146A144.12 144.12 0 0 1 264 432h-16a144.12 144.12 0 0 1-142.9-126 16.06 16.06 0 0 1 15.9-18h270a16 16 0 0 1 15.9 18z" class="fa-secondary"/><path d="M395.9 206.1c-4-25.2-34.2-42.1-59.9-42.1s-55.9 16.9-59.9 42.1A12.08 12.08 0 0 0 296 217l9.6-8.6c14.8-13.2 46.2-13.2 61 0l9.5 8.5c8.4 7.5 21.5.3 19.8-10.8zM176 160a32 32 0 1 0 32 32 32 32 0 0 0-32-32z" class="fa-primary"/></svg>