<svg xmlns="http://www.w3.org/2000/svg" viewBox="0 0 640 512"><defs><style>.fa-secondary{opacity:.4}</style></defs><path d="M408 256a88 88 0 1 1-88-88 88 88 0 0 1 88 88z" class="fa-secondary"/><path d="M560 224h-50.88A191.86 191.86 0 0 0 352 66.88V16a16 16 0 0 0-16-16h-32a16 16 0 0 0-16 16v50.88A191.86 191.86 0 0 0 130.88 224H80a16 16 0 0 0-16 16v32a16 16 0 0 0 16 16h50.88A191.86 191.86 0 0 0 288 445.12V496a16 16 0 0 0 16 16h32a16 16 0 0 0 16-16v-50.88A191.86 191.86 0 0 0 509.12 288H560a16 16 0 0 0 16-16v-32a16 16 0 0 0-16-16zM320 384a128 128 0 1 1 128-128 128 128 0 0 1-128 128z" class="fa-primary"/></svg>