<svg xmlns="http://www.w3.org/2000/svg" viewBox="0 0 512 512"><defs><style>.fa-secondary{opacity:.4}</style></defs><path d="M256 8C119 8 8 119 8 256s111 248 248 248 248-111 248-248S393 8 256 8zm110.24 169.74l-95.95 207.89c-11.2 24-46.38 16-46.38-9.59v-88H136c-25.59 0-33.58-35.18-9.59-46.38l207.89-95.95c19.15-7.95 39.94 12.84 31.94 32.03z" class="fa-secondary"/><path d="M126.36 241.7l207.89-95.95c19.2-8 40 12.8 32 32l-95.96 207.88c-11.2 24-46.38 16-46.38-9.59v-88H136c-25.64.04-33.63-35.14-9.64-46.34z" class="fa-primary"/></svg>