<svg xmlns="http://www.w3.org/2000/svg" viewBox="0 0 512 512"><defs><style>.fa-secondary{opacity:.4}</style></defs><path d="M216.34 312.46a80 80 0 1 1 0-113.14 80 80 0 0 1 0 113.14z" class="fa-secondary"/><path d="M491.94 247.36L436 191.46a12 12 0 0 0-20.5 8.5v23.95h-23.71v-20a12 12 0 0 0-12-12h-40a12 12 0 0 0-12 12v20h-27.6a143.88 143.88 0 1 0 0 64h27.6v20a12 12 0 0 0 12 12h40a12 12 0 0 0 12-12v-20h23.9v23.9a12 12 0 0 0 20.5 8.5l55.9-55.9a12.11 12.11 0 0 0-.15-17.05zm-275.6 65.1a80 80 0 1 1 0-113.14 80 80 0 0 1 0 113.14z" class="fa-primary"/></svg>