<svg xmlns="http://www.w3.org/2000/svg" viewBox="0 0 320 512"><defs><style>.fa-secondary{opacity:.4}</style></defs><path d="M304 208a143.64 143.64 0 0 0-51.2-110.1c2.5-1.8 4.9-3.8 7.2-5.8 24.7-21.2 39.8-48.8 43.2-78.8A11.89 11.89 0 0 0 292.83.08a12.79 12.79 0 0 0-1.52-.08h-40.5A12 12 0 0 0 239 9.8c-2.4 12.5-9.6 24.3-20.7 33.8C203 56.8 182.31 64 160 64s-43-7.2-58.4-20.4C90.5 34.1 83.4 22.3 80.9 9.8A12 12 0 0 0 69.21 0h-40.5a11.88 11.88 0 0 0-12 11.77 13.08 13.08 0 0 0 .09 1.53C20.21 43.4 35.21 71 60 92.2c2.3 2 4.7 3.9 7.2 5.8A143.9 143.9 0 0 0 128 348.4V400H92a12 12 0 0 0-12 12v40a12 12 0 0 0 12 12h36v36a12 12 0 0 0 12 12h40a12 12 0 0 0 12-12v-36h36a12 12 0 0 0 12-12v-40a12 12 0 0 0-12-12h-36v-51.6A144 144 0 0 0 304 208zm-144 80a80 80 0 1 1 80-80 80 80 0 0 1-80 80z" class="fa-secondary"/><path d="M160 288a80 80 0 1 1 80-80 80 80 0 0 1-80 80z" class="fa-primary"/></svg>