<svg xmlns="http://www.w3.org/2000/svg" viewBox="0 0 544 512"><defs><style>.fa-secondary{opacity:.4}</style></defs><path d="M537.52 231.8l-112-192A48.11 48.11 0 0 0 384 16H160a48.11 48.11 0 0 0-41.5 23.8l-112 192a48.19 48.19 0 0 0 0 48.4l112 192A48.11 48.11 0 0 0 160 496h224a48.11 48.11 0 0 0 41.5-23.8l112-192a48.09 48.09 0 0 0 .02-48.4zM416 284a12 12 0 0 1-12 12H140a12 12 0 0 1-12-12v-56a12 12 0 0 1 12-12h264a12 12 0 0 1 12 12z" class="fa-secondary"/><path d="M416 228v56a12 12 0 0 1-12 12H140a12 12 0 0 1-12-12v-56a12 12 0 0 1 12-12h264a12 12 0 0 1 12 12z" class="fa-primary"/></svg>