<svg xmlns="http://www.w3.org/2000/svg" viewBox="0 0 512 512"><defs><style>.fa-secondary{opacity:.4}</style></defs><path d="M288 208h-48v32h48a16 16 0 0 0 0-32zM256 8C119 8 8 119 8 256s111 248 248 248 248-111 248-248S393 8 256 8zm32 296h-48v48a16 16 0 0 1-16 16h-32a16 16 0 0 1-16-16V160a16 16 0 0 1 16-16h96a80 80 0 0 1 0 160z" class="fa-secondary"/><path d="M288 144h-96a16 16 0 0 0-16 16v192a16 16 0 0 0 16 16h32a16 16 0 0 0 16-16v-48h48a80 80 0 0 0 0-160zm0 96h-48v-32h48a16 16 0 0 1 0 32z" class="fa-primary"/></svg>