<svg xmlns="http://www.w3.org/2000/svg" viewBox="0 0 512 512"><defs><style>.fa-secondary{opacity:.4}</style></defs><path d="M176 352V234.61L265.78 304H240v48a16 16 0 0 1-16 16h-32a16 16 0 0 1-16-16zm192-128a80 80 0 0 0-80-80h-96a16 16 0 0 0-15 10.49L246.22 208H288a16 16 0 0 1 0 32h-.38l54.95 42.47A79.76 79.76 0 0 0 368 224z" class="fa-secondary"/><path d="M256 8C119 8 8 119 8 256s111 248 248 248 248-111 248-248S393 8 256 8zm0 432c-101.46 0-184-82.54-184-184a182.69 182.69 0 0 1 21.17-85.41l286.39 221.35A183.06 183.06 0 0 1 256 440zm162.83-98.59L132.44 120.06A183.06 183.06 0 0 1 256 72c101.46 0 184 82.54 184 184a182.69 182.69 0 0 1-21.17 85.41z" class="fa-primary"/></svg>