<svg xmlns="http://www.w3.org/2000/svg" viewBox="0 0 512 512"><defs><style>.fa-secondary{opacity:.4}</style></defs><path d="M417.54 344.25a185 185 0 0 1-31.43 41.86q-4.2 4.18-8.61 8.07l-89.5-71.6v114.66a186.89 186.89 0 0 1-64 0V322.58l-89.5 71.6q-4.41-3.89-8.61-8.07a185 185 0 0 1-31.43-41.86L224 240.62V74.76a186.89 186.89 0 0 1 64 0v165.86z" class="fa-secondary"/><path d="M256 8C119 8 8 119 8 256s111 248 248 248 248-111 248-248S393 8 256 8zm130.11 378.11A184 184 0 1 1 440 256a182.82 182.82 0 0 1-53.89 130.11z" class="fa-primary"/></svg>