<svg xmlns="http://www.w3.org/2000/svg" viewBox="0 0 576 512"><defs><style>.fa-secondary{opacity:.4}</style></defs><path d="M99.37 224A155.52 155.52 0 0 0 96 256H56A56.08 56.08 0 0 1 .47 192.62C4.1 164.4 29.5 144 58 144a6 6 0 0 1 6 6v20a6 6 0 0 1-6 6h-1c-11.61 0-22.27 7.82-24.49 19.22A24 24 0 0 0 56 224z" class="fa-secondary"/><path d="M560 192h-29.51a159.78 159.78 0 0 0-37.38-52.46L512 64h-32c-29.4 0-55.39 13.5-73 34.32-7.57-1.1-15.12-2.32-23-2.32H256c-94.83 0-160 78.88-160 160a159.75 159.75 0 0 0 64 128v-.73V464a16 16 0 0 0 16 16h64a16 16 0 0 0 16-16v-48h128v48a16 16 0 0 0 16 16h64a16 16 0 0 0 16-16v-80.72A160.09 160.09 0 0 0 511.28 352H560a16 16 0 0 0 16-16V208a16 16 0 0 0-16-16zm-128 64a16 16 0 1 1 16-16 16 16 0 0 1-16 16z" class="fa-primary"/></svg>