<svg xmlns="http://www.w3.org/2000/svg" viewBox="0 0 576 512"><defs><style>.fa-secondary{opacity:.4}</style></defs><path d="M208.58 102.2c-.1-2.1-.6-4.1-.6-6.2a96 96 0 1 1 192 0c0 .3-.1.5-.1.8-5.2-.4-10.5-.8-15.9-.8H256a190.09 190.09 0 0 0-47.42 6.2zM56 256a24 24 0 0 1-23.54-28.78C34.68 215.82 45.34 208 57 208h1a6 6 0 0 0 6-6v-20a6 6 0 0 0-6-6C29.5 176 4.1 196.4.47 224.62A56.08 56.08 0 0 0 56 288h40a155.52 155.52 0 0 1 3.37-32z" class="fa-secondary"/><path d="M560 224h-29.51a159.78 159.78 0 0 0-37.38-52.46L512 96h-32c-29.4 0-55.39 13.5-73 34.32-7.57-1.1-15.12-2.32-23-2.32H256c-94.83 0-160 78.88-160 160a159.75 159.75 0 0 0 64 128v-.73V496a16 16 0 0 0 16 16h64a16 16 0 0 0 16-16v-48h128v48a16 16 0 0 0 16 16h64a16 16 0 0 0 16-16v-80.72A160.09 160.09 0 0 0 511.28 384H560a16 16 0 0 0 16-16V240a16 16 0 0 0-16-16zm-128 64a16 16 0 1 1 16-16 16 16 0 0 1-16 16z" class="fa-primary"/></svg>