<svg xmlns="http://www.w3.org/2000/svg" viewBox="0 0 640 512"><defs><style>.fa-secondary{opacity:.4}</style></defs><path d="M400 167.34V96h-32a16 16 0 0 1-16-16V48H112v144h240a162.57 162.57 0 0 0-17.14 14.86 160.14 160.14 0 0 0-34.27 175.43c.24.57.5 1.14.74 1.71H112v80h266.2q3.71 1.8 7.51 3.41A158.86 158.86 0 0 0 448 480a32 32 0 0 1-32 32H96a32 32 0 0 1-32-32v-96H16a16 16 0 0 1-16-16V256a64 64 0 0 1 64-64V32A32 32 0 0 1 96 0h274.74a32 32 0 0 1 22.63 9.37l45.26 45.25A32 32 0 0 1 448 77.25V160a159.17 159.17 0 0 0-48 7.34z" class="fa-secondary"/><path d="M635.31 462.06l-77.41-77.41A126.65 126.65 0 0 0 576 320a128 128 0 1 0-128 128c23.7 0 45.61-6.88 64.65-18.11l77.41 77.42a16 16 0 0 0 22.63 0l22.62-22.62a16 16 0 0 0 0-22.63zM448 384a64 64 0 1 1 64-64 64 64 0 0 1-64 64z" class="fa-primary"/></svg>