<svg xmlns="http://www.w3.org/2000/svg" viewBox="0 0 448 512"><defs><style>.fa-secondary{opacity:.4}</style></defs><path d="M70.43 474.44a48 48 0 1 1-.74-85.25A178.37 178.37 0 0 0 64 434v12a65.73 65.73 0 0 0 6.43 28.44z" class="fa-secondary"/><path d="M445.54 487.52L352 337.85V272h7.35a56.65 56.65 0 0 0 32.93-102.75l-48.65-34.75c-1.1-.54-2.27-.74-3.38-1.21 7.8-12.49 15.21-29.76 20.54-49.66 11.32-42.24 9.08-79.55-5-83.32S321.12 27.72 309.8 70a222.81 222.81 0 0 0-5.8 29.12A222.81 222.81 0 0 0 298.22 70c-11.33-42.28-31.92-73.46-46-69.69s-16.32 41.08-5 83.32c6.94 25.9 17.37 47.54 27.64 59.62-9.11 7.93-15.9 18.5-18 31.55A63.4 63.4 0 0 0 256 185v71h-14A178 178 0 0 0 64 434v12a66 66 0 0 0 66 66h142a16 16 0 0 0 16-16v-16a32 32 0 0 0-32-32h-22.59l74.35-60.18 72.91 116.66a16 16 0 0 0 13.57 7.52H432a16 16 0 0 0 13.54-24.48zM336 208a16 16 0 1 1 16-16 16 16 0 0 1-16 16z" class="fa-primary"/></svg>