<svg xmlns="http://www.w3.org/2000/svg" viewBox="0 0 512 512"><defs><style>.fa-secondary{opacity:.4}</style></defs><path d="M256 224a32 32 0 1 0 32 32 32 32 0 0 0-32-32zm0-216C119 8 8 119 8 256s111 248 248 248 248-111 248-248S393 8 256 8zm0 432c-101.5 0-184-82.5-184-184S154.5 72 256 72s184 82.5 184 184-82.5 184-184 184z" class="fa-secondary"/><path d="M399.1 256H320a63.77 63.77 0 0 1-30.2 54.1l41.7 66.8a16.22 16.22 0 0 0 24 3.8A159.23 159.23 0 0 0 415 272.9c1.1-9.2-6.7-16.9-15.9-16.9zM192 256h-79.1c-9.2 0-16.9 7.7-16 16.8 4.6 43.6 27 81.8 59.5 107.8a16.22 16.22 0 0 0 24-3.8l41.7-66.8a63.61 63.61 0 0 1-30.1-54zm139.6-121c4.9-7.8 2.4-18.4-5.8-22.5a156.1 156.1 0 0 0-139.7 0c-8.2 4.1-10.6 14.7-5.8 22.5l41.8 66.9a62.82 62.82 0 0 1 67.7 0z" class="fa-primary"/></svg>