<svg xmlns="http://www.w3.org/2000/svg" viewBox="0 0 448 512"><defs><style>.fa-secondary{opacity:.4}</style></defs><path d="M288 96a48 48 0 1 1 48-48 48 48 0 0 1-48 48z" class="fa-secondary"/><path d="M400 224h-44l-26.06-53.25c-12.5-25.55-35.45-44.23-61.78-50.94l-71.11-21.15a95.59 95.59 0 0 0-80.84 17.14l-39.67 30.41A32 32 0 1 0 115.48 197l39.69-30.41c7.67-5.89 17.44-8 25.27-6.14l14.7 4.37-37.46 87.38A64.17 64.17 0 0 0 184 332.51l85 50.17-27.47 87.73a32 32 0 1 0 61.07 19.12l31.6-101.06a48.2 48.2 0 0 0-21.64-54.39l-61.24-36.14 31.31-78.28 20.27 41.43A48.3 48.3 0 0 0 346 288h54a32 32 0 1 0 0-64zm-270.31 93.47L114.89 352H48a32 32 0 0 0 0 64h77.45a47.9 47.9 0 0 0 44.11-29.09l8.79-20.52-10.67-6.3a95.23 95.23 0 0 1-37.99-42.62z" class="fa-primary"/></svg>