<svg xmlns="http://www.w3.org/2000/svg" viewBox="0 0 512 512"><defs><style>.fa-secondary{opacity:.4}</style></defs><path d="M256 8C119 8 8 119 8 256s111 248 248 248 248-111 248-248S393 8 256 8zm80 168a32 32 0 1 1-32 32 32 32 0 0 1 32-32zM160 416c-26.5 0-48-21-48-47 0-20 28.5-60.4 41.6-77.8a8 8 0 0 1 12.8 0C179.5 308.6 208 349 208 369c0 26-21.5 47-48 47zm16-176a32 32 0 1 1 32-32 32 32 0 0 1-32 32zm170.2 154.2A117.33 117.33 0 0 0 256 352c-21.2 0-21.2-32 0-32a148.78 148.78 0 0 1 114.7 53.8c13.8 16.4-11.2 36.5-24.5 20.4z" class="fa-secondary"/><path d="M336 176a32 32 0 1 0 32 32 32 32 0 0 0-32-32zM153.6 291.2C140.5 308.6 112 349 112 369c0 26 21.5 47 48 47s48-21 48-47c0-20-28.5-60.4-41.6-77.8a8 8 0 0 0-12.8 0zM176 176a32 32 0 1 0 32 32 32 32 0 0 0-32-32z" class="fa-primary"/></svg>