<svg xmlns="http://www.w3.org/2000/svg" viewBox="0 0 640 512"><defs><style>.fa-secondary{opacity:.4}</style></defs><path d="M632.06 448h-176a8 8 0 0 0-8 8v48a8 8 0 0 0 8 8h176a8 8 0 0 0 8-8v-48a8 8 0 0 0-8-8zm0-96h-176a8 8 0 0 0-8 8v16a8 8 0 0 0 8 8h176a8 8 0 0 0 8-8v-16a8 8 0 0 0-8-8zm0-64h-176a8 8 0 0 0-8 8v16a8 8 0 0 0 8 8h176a8 8 0 0 0 8-8v-16a8 8 0 0 0-8-8zm0-224h-176a8 8 0 0 0-8 8v48a8 8 0 0 0 8 8h176a8 8 0 0 0 8-8V72a8 8 0 0 0-8-8zm0 96h-176a8 8 0 0 0-8 8v48a8 8 0 0 0 8 8h176a8 8 0 0 0 8-8v-48a8 8 0 0 0-8-8zm0-160h-176a8 8 0 0 0-8 8v16a8 8 0 0 0 8 8h176a8 8 0 0 0 8-8V8a8 8 0 0 0-8-8z" class="fa-secondary"/><path d="M256.06 448a32 32 0 0 0 32-32V304.3l-83 143.7zm112-384h-272a95.91 95.91 0 0 0-1.7 191.8L6.46 408a48 48 0 0 0 17.6 65.6l55.4 32a48 48 0 0 0 65.6-17.6L279 256h89.1a16 16 0 0 0 16-16V80a16 16 0 0 0-16.04-16z" class="fa-primary"/></svg>