<svg xmlns="http://www.w3.org/2000/svg" viewBox="0 0 448 512"><defs><style>.fa-secondary{opacity:.4}</style></defs><path d="M224 448.1a47.56 47.56 0 0 1-22.2-5.5l-9.8-5.2V496a16 16 0 0 0 16 16h32a16 16 0 0 0 16-16v-58.7l-9.81 5.2a46.62 46.62 0 0 1-22.19 5.6zM224 0a96 96 0 1 0 96 96 96 96 0 0 0-96-96zm-32 96a16 16 0 1 1 16-16 16 16 0 0 1-16 16zm64 16a16 16 0 1 1 16-16 16 16 0 0 1-16 16z" class="fa-secondary"/><path d="M445.81 186.39l-.08-.09-26.39-26.3 18.29-18.3a8 8 0 0 0-5.7-13.7h-117.4a96 96 0 0 1-181.06 0H16a8 8 0 0 0-5.7 13.7L28.73 160 2.34 186.3a8 8 0 0 0 0 11.3L28.73 224l-18.3 18.3a8 8 0 0 0 5.7 13.7h106.1l-26 141.3a16 16 0 0 0 22.9 16.9l32.71-24.2a16 16 0 0 1 17.09-1.3l47.91 25.5a15.08 15.08 0 0 0 14.29 0L279 388.7a16 16 0 0 1 17.1 1.3l32.71 24.2a15.93 15.93 0 0 0 22.89-16.9L325.93 256H432a8.05 8.05 0 0 0 5.69-13.7L419.34 224l26.29-26.3a8 8 0 0 0 .18-11.31zM256 112a16 16 0 1 0-16-16 16 16 0 0 0 16 16zm-64-16a16 16 0 1 0-16-16 16 16 0 0 0 16 16z" class="fa-primary"/></svg>