<svg xmlns="http://www.w3.org/2000/svg" viewBox="0 0 640 512"><defs><style>.fa-secondary{opacity:.4}</style></defs><path d="M256 224V32a32 32 0 0 0-32-32H32A32 32 0 0 0 0 32v192a32 32 0 0 0 32 32h192a32 32 0 0 0 32-32zm-64-32H64V64h128zm416 64H416a32 32 0 0 0-32 32v192a32 32 0 0 0 32 32h192a32 32 0 0 0 32-32V288a32 32 0 0 0-32-32zm-32 192H448V320h128z" class="fa-secondary"/><path d="M416 224a64.07 64.07 0 0 0-64 64v128H208a48 48 0 0 1-48-48v-80h64a64.07 64.07 0 0 0 64-64V96h144a48 48 0 0 1 48 48v80z" class="fa-primary"/></svg>