<svg xmlns="http://www.w3.org/2000/svg" viewBox="0 0 512 512"><defs><style>.fa-secondary{opacity:.4}</style></defs><path d="M466.5 83.68l-192-80a48.21 48.21 0 0 0-36.9 0l-192 80A48 48 0 0 0 16 128c0 198.5 114.5 335.7 221.5 380.33a48.21 48.21 0 0 0 36.9 0C360.1 472.63 496 349.32 496 128a48 48 0 0 0-29.5-44.32zM255.93 446.53C213.14 426.86 171.3 388.76 140.3 341c-37.67-58-58.38-127.8-60.17-202.39l175.92-73.29 175.83 73.27C427.79 319.74 319 417.1 255.93 446.53z" class="fa-secondary"/><path d="M255.93 446.53C213.14 426.86 171.3 388.76 140.3 341c-37.67-58-58.38-127.8-60.17-202.39l175.92-73.29 175.83 73.27C427.79 319.74 319 417.1 255.93 446.53z" class="fa-primary"/></svg>