<svg xmlns="http://www.w3.org/2000/svg" viewBox="0 0 512 512"><defs><style>.fa-secondary{opacity:.4}</style></defs><path d="M40 416h48v80a16 16 0 0 1-16 16H56a16 16 0 0 1-16-16zm96 80a16 16 0 0 0 16 16h16a16 16 0 0 0 16-16v-80h-48zM112 48h240v32a16 16 0 0 0 16 16h32v96h48V77.25a32 32 0 0 0-9.37-22.63L393.37 9.37A32 32 0 0 0 370.74 0H96a32 32 0 0 0-32 32v160h48zm312 448a16 16 0 0 0 16 16h16a16 16 0 0 0 16-16v-80h-48zm-192 0a16 16 0 0 0 16 16h16a16 16 0 0 0 16-16v-80h-48zm96 0a16 16 0 0 0 16 16h16a16 16 0 0 0 16-16v-80h-48z" class="fa-secondary"/><path d="M448 192H64a64 64 0 0 0-64 64v112a16 16 0 0 0 16 16h480a16 16 0 0 0 16-16V256a64 64 0 0 0-64-64zm-16 104a24 24 0 1 1 24-24 24 24 0 0 1-24 24z" class="fa-primary"/></svg>