<svg xmlns="http://www.w3.org/2000/svg" viewBox="0 0 448 512"><defs><style>.fa-secondary{opacity:.4}</style></defs><path d="M448 256.18l-5-152.45a28.57 28.57 0 1 0-57.11 1.87l1.24 38.4L283.56 11a28.57 28.57 0 0 0-39.65-5.33c-12.83 9.6-14.93 28.24-5.08 40.88l76.88 98.75-4.5 3.51-94.79-121.72a28.57 28.57 0 0 0-39.66-5.32c-12.82 9.6-14.93 28.24-5.08 40.88l94.44 121.29-4.51 3.51-77.67-99.76a28.59 28.59 0 0 0-39.66-5.33c-12.82 9.6-14.93 28.24-5.08 40.89l52.05 66.84a36.52 36.52 0 0 1 41.69.91l123.36 89.71a42.43 42.43 0 0 1 17.41 34.2v17l61.07-47.55A34.3 34.3 0 0 0 448 256.18zm-261.25-62.57l-13-16.7c-9.84-12.64-28.43-15.17-40.88-5.08a28.57 28.57 0 0 0-4.55 39.75l36.37 46.71h36.41l-11.18-8.14a36.58 36.58 0 0 1-3.17-56.54z" class="fa-secondary"/><path d="M227.4 512H120a28.58 28.58 0 0 1-28.57-28c-.3-16 13.11-29.13 29.13-29.13h62.3v-5.72H57C41 449.14 27.56 436 27.86 420a28.57 28.57 0 0 1 28.57-28h126.43v-5.71H29.14c-16 0-29.44-13.12-29.13-29.13a28.56 28.56 0 0 1 28.56-28h154.29v-5.71H57.71c-16 0-29.44-13.11-29.13-29.13a28.56 28.56 0 0 1 28.56-28h168.57l-31.09-22.61a28.57 28.57 0 0 1 33.61-46.21l123.36 89.71a34.26 34.26 0 0 1 14.12 27.73v141.11a34.27 34.27 0 0 1-26.43 33.37l-80.47 18.93A136.66 136.66 0 0 1 227.4 512z" class="fa-primary"/></svg>