<svg xmlns="http://www.w3.org/2000/svg" viewBox="0 0 384 512"><defs><style>.fa-secondary{opacity:.4}</style></defs><path d="M256 0H64A64.06 64.06 0 0 0 0 64v384a64.06 64.06 0 0 0 64 64h256a64.06 64.06 0 0 0 64-64V128zm-96 192h64v64h-64zm-96 32a32 32 0 0 1 32-32h32v64H64zm64 224H96a32 32 0 0 1-32-32v-32h64zm96 0h-64v-64h64zm96-32a32 32 0 0 1-32 32h-32v-64h64zm0-64H64v-64h256zm0-96h-64v-64h32a32 32 0 0 1 32 32z" class="fa-secondary"/><path d="M224 384h-64v64h64zm-96 0H64v32a32 32 0 0 0 32 32h32zM64 224v32h64v-64H96a32 32 0 0 0-32 32zm96 32h64v-64h-64zm96 0h64v-32a32 32 0 0 0-32-32h-32zm64 32H64v64h256zm0 96h-64v64h32a32 32 0 0 0 32-32z" class="fa-primary"/></svg>