<svg xmlns="http://www.w3.org/2000/svg" viewBox="0 0 448 512"><defs><style>.fa-secondary{opacity:.4}</style></defs><path d="M368 128C368 57.31 303.53 0 224 0S80 57.31 80 128c0 46.53 28.22 86.87 70 109.28l-5.48 25.87C141.85 275.77 149.94 288 161 288h126.05c11 0 19.12-12.23 16.45-24.85l-5.5-25.87c41.78-22.41 70-62.75 70-109.28zm-200 48a32 32 0 1 1 32-32 32 32 0 0 1-32 32zm112 0a32 32 0 1 1 32-32 32 32 0 0 1-32 32z" class="fa-secondary"/><path d="M1.69 293.48L16 264.85a16 16 0 0 1 21.47-7.16L224 348.41l186.53-90.72a16 16 0 0 1 21.47 7.16l14.31 28.63a16 16 0 0 1-7.15 21.46L297.17 384l142 69.06a16 16 0 0 1 7.16 21.47L432 503.16a16 16 0 0 1-21.47 7.15L224 419.59 37.48 510.31A16 16 0 0 1 16 503.16L1.7 474.53a16 16 0 0 1 7.15-21.47l142-69.06-142-69.06a16 16 0 0 1-7.16-21.46z" class="fa-primary"/></svg>