<svg xmlns="http://www.w3.org/2000/svg" viewBox="0 0 512 512"><defs><style>.fa-secondary{opacity:.4}</style></defs><path d="M253.47 8C116.48 9.41 6.62 121.54 8 258.53S121.54 505.38 258.53 504 505.38 390.46 504 253.47 390.46 6.62 253.47 8zM120 223.4c3.3-42.1 32.2-71.4 56-71.4s52.7 29.3 56 71.4c.7 8.6-10.8 11.9-14.9 4.5l-9.5-17c-7.7-13.7-19.2-21.6-31.5-21.6s-23.8 7.9-31.5 21.6l-9.5 17c-4.3 7.4-15.8 4-15.1-4.5zM371.71 345a149.38 149.38 0 0 1-229.58 2.35c-13.67-16.17 10.62-36.81 24.39-20.75a117.51 117.51 0 0 0 180.39-1.84c13.43-16.32 38.14 3.93 24.8 20.24zM377 227.9l-9.5-17c-7.7-13.7-19.2-21.6-31.5-21.6s-23.8 7.9-31.5 21.6l-9.5 17c-4.1 7.3-15.6 4-14.9-4.5 3.3-42.1 32.2-71.4 56-71.4s52.7 29.3 56 71.4c.6 8.6-11 11.9-15.1 4.5z" class="fa-secondary"/><path d="M176 152c-23.8 0-52.7 29.3-56 71.4-.7 8.5 10.8 11.9 15.1 4.5l9.5-17c7.7-13.7 19.2-21.6 31.5-21.6s23.8 7.9 31.5 21.6l9.5 17c4.1 7.4 15.6 4.1 14.9-4.5-3.3-42.1-32.2-71.4-56-71.4zm216.1 71.4c-3.3-42.1-32.2-71.4-56-71.4s-52.7 29.3-56 71.4c-.7 8.5 10.8 11.8 14.9 4.5l9.5-17c7.7-13.7 19.2-21.6 31.5-21.6s23.8 7.9 31.5 21.6l9.5 17c4.1 7.4 15.7 4.1 15.1-4.5z" class="fa-primary"/></svg>