<svg xmlns="http://www.w3.org/2000/svg" viewBox="0 0 512 512"><defs><style>.fa-secondary{opacity:.4}</style></defs><path d="M256 8C119 8 8 119 8 256s111 248 248 248 248-111 248-248S393 8 256 8zm-80 168a32 32 0 1 1-32 32 32 32 0 0 1 32-32zm194.8 170.3a149.47 149.47 0 0 1-229.6-.1c-13.5-16.3 11.2-36.7 24.6-20.4a117.5 117.5 0 0 0 180.4 0c13.6-16.2 38.1 4.2 24.6 20.5zm5.4-113.3l-9.7-8.5c-14.8-13.2-46.2-13.2-61 0L296 233c-8.3 7.4-21.6.4-19.8-10.8 4-25.2 34.2-42.1 59.9-42.1S392 197 396 222.2c1.7 11.1-11.4 18.3-19.8 10.8z" class="fa-secondary"/><path d="M396 222.2c-4-25.2-34.2-42.1-59.9-42.1s-55.9 16.9-59.9 42.1c-1.8 11.2 11.5 18.2 19.8 10.8l9.5-8.5c14.8-13.2 46.2-13.2 61 0l9.7 8.5c8.4 7.5 21.5.3 19.8-10.8zM176 176a32 32 0 1 0 32 32 32 32 0 0 0-32-32z" class="fa-primary"/></svg>