<svg xmlns="http://www.w3.org/2000/svg" viewBox="0 0 512 512"><defs><style>.fa-secondary{opacity:.4}</style></defs><path d="M288 0H160a32 32 0 0 0-32 32v32h160V32a63.2 63.2 0 0 1 8-30.38C293.4.92 290.85 0 288 0zM128 272l-86.65 64.61C2 366.17-12.51 421 12.14 463.67A96.74 96.74 0 0 0 96.08 512a95.59 95.59 0 0 0 57.52-19.2l21.86-16.39C145.61 421 161.92 350.57 214.66 311L288 256V96H128z" class="fa-secondary"/><path d="M320 272l-86.13 64.61C194.47 366.17 180 421 204.66 463.67A96 96 0 0 0 345.6 492.8l115.2-86.4A128 128 0 0 0 512 304V96H320zM480 0H352a32 32 0 0 0-32 32v32h192V32a32 32 0 0 0-32-32z" class="fa-primary"/></svg>