<svg xmlns="http://www.w3.org/2000/svg" viewBox="0 0 512 512"><defs><style>.fa-secondary{opacity:.4}</style></defs><path d="M255.87 79.35C320.19 141 416.23 234 432.65 251.89a60 60 0 0 1-89.07 80.39l-87.72-97.14-87.51 97.21a60 60 0 0 1-44.69 19.73 58.65 58.65 0 0 1-41.91-17.69c-20-20.45-26-56.29-2.32-82.49C95 234.62 190.53 142.05 255.87 79.35" class="fa-secondary"/><path d="M255.87 79.35C320.19 141 416.23 234 432.65 251.89a60 60 0 0 1-89.07 80.39l-87.72-97.14-87.51 97.21a60 60 0 0 1-44.69 19.73 58.65 58.65 0 0 1-41.91-17.69c-20-20.45-26-56.29-2.32-82.49C95 234.62 190.53 142.05 255.87 79.35m0-79.35a24 24 0 0 0-16.57 6.6C191.32 52.41 53.58 185 32 208.94c-19.3 21.31-32 49.41-32 80.62 0 70.51 54.88 126.22 123.45 126.52h.36a123.91 123.91 0 0 0 92.1-40.91c-.1 36.61-.8 52.31-52.38 75.42-14.09 6.3-22.19 21.6-18.69 36.61A32.07 32.07 0 0 0 176 512h159.36c15.5 0 29.19-10.8 32.09-26a31.88 31.88 0 0 0-18.39-35.21c-51.58-23-52.78-38.11-53-75.62A124 124 0 1 0 480 208.84C458.21 185 320.47 52.41 272.39 6.6A24 24 0 0 0 255.85 0z" class="fa-primary"/></svg>