<svg xmlns="http://www.w3.org/2000/svg" viewBox="0 0 576 512"><defs><style>.fa-secondary{opacity:.4}</style></defs><path d="M370.82 306.77l19.71 114.7-103-54.16-103 54.16 19.71-114.7-83.41-81.28L236 208.69l51.5-104.38L339 208.69l115.25 16.8z" class="fa-secondary"/><path d="M527.6 171.51l-146.1-21.3-65.3-132.4a32 32 0 0 0-57.4 0l-65.3 132.4-146.1 21.3c-26.2 3.8-36.7 36.1-17.7 54.6l105.7 103-25 145.5c-3.56 20.79 13 37.45 31.56 37.45a31.49 31.49 0 0 0 14.84-3.75l130.7-68.7 130.7 68.7A31.67 31.67 0 0 0 433 512c18.57 0 35.15-16.61 31.59-37.41l-25-145.5 105.7-103c19.01-18.48 8.51-50.78-17.69-54.58zM370.82 306.77l19.71 114.7-103-54.16-103 54.16 19.71-114.7-83.41-81.28L236 208.69l51.5-104.38L339 208.69l115.25 16.8z" class="fa-primary"/></svg>