<svg xmlns="http://www.w3.org/2000/svg" viewBox="0 0 512 512"><defs><style>.fa-secondary{opacity:.4}</style></defs><path d="M200 344h-.07l-44-73.93L95 168h39.72l33.33-56H61.11c-28.6 0-46.42 30.4-32 54.61l56.6 95.08L115 310.55l-.09.14L134.72 344H200zm160.17-80.7L312.12 344h-.07l-33.4 56h.13L256 438.27 233.22 400h-65.17L224 494a37.44 37.44 0 0 0 64 0l56-94h-.19L377 344h.3l19.85-33.33L364.52 256zM450.89 112H233.35L200 168h217l-19.88 33.33L429.68 256l53.21-89.4c14.41-24.19-3.41-54.6-32-54.6z" class="fa-secondary"/><path d="M115 310.55L82.32 256l-53.21 89.41C14.7 369.62 32.52 400 61.11 400h217.46l33.28-56H95zm36.86-61.83l48-80.7h.14l33.39-56h-.13L256 73.76 278.78 112h65.16L288 18a37.44 37.44 0 0 0-64 0L114.88 201.32 147.5 256zm331.06 96.69L377.28 168H312h.07l44 73.93L417 344h-40l-33.22 56h107.11c28.6 0 46.42-30.38 32-54.59z" class="fa-primary"/></svg>