<svg xmlns="http://www.w3.org/2000/svg" viewBox="0 0 624 512"><defs><style>.fa-secondary{opacity:.4}</style></defs><path d="M551.64 286.8a102.1 102.1 0 0 0 16.4-3.6V480a32 32 0 0 1-32 32H88a32 32 0 0 1-32-32V283.2a125.76 125.76 0 0 0 16.4 3.6 134.93 134.93 0 0 0 18 1.2 132.48 132.48 0 0 0 29.5-3.8V384h384v-99.8a126.88 126.88 0 0 0 29.5 3.8 139.07 139.07 0 0 0 18.24-1.2z" class="fa-secondary"/><path d="M605.94 118.6c33.6 53.6 3.8 128-59 136.4a102.81 102.81 0 0 1-13.7.9 99.07 99.07 0 0 1-73.8-33.1 98.82 98.82 0 0 1-147.6 0 98.82 98.82 0 0 1-147.6 0 98.74 98.74 0 0 1-73.8 33.1 103.92 103.92 0 0 1-13.7-.9c-62.6-8.5-92.3-82.9-58.8-136.4L82.84 15a32 32 0 0 1 27.1-15h404A32 32 0 0 1 541 15z" class="fa-primary"/></svg>