<svg xmlns="http://www.w3.org/2000/svg" viewBox="0 0 384 512"><defs><style>.fa-secondary{opacity:.4}</style></defs><path d="M312 352H72a8 8 0 0 0-8 8v16a8 8 0 0 0 8 8h240a8 8 0 0 0 8-8v-16a8 8 0 0 0-8-8zm0-96H72a8 8 0 0 0-8 8v16a8 8 0 0 0 8 8h240a8 8 0 0 0 8-8v-16a8 8 0 0 0-8-8zM144 48h96v80h48V48a48 48 0 0 0-48-48h-96a48 48 0 0 0-48 48v80h48z" class="fa-secondary"/><path d="M336 160H48a48 48 0 0 0-48 48v224a48 48 0 0 0 48 48h16v16a16 16 0 0 0 16 16h32a16 16 0 0 0 16-16v-16h128v16a16 16 0 0 0 16 16h32a16 16 0 0 0 16-16v-16h16a48 48 0 0 0 48-48V208a48 48 0 0 0-48-48zm-16 216a8 8 0 0 1-8 8H72a8 8 0 0 1-8-8v-16a8 8 0 0 1 8-8h240a8 8 0 0 1 8 8zm0-96a8 8 0 0 1-8 8H72a8 8 0 0 1-8-8v-16a8 8 0 0 1 8-8h240a8 8 0 0 1 8 8z" class="fa-primary"/></svg>