<svg xmlns="http://www.w3.org/2000/svg" viewBox="0 0 512 512"><defs><style>.fa-secondary{opacity:.4}</style></defs><path d="M435.56 167.1l-90.33-90.51a31.89 31.89 0 0 0-45.1-.07l-.07.07-75.5 75.65V416c0 3-.67 5.73-.87 8.64l211.87-212.28a32.05 32.05 0 0 0 0-45.26zM63.88 192v64h63.93v-64zm416.18 128H373.29L187.15 506.51c-2.06 2.07-4.49 3.58-6.67 5.49h299.58A32 32 0 0 0 512 480V352a32 32 0 0 0-31.94-32zM63.88 64v64h63.93V64z" class="fa-secondary"/><path d="M159.68 0H31.94A32 32 0 0 0 0 32v384a95.81 95.81 0 1 0 191.62 0V32a32 32 0 0 0-31.94-32zM95.81 440a24 24 0 1 1 24-24 24 24 0 0 1-24 24zM63.88 256v-64h63.88v64zm0-128V64h63.88v64z" class="fa-primary"/></svg>