<svg xmlns="http://www.w3.org/2000/svg" viewBox="0 0 512 512"><defs><style>.fa-secondary{opacity:.4}</style></defs><path d="M488.12 352H288v48h176v32H288v48h200a23.94 23.94 0 0 0 24-23.88V376a23.94 23.94 0 0 0-23.88-24zm0-320H352v48h112v32H352v48h136a23.94 23.94 0 0 0 24-23.88V56a23.94 23.94 0 0 0-23.88-24zm0 160H160v48h304v32H160v48h328a23.94 23.94 0 0 0 24-23.88V216a23.94 23.94 0 0 0-23.88-24z" class="fa-secondary"/><path d="M0 375.88V456a23.94 23.94 0 0 0 23.88 24H288V352H24a23.94 23.94 0 0 0-24 23.88zM24 32A23.94 23.94 0 0 0 0 55.88V136a23.94 23.94 0 0 0 23.88 24H352V32zm-.12 288H160V192H24a23.94 23.94 0 0 0-24 23.88V296a23.94 23.94 0 0 0 23.88 24z" class="fa-primary"/></svg>