<svg xmlns="http://www.w3.org/2000/svg" viewBox="0 0 512 512"><defs><style>.fa-secondary{opacity:.4}</style></defs><path d="M275 77.5c-.59-19.26 3-63.59 52.93-58.89A247.94 247.94 0 0 0 256 8c-3.61 0-7.19.09-10.76.25C232.55 26.92 226.1 51.32 227 79.1c2.2 71.2-69 149.7-147.9 147.8-27.88-1.19-52.18 5.45-70.85 18.24C8.1 248.74 8 252.36 8 256a248.1 248.1 0 0 0 10.72 72.31C13.7 278 58.22 274.51 77.6 275c47.4 1.8 101.6-21.5 138.7-58.8 37.1-37.1 60.2-91.6 58.7-138.7zm218.26 106.13c5 50.23-39.65 53.67-58.86 53.27-46.8-1.9-101.5 21.6-138.7 58.8s-60.2 91.6-58.7 138.7c.59 19.39-3.13 63.72-53.34 58.87A247.92 247.92 0 0 0 256 504c3.57 0 7.12-.09 10.66-.24 12.79-18.67 19.24-43.08 18.34-70.86-2.4-77.5 76.4-150.5 147.9-147.9 27.83.9 52.27-5.57 70.86-18.31.15-3.54.24-7.11.24-10.69a248.08 248.08 0 0 0-10.74-72.37z" class="fa-secondary"/><path d="M432.9 285c-71.5-2.6-150.3 70.4-147.9 147.9.9 27.9-5.6 52.4-18.5 71.1 121-5.1 231.6-100.1 237.4-237.4-18.6 12.8-43.1 19.3-71 18.4zM79.1 226.9C158 228.8 229.2 150.3 227 79.1c-.9-27.9 5.6-52.4 18.4-71.1C121.8 13.2 13.8 110.6 8 245.3c18.7-12.9 43.1-19.6 71.1-18.4zm216.6 68.8c37.2-37.2 91.9-60.7 138.7-58.8 19.4.4 64.8-3.1 58.7-54.8A248.2 248.2 0 0 0 329.8 18.8c-51.7-6-55.4 39.2-54.8 58.7 1.5 47.1-21.6 101.6-58.7 138.7-37.1 37.3-91.3 60.6-138.7 58.8-19.6-.5-64.9 3.1-58.7 55A247.63 247.63 0 0 0 182 493.1c51.8 6 55.6-39.1 55-58.7-1.5-47.1 21.6-101.6 58.7-138.7z" class="fa-primary"/></svg>