<svg xmlns="http://www.w3.org/2000/svg" viewBox="0 0 640 512"><defs><style>.fa-secondary{opacity:.4}</style></defs><path d="M193.36 157.54a39.5 39.5 0 0 0-4.07-11.4c-8.25 8.91-20.67 15.75-35.32 18.32s-28.67.4-39.48-5.17a39.32 39.32 0 0 0 .09 12.1 40 40 0 0 0 78.78-13.85zm5.87 130.79l7.63-43.18c-35.88 10.45-60 41.2-57.53 74.1 11.4-12.72 28.81-23.7 49.9-30.92zM325.18 5.7a453.74 453.74 0 0 0-292 51.36C9 70.48-3.92 98.48 1.05 126.58l31.73 179.51C47 386.61 169.11 448.17 237.23 448.17a92.06 92.06 0 0 0 10-.8c-13.52-17.08-28.94-40.48-39.5-67.58-47.61-13-106.06-51.62-111.93-84.79L64.08 115.49a5 5 0 0 1 .24-2.65 390.45 390.45 0 0 1 189-49c1.61 0 3.23.17 4.85.19a96 96 0 0 1 51.59-26A486.28 486.28 0 0 1 367 32.7c-10-13.95-24.53-24.23-41.82-27z" class="fa-secondary"/><path d="M606.8 120.9a453.31 453.31 0 0 0-292-51.35c-27.31 4.36-49.08 26.26-54 54.36l-31.75 179.51c-15.39 87.05 95.28 196.27 158.31 207.35S591.83 457 607.22 369.93L639 190.42c4.92-28.11-8-56.11-32.2-69.52zm-273.24 96.8a40 40 0 0 1 78.79 13.86 39.5 39.5 0 0 1-4.07 11.4c-8.25-8.91-20.67-15.75-35.32-18.32s-28.67-.4-39.48 5.17a39.07 39.07 0 0 1 .08-12.11zM404 416.46c-55.68-9.79-93.52-59.27-89-112.9 20.6 25.54 56.21 46.17 99.49 53.78s83.82.37 111.93-16.6c-14.19 51.94-66.72 85.51-122.42 75.72zm134.4-162.74a39.29 39.29 0 0 1-4.07 11.4c-8.25-8.91-20.68-15.75-35.33-18.32s-28.67-.4-39.48 5.17a39.32 39.32 0 0 1 .09-12.1 40 40 0 0 1 78.79 13.85z" class="fa-primary"/></svg>