<svg xmlns="http://www.w3.org/2000/svg" viewBox="0 0 576 512"><defs><style>.fa-secondary{opacity:.4}</style></defs><path d="M576 208v-96a48 48 0 0 0-48-48H48a48 48 0 0 0-48 48v96a48 48 0 0 1 0 96v96a48 48 0 0 0 48 48h480a48 48 0 0 0 48-48v-96a48 48 0 0 1 0-96zm-64-43.95a114.32 114.32 0 0 0-15.2 12.75 112 112 0 0 0 0 158.39A114.06 114.06 0 0 0 512 348v36H64v-36a114.06 114.06 0 0 0 15.2-12.8 112 112 0 0 0 0-158.39A114.32 114.32 0 0 0 64 164.05V128h448z" class="fa-secondary"/><path d="M496.8 176.8a112 112 0 0 0 0 158.39A114.06 114.06 0 0 0 512 348v36H64v-36a114.06 114.06 0 0 0 15.2-12.8 112 112 0 0 0 0-158.39A114.32 114.32 0 0 0 64 164.05V128h448v36.05a114.32 114.32 0 0 0-15.2 12.75z" class="fa-primary"/></svg>