<svg xmlns="http://www.w3.org/2000/svg" viewBox="0 0 544 512"><defs><style>.fa-secondary{opacity:.4}</style></defs><path d="M537.53 231.8l-112-192A48.12 48.12 0 0 0 384 16H160a48.1 48.1 0 0 0-41.5 23.8l-112 192a48.09 48.09 0 0 0 0 48.4l112 192A48.1 48.1 0 0 0 160 496h224a48.12 48.12 0 0 0 41.5-23.8l112-192a48.14 48.14 0 0 0 .03-48.4zM393.62 321a12 12 0 0 1 0 17l-39.39 39.8a12 12 0 0 1-17 0l-65.11-65.1L207 377.8a12 12 0 0 1-17 0l-39.6-39.6a12 12 0 0 1 0-17l65.1-65.1-65.07-65.1a12 12 0 0 1 0-17l39.5-39.7a12 12 0 0 1 17 0L272 199.4l65-65a12 12 0 0 1 17 0l39.7 39.5a12 12 0 0 1 0 17L328.62 256z" class="fa-secondary"/><path d="M393.62 321a12 12 0 0 1 0 17l-39.39 39.8a12 12 0 0 1-17 0l-65.11-65.1L207 377.8a12 12 0 0 1-17 0l-39.6-39.6a12 12 0 0 1 0-17l65.1-65.1-65.07-65.1a12 12 0 0 1 0-17l39.5-39.7a12 12 0 0 1 17 0L272 199.4l65-65a12 12 0 0 1 17 0l39.7 39.5a12 12 0 0 1 0 17L328.62 256z" class="fa-primary"/></svg>