<svg xmlns="http://www.w3.org/2000/svg" viewBox="0 0 384 512"><defs><style>.fa-secondary{opacity:.4}</style></defs><path d="M25.21 356.07a31.46 31.46 0 0 0 0 44.48l22.24 22.24a31.46 31.46 0 0 0 44.48 0L192 322.72 125.28 256zm333.58-244.62l-22.24-22.24a31.46 31.46 0 0 0-44.48 0L192 189.28 258.72 256l100.07-100.07a31.46 31.46 0 0 0 0-44.48z" class="fa-secondary"/><path d="M358.79 356.07a31.46 31.46 0 0 1 0 44.48l-22.24 22.24a31.46 31.46 0 0 1-44.48 0L25.21 155.93a31.46 31.46 0 0 1 0-44.48l22.24-22.24a31.46 31.46 0 0 1 44.48 0z" class="fa-primary"/></svg>