<svg xmlns="http://www.w3.org/2000/svg" viewBox="0 0 512 512"><defs><style>.fa-secondary{opacity:.4}</style></defs><path d="M507.75 109.2a12 12 0 0 0-20.1-5.5l-74.4 74.4-67.9-11.3-11.3-67.9 74.4-74.4a12.07 12.07 0 0 0-5.7-20.2 144.05 144.05 0 0 0-136.6 37.9c-28.5 28.5-41.9 66.1-41.2 103.6l82.1 82.1a108.94 108.94 0 0 1 24.7-2.9 105.21 105.21 0 0 1 74.9 31l19.4 19.4a141.55 141.55 0 0 0 43.8-29.5 143.81 143.81 0 0 0 37.9-136.7zM227.85 307l-56.7-56.7-152.4 152.5a64 64 0 0 0 90.5 90.5l123.6-123.6c-7.6-19.9-9.85-41.6-5-62.7zM64.05 472a24 24 0 1 1 24-24 24.07 24.07 0 0 1-24 24z" class="fa-secondary"/><path d="M501.15 395.7a37.36 37.36 0 0 1 0 52.7l-52.7 52.7a37.18 37.18 0 0 1-52.7 0L278.65 384c-23.1-23.1-27.5-57.6-13.9-85.4L158.15 192h-62.1L.05 64l64-64 128 96v62.1l106.6 106.6a74.25 74.25 0 0 1 85.4 13.9z" class="fa-primary"/></svg>