<svg xmlns="http://www.w3.org/2000/svg" viewBox="0 0 640 512"><defs><style>.fa-secondary{opacity:.4}</style></defs><path d="M386.09 256l-33.17 55.5h-65.79l-16.61-27.75L253.91 256l16.58-27.76 16.58-27.76h65.79zm-48.32 80.84h-35.46l17.74 29.64zM320 145.53l-17.77 29.62h35.45zm-90.07 150.56l-9.19 15.41h36.85l-18.46-30.82zm27.62-95.59h-36.81l18.44 30.8zM128 48h384v416H128zm67 159l29.35 49-29.21 48.86a21.12 21.12 0 0 0 15.94 31.87 19.28 19.28 0 0 0 2.16.11h59.54L302 385.72a20.79 20.79 0 0 0 18 10.22c.46 0 .93 0 1.39-.05a21.11 21.11 0 0 0 16.77-10.32l29.13-48.7h59.45a21.25 21.25 0 0 0 18.48-10.72A20.69 20.69 0 0 0 445 305l-29.35-49 14.62-24.43 14.62-24.43a21.12 21.12 0 0 0-18.1-32h-59.54L338 126.29a20.76 20.76 0 0 0-17.95-10.23 21.14 21.14 0 0 0-18.22 10.37l-29.13 48.71h-59.45a21.2 21.2 0 0 0-17.73 9.5c-.26.39-.51.8-.75 1.21-.24.41-.46.83-.66 1.25A20.7 20.7 0 0 0 195 207zm224.25-6.47h-36.84l18.45 30.82zm-36.81 111h36.86l-18.45-30.8z" class="fa-secondary"/><path d="M48 0C21.49 0 0 14.33 0 32v448c0 17.67 21.49 32 48 32s48-14.33 48-32V32C96 14.33 74.51 0 48 0zm544 0c-26.51 0-48 14.33-48 32v448c0 17.67 21.49 32 48 32s48-14.33 48-32V32c0-17.67-21.49-32-48-32zM415.63 256l29.24-48.86a21.12 21.12 0 0 0-18.1-32h-59.52L338 126.29a20.76 20.76 0 0 0-17.95-10.23 21.1 21.1 0 0 0-18.21 10.37l-29.14 48.71h-59.45a21.22 21.22 0 0 0-18.48 10.71A20.7 20.7 0 0 0 195 207l29.34 49-29.21 48.86a21.11 21.11 0 0 0 18.1 32h59.57l29.25 48.88a20.76 20.76 0 0 0 17.95 10.2 21.13 21.13 0 0 0 18.16-10.37l29.13-48.7h59.45a21.25 21.25 0 0 0 18.48-10.72A20.69 20.69 0 0 0 445 305zm3.63-55.5l-18.4 30.82-18.45-30.82zm-99.26-55l17.68 29.62h-35.45zm-99.27 55h36.82l-18.37 30.8zm0 111l18.4-30.82 18.46 30.82zm99.32 55l-17.74-29.64h35.46zm32.87-55h-65.79L253.91 256l33.16-55.52h65.79L386.09 256zm29.53 0l18.41-30.8 18.45 30.8z" class="fa-primary"/></svg>