<svg xmlns="http://www.w3.org/2000/svg" viewBox="0 0 512 512"><defs><style>.fa-secondary{opacity:.4}</style></defs><path d="M393.86 96H12.21c9.7 34.2 24.5 62.1 42.71 85.3h349.84c-14.1-23.1-20.6-50.2-10.9-85.3zM512 330.7H299.05c33 20.5 54.4 45.8 53.3 85.3h125.52c25.13-34.4 34.7-62 34.13-85.3z" class="fa-secondary"/><path d="M429.26 25.2c7.4-10.6 0-25.2-12.9-25.2H16.11A16.18 16.18 0 0 0 0 16.5 343.92 343.92 0 0 0 5.11 64h401.15a287.93 287.93 0 0 1 23-38.8zm.7 188.1h-345c45.11 40.4 101 63.6 150.12 85.3h269.39c-14.47-32.1-47.4-56.9-74.47-85.3zm-98.11 275.8a16 16 0 0 0 14.4 22.9h27.41a32.82 32.82 0 0 0 21.7-8.3 733.22 733.22 0 0 0 56.41-55.7H347.45a241.22 241.22 0 0 1-15.6 41.1z" class="fa-primary"/></svg>