<svg xmlns="http://www.w3.org/2000/svg" viewBox="0 0 480 512"><defs><style>.fa-secondary{opacity:.4}</style></defs><path d="M144 192v192h64V192h64v192h64V192h64v192h36a12 12 0 0 1 12 12v20H32v-20a12 12 0 0 1 12-12h36V192z" class="fa-secondary"/><path d="M475.06 120.61l-232-88a8 8 0 0 0-6.12 0l-232 88A8 8 0 0 0 0 128v16a8 8 0 0 0 8 8h24v12a12 12 0 0 0 12 12h392a12 12 0 0 0 12-12v-12h24a8 8 0 0 0 8-8v-16a8 8 0 0 0-4.94-7.39zM456 432H24a24 24 0 0 0-24 24v16a8 8 0 0 0 8 8h464a8 8 0 0 0 8-8v-16a24 24 0 0 0-24-24z" class="fa-primary"/></svg>