<svg xmlns="http://www.w3.org/2000/svg" viewBox="0 0 512 512"><defs><style>.fa-secondary{opacity:.4}</style></defs><path d="M256 8C119 8 8 119 8 256s111 248 248 248 248-111 248-248S393 8 256 8zm24 376v16a16 16 0 0 1-16 16h-16a16 16 0 0 1-16-16v-16.2a88.84 88.84 0 0 1-46.4-15.1c-8.7-5.9-10-18.1-2.3-25.2l12-11.3c5.4-5.1 13.3-5.4 19.7-1.6a38.9 38.9 0 0 0 19.9 5.4h45c11.3 0 20.5-10.5 20.5-23.4 0-10.6-6.3-19.9-15.2-22.7L213 268c-29-8.8-49.2-37-49.2-68.6 0-39.3 30.6-71.3 68.2-71.4v-16a16 16 0 0 1 16-16h16a16 16 0 0 1 16 16v16.2a88.84 88.84 0 0 1 46.4 15.1c8.7 5.9 10 18.1 2.3 25.2l-12 11.3c-5.4 5.1-13.3 5.4-19.7 1.6a38.9 38.9 0 0 0-19.9-5.4h-45c-11.3 0-20.5 10.5-20.5 23.4 0 10.6 6.3 19.9 15.2 22.7l72 21.9c29 8.8 49.2 37 49.2 68.6.2 39.3-30.4 71.2-68 71.4z" class="fa-secondary"/><path d="M232 128v-16a16 16 0 0 1 16-16h16a16 16 0 0 1 16 16v16.2a88.84 88.84 0 0 1 46.4 15.1c8.7 5.9 10 18.1 2.3 25.2l-12 11.3c-5.4 5.1-13.3 5.4-19.7 1.6a38.9 38.9 0 0 0-19.9-5.4h-45c-11.3 0-20.5 10.5-20.5 23.4 0 10.6 6.3 19.9 15.2 22.7l72 21.9c29 8.8 49.2 37 49.2 68.6.2 39.3-30.4 71.2-68 71.4v16a16 16 0 0 1-16 16h-16a16 16 0 0 1-16-16v-16.2a88.84 88.84 0 0 1-46.4-15.1c-8.7-5.9-10-18.1-2.3-25.2l12-11.3c5.4-5.1 13.3-5.4 19.7-1.6a38.9 38.9 0 0 0 19.9 5.4h45c11.3 0 20.5-10.5 20.5-23.4 0-10.6-6.3-19.9-15.2-22.7L213 268c-29-8.8-49.2-37-49.2-68.6 0-39.3 30.6-71.3 68.2-71.4z" class="fa-primary"/></svg>