<svg xmlns="http://www.w3.org/2000/svg" viewBox="0 0 512 512"><defs><style>.fa-secondary{opacity:.4}</style></defs><path d="M293.76 285.91L98.78 503a27.26 27.26 0 0 1-38.5 2.05c-.34-.31-.67-.62-1-.95L8 452.81a27.18 27.18 0 0 1-.12-38.44c.36-.36.74-.72 1.12-1.06l217.14-195a136.7 136.7 0 0 0 67.66 67.65z" class="fa-secondary"/><path d="M446.14 269.5c-40.61 40.62-136.1 44.93-192.33-11.31S201.88 106.47 242.5 65.86C310.38-2 423.85-24.32 480.08 31.92S514 201.62 446.14 269.5z" class="fa-primary"/></svg>