<svg xmlns="http://www.w3.org/2000/svg" viewBox="0 0 512 512"><defs><style>.fa-secondary{opacity:.4}</style></defs><path d="M351.5 16A64.05 64.05 0 0 0 310 31.43a64.27 64.27 0 0 0-110.47 0A64.17 64.17 0 0 0 158 16c-35.57 0-64.49 28.7-64.49 64s28.92 64 64.49 64a64.54 64.54 0 0 0 35.08-10.4L222.5 192H287l29.43-58.4A64.48 64.48 0 0 0 351.5 144c35.58 0 64.5-28.7 64.5-64s-28.92-64-64.5-64zm-47.1 208h-96.8a32 32 0 0 0-25.2 12.3l-55.6 71 13.2 16.5c9.8 12.2 30.3 12.2 40.1 0a57.39 57.39 0 0 1 44.1-21.6c17.2-1.5 33.6 7 44.8 20.1l31.6 36.8c9.8 11.4 29.2 11.4 39 0l45.1-52.6-55-70.2a32.19 32.19 0 0 0-25.3-12.3z" class="fa-secondary"/><path d="M480 512H32.1c-26.4 0-41.5-30.1-25.6-51.2l100.1-127.7 8.4 10.6c22 27.5 68 27.5 90.1 0a25.8 25.8 0 0 1 19.6-9.7h.4a25.72 25.72 0 0 1 19.5 9l31.6 36.8a57.59 57.59 0 0 0 87.6 0l40.9-47.7 100.8 128.7c15.9 21.13.8 51.2-25.5 51.2z" class="fa-primary"/></svg>