<svg xmlns="http://www.w3.org/2000/svg" viewBox="0 0 512 512"><defs><style>.fa-secondary{opacity:.4}</style></defs><path d="M110.84 172.51l9.48 66.33A112 112 0 1 0 286.85 352h24.51l25.75 54.81C309.81 468.69 247.87 512 176 512 79 512 0 433.05 0 336c0-74 46-137.54 110.84-163.49z" class="fa-secondary"/><path d="M128 64a64 64 0 1 1 73.37 63.31L206 160h130a16 16 0 0 1 16 16v32a16 16 0 0 1-16 16H215.18l4.57 32H352a32 32 0 0 1 29 18.39l57.48 122.41 36.18-18.35a16 16 0 0 1 21.44 7.22l14.23 28.66a16 16 0 0 1-7.22 21.45l-65.46 32.88a32 32 0 0 1-43.19-15.05L331.68 320H192a32 32 0 0 1-31.68-27.48C126.43 55.31 128.38 70 128 64z" class="fa-primary"/></svg>