<svg xmlns="http://www.w3.org/2000/svg" viewBox="0 0 640 512"><defs><style>.fa-secondary{opacity:.4}</style></defs><path d="M208 160a96 96 0 1 0 96 96 96 96 0 0 0-96-96zm0 144a48 48 0 1 1 48-48 48 48 0 0 1-48 48z" class="fa-secondary"/><path d="M634 326.33l-150-120a16.15 16.15 0 0 0-18.2-1.2l-27.4 16.2a8 8 0 0 1-9.1-.6l-25.2-20.2a8 8 0 0 1-2.6-8.9l10.2-29.51a16 16 0 0 0-5.1-17.7L320 80.8c-62.6-40.1-141.7-42.9-207-9.3C100.9 56.9 83.2 48 64 48a64.06 64.06 0 0 0-64 64 63.27 63.27 0 0 0 23 49c-40.1 78.22-27.5 176.53 38 242 89.8 89.81 251.1 81.41 326.5-32l150.4 86a15.92 15.92 0 0 0 20.7-4.3l78.2-104.32a16 16 0 0 0-2.8-22.05zM40.4 133.21A31.86 31.86 0 0 1 85.5 88.3c-17.8 13.01-29.9 24.31-45.1 44.91zM208 352a96 96 0 1 1 96-96 96 96 0 0 1-96 96z" class="fa-primary"/></svg>