<svg xmlns="http://www.w3.org/2000/svg" viewBox="0 0 320 512"><defs><style>.fa-secondary{opacity:.4}</style></defs><path d="M224.35 253.62a81.07 81.07 0 0 1-46.84 30.85 77.47 77.47 0 0 1-35 0 81.08 81.08 0 0 1-46.84-30.85 79.74 79.74 0 0 1-15.29-55.26L92.39 64h135.24l12 134.36a79.65 79.65 0 0 1-15.28 55.26z" class="fa-secondary"/><path d="M227.63 64l12 134.36a79.65 79.65 0 0 1-15.28 55.26 81.07 81.07 0 0 1-46.84 30.85 77.47 77.47 0 0 1-35 0 81.08 81.08 0 0 1-46.84-30.85 79.76 79.76 0 0 1-15.29-55.26L92.39 64h135.24m44.12-64H48.27a15.85 15.85 0 0 0-15.7 14.55l-16 178.11A144.65 144.65 0 0 0 128 346.82V464H88a40 40 0 0 0-40 40 8 8 0 0 0 8 8h208a8 8 0 0 0 8-8 40 40 0 0 0-40-40h-40V346.81a144.65 144.65 0 0 0 111.4-154.16l-16-178.1A15.85 15.85 0 0 0 271.75 0z" class="fa-primary"/></svg>